<svg width="1440" height="1024" viewBox="0 0 1440 1024" fill="none" xmlns="http://www.w3.org/2000/svg">
<rect width="1440" height="1024" fill="#E8CFBE"/>
<rect x="20" y="31" width="142" height="963" rx="51" fill="#373E4E"/>
<path opacity="0.5" d="M20 283H137.9C145.134 283 151 288.429 151 295.125V367.875C151 374.571 145.134 380 137.9 380H20V283Z" fill="#C5DCFA" fill-opacity="0.57"/>
<path fill-rule="evenodd" clip-rule="evenodd" d="M97.65 121.498L89.3913 113.674C88.0049 112.36 85.7571 112.36 84.3708 113.674L76.35 121.273V137.546H84.6333V130.819C84.6333 129.58 85.6929 128.577 87 128.577C88.3071 128.577 89.3666 129.58 89.3666 130.819V137.546H97.65V121.498ZM86.0443 115.259L78.7166 122.202V135.303H82.2666V130.819C82.2666 128.343 84.3859 126.335 87 126.335C89.6141 126.335 91.7333 128.343 91.7333 130.819V135.303H95.2833V122.428L87.7178 115.259C87.2557 114.822 86.5064 114.822 86.0443 115.259Z" fill="#525B67"/>
<path fill-rule="evenodd" clip-rule="evenodd" d="M98 221V227H76V221H98ZM78.4444 223H95.5556V225H78.4444V223Z" fill="#818181"/>
<path d="M98 229C98 228.448 97.5523 228 97 228H77C76.4477 228 76 228.448 76 229V243C76 243.552 76.4477 244 77 244H97C97.5523 244 98 243.552 98 243V229ZM78 242V230H96V242H78Z" fill="#818181" stroke="#818181" stroke-width="2" stroke-linejoin="round"/>
<path d="M81.0834 410.094H92.9167V407.852H81.0834V410.094Z" fill="#818181"/>
<path d="M92.9167 405.609H81.0834V403.367H92.9167V405.609Z" fill="#818181"/>
<path d="M81.0834 401.125H85.8167V398.883H81.0834V401.125Z" fill="#818181"/>
<path fill-rule="evenodd" clip-rule="evenodd" d="M79.9 392.156C77.9393 392.156 76.35 393.662 76.35 395.52V411.215C76.35 413.072 77.9393 414.578 79.9 414.578H94.1C96.0606 414.578 97.65 413.072 97.65 411.215V400.004C97.65 395.67 93.9414 392.156 89.3666 392.156H79.9ZM79.9 394.398H88.1833V400.004H95.2833V411.215C95.2833 411.834 94.7535 412.336 94.1 412.336H79.9C79.2464 412.336 78.7166 411.834 78.7166 411.215V395.52C78.7166 394.901 79.2464 394.398 79.9 394.398ZM90.55 394.511C92.4567 394.877 94.0305 396.113 94.791 397.762H90.55V394.511Z" fill="#818181"/>
<path fill-rule="evenodd" clip-rule="evenodd" d="M77.5333 486.221C76.2262 486.221 75.1667 487.224 75.1667 488.463V489.584C75.1667 489.648 75.1695 489.711 75.1749 489.772C73.7917 490.232 72.8 491.48 72.8 492.947V506.4C72.8 508.258 74.3893 509.764 76.35 509.764H97.65C99.6107 509.764 101.2 508.258 101.2 506.4V492.947C101.2 491.09 99.6107 489.584 97.65 489.584H86.8509C86.3254 487.65 84.4722 486.221 82.2667 486.221H77.5333ZM84.3167 489.584C83.9075 488.914 83.1427 488.463 82.2667 488.463H77.5333V489.584H84.3167ZM76.35 491.826C75.6964 491.826 75.1667 492.328 75.1667 492.947V506.4C75.1667 507.019 75.6964 507.521 76.35 507.521H97.65C98.3035 507.521 98.8333 507.019 98.8333 506.4V492.947C98.8333 492.328 98.3035 491.826 97.65 491.826H76.35Z" fill="#818181"/>
<path fill-rule="evenodd" clip-rule="evenodd" d="M82.2667 600.043C82.2667 602.519 84.3859 604.527 87 604.527C89.6141 604.527 91.7333 602.519 91.7333 600.043C91.7333 597.566 89.6141 595.559 87 595.559C84.3859 595.559 82.2667 597.566 82.2667 600.043ZM84.6333 600.043C84.6333 601.282 85.6929 602.285 87 602.285C88.3071 602.285 89.3667 601.282 89.3667 600.043C89.3667 598.804 88.3071 597.801 87 597.801C85.6929 597.801 84.6333 598.804 84.6333 600.043Z" fill="#818181"/>
<path fill-rule="evenodd" clip-rule="evenodd" d="M87 591.074C94.1889 591.074 100.017 596.596 100.017 603.406C100.017 610.217 94.1889 615.738 87 615.738C79.8111 615.738 73.9833 610.217 73.9833 603.406C73.9833 596.596 79.8111 591.074 87 591.074ZM97.65 603.406C97.65 605.749 96.8069 607.906 95.3922 609.619C93.4463 607.206 90.3769 605.648 86.9237 605.648C83.5153 605.648 80.4808 607.165 78.5315 609.525C77.163 607.828 76.35 605.707 76.35 603.406C76.35 597.833 81.1181 593.316 87 593.316C92.8819 593.316 97.65 597.833 97.65 603.406ZM87 613.496C89.5444 613.496 91.8804 612.651 93.7122 611.24C92.2144 609.215 89.7322 607.891 86.9237 607.891C84.1501 607.891 81.6948 609.182 80.1913 611.165C82.0372 612.621 84.4108 613.496 87 613.496Z" fill="#818181"/>
<path d="M87 695.184C86.3464 695.184 85.8167 695.686 85.8167 696.305V700.789C85.8167 701.408 86.3464 701.91 87 701.91C87.6535 701.91 88.1833 701.408 88.1833 700.789V696.305C88.1833 695.686 87.6535 695.184 87 695.184Z" fill="#0F56B3"/>
<path fill-rule="evenodd" clip-rule="evenodd" d="M77.5334 699.547C77.5334 694.594 81.7717 690.578 87.0001 690.578C92.2284 690.578 96.4667 694.594 96.4667 699.547V708.516C96.4667 713.469 92.2284 717.484 87.0001 717.484C81.7717 717.484 77.5334 713.469 77.5334 708.516V699.547ZM94.1001 699.547V708.516C94.1001 712.231 90.9213 715.242 87.0001 715.242C83.0788 715.242 79.9001 712.231 79.9001 708.516V699.547C79.9001 695.832 83.0788 692.82 87.0001 692.82C90.9213 692.82 94.1001 695.832 94.1001 699.547Z" fill="#818181"/>
<path fill-rule="evenodd" clip-rule="evenodd" d="M81.0833 794.5C83.2888 794.5 85.142 795.929 85.6675 797.863H95.2833V800.105H85.6675C85.142 802.039 83.2888 803.469 81.0833 803.469C78.4692 803.469 76.35 801.461 76.35 798.984C76.35 796.508 78.4692 794.5 81.0833 794.5ZM81.0833 801.227C82.3904 801.227 83.45 800.223 83.45 798.984C83.45 797.746 82.3904 796.742 81.0833 796.742C79.7762 796.742 78.7166 797.746 78.7166 798.984C78.7166 800.223 79.7762 801.227 81.0833 801.227Z" fill="#818181"/>
<path fill-rule="evenodd" clip-rule="evenodd" d="M90.2 812.969C87.9945 812.969 86.1413 811.539 85.6158 809.605H76V807.363H85.6158C86.1413 805.429 87.9945 804 90.2 804C92.8141 804 94.9333 806.008 94.9333 808.484C94.9333 810.961 92.8141 812.969 90.2 812.969ZM90.2 810.727C91.5071 810.727 92.5667 809.723 92.5667 808.484C92.5667 807.246 91.5071 806.242 90.2 806.242C88.8929 806.242 87.8333 807.246 87.8333 808.484C87.8333 809.723 88.8929 810.727 90.2 810.727Z" fill="#818181"/>
<path d="M50.1002 264.168C49.4376 264.168 48.8402 264.065 48.3082 263.86C47.7762 263.645 47.3236 263.333 46.9502 262.922C46.5769 262.502 46.2876 261.984 46.0822 261.368C45.8769 260.743 45.7742 260.015 45.7742 259.184C45.7742 258.363 45.8769 257.635 46.0822 257C46.2876 256.356 46.5769 255.819 46.9502 255.39C47.3236 254.951 47.7762 254.62 48.3082 254.396C48.8402 254.172 49.4376 254.06 50.1002 254.06C51.0056 254.06 51.7522 254.247 52.3402 254.62C52.9282 254.984 53.3996 255.563 53.7542 256.356L51.9202 257.308C51.7896 256.897 51.5842 256.571 51.3042 256.328C51.0336 256.076 50.6322 255.95 50.1002 255.95C49.4749 255.95 48.9709 256.155 48.5882 256.566C48.2149 256.967 48.0282 257.555 48.0282 258.33V259.898C48.0282 260.673 48.2149 261.265 48.5882 261.676C48.9709 262.077 49.4749 262.278 50.1002 262.278C50.6229 262.278 51.0382 262.138 51.3462 261.858C51.6636 261.569 51.8969 261.223 52.0462 260.822L53.7822 261.83C53.4182 262.577 52.9376 263.155 52.3402 263.566C51.7522 263.967 51.0056 264.168 50.1002 264.168ZM62.682 264L61.982 261.676H58.72L58.02 264H55.864L59.084 254.228H61.716L64.894 264H62.682ZM60.372 256.16H60.302L59.224 259.87H61.464L60.372 256.16ZM67.746 264V254.228H69.874V262.11H73.598V264H67.746ZM76.6698 264V254.228H83.3198V256.118H78.7978V258.12H82.6758V259.996H78.7978V262.11H83.3198V264H76.6698ZM89.6557 259.38L88.7177 257.42H88.6757V264H86.6737V254.228H88.9977L91.6717 258.848L92.6097 260.808H92.6517V254.228H94.6537V264H92.3297L89.6557 259.38ZM98.3046 254.228H101.987C102.631 254.228 103.219 254.331 103.751 254.536C104.283 254.741 104.735 255.049 105.109 255.46C105.482 255.861 105.771 256.37 105.977 256.986C106.182 257.593 106.285 258.302 106.285 259.114C106.285 259.926 106.182 260.64 105.977 261.256C105.771 261.863 105.482 262.371 105.109 262.782C104.735 263.183 104.283 263.487 103.751 263.692C103.219 263.897 102.631 264 101.987 264H98.3046V254.228ZM101.987 262.11C102.621 262.11 103.121 261.933 103.485 261.578C103.849 261.223 104.031 260.654 104.031 259.87V258.358C104.031 257.574 103.849 257.005 103.485 256.65C103.121 256.295 102.621 256.118 101.987 256.118H100.433V262.11H101.987ZM109.566 264V254.228H116.216V256.118H111.694V258.12H115.572V259.996H111.694V262.11H116.216V264H109.566ZM121.698 264H119.57V254.228H124.204C124.652 254.228 125.058 254.303 125.422 254.452C125.786 254.601 126.094 254.816 126.346 255.096C126.608 255.367 126.808 255.693 126.948 256.076C127.088 256.459 127.158 256.883 127.158 257.35C127.158 258.013 127.009 258.591 126.71 259.086C126.421 259.581 125.978 259.94 125.38 260.164L127.298 264H124.932L123.224 260.416H121.698V264ZM123.938 258.624C124.256 258.624 124.503 258.545 124.68 258.386C124.867 258.218 124.96 257.975 124.96 257.658V257.042C124.96 256.725 124.867 256.487 124.68 256.328C124.503 256.16 124.256 256.076 123.938 256.076H121.698V258.624H123.938Z" fill="white"/>
<path d="M65.6356 436L63.4236 426.228H65.5236L66.4476 430.918L66.9656 433.634H67.0076L67.6236 430.918L68.7016 426.228H71.0256L72.1176 430.918L72.7196 433.634H72.7616L73.2796 430.918L74.2176 426.228H76.2336L73.9656 436H71.5436L70.3116 430.708L69.8356 428.566H69.7936L69.3036 430.708L68.0716 436H65.6356ZM82.8046 436.168C82.1606 436.168 81.5726 436.061 81.0406 435.846C80.5086 435.631 80.056 435.314 79.6826 434.894C79.3093 434.465 79.02 433.937 78.8146 433.312C78.6093 432.677 78.5066 431.945 78.5066 431.114C78.5066 430.283 78.6093 429.555 78.8146 428.93C79.02 428.295 79.3093 427.768 79.6826 427.348C80.056 426.919 80.5086 426.597 81.0406 426.382C81.5726 426.167 82.1606 426.06 82.8046 426.06C83.4486 426.06 84.0366 426.167 84.5686 426.382C85.1006 426.597 85.5533 426.919 85.9266 427.348C86.3 427.768 86.5893 428.295 86.7946 428.93C87 429.555 87.1026 430.283 87.1026 431.114C87.1026 431.945 87 432.677 86.7946 433.312C86.5893 433.937 86.3 434.465 85.9266 434.894C85.5533 435.314 85.1006 435.631 84.5686 435.846C84.0366 436.061 83.4486 436.168 82.8046 436.168ZM82.8046 434.278C83.4486 434.278 83.948 434.068 84.3026 433.648C84.6666 433.228 84.8486 432.626 84.8486 431.842V430.386C84.8486 429.602 84.6666 429 84.3026 428.58C83.948 428.16 83.4486 427.95 82.8046 427.95C82.1606 427.95 81.6566 428.16 81.2926 428.58C80.938 429 80.7606 429.602 80.7606 430.386V431.842C80.7606 432.626 80.938 433.228 81.2926 433.648C81.6566 434.068 82.1606 434.278 82.8046 434.278ZM92.5068 436H90.3788V426.228H95.0128C95.4608 426.228 95.8668 426.303 96.2308 426.452C96.5948 426.601 96.9028 426.816 97.1548 427.096C97.4161 427.367 97.6168 427.693 97.7568 428.076C97.8968 428.459 97.9668 428.883 97.9668 429.35C97.9668 430.013 97.8174 430.591 97.5188 431.086C97.2294 431.581 96.7861 431.94 96.1888 432.164L98.1068 436H95.7408L94.0328 432.416H92.5068V436ZM94.7468 430.624C95.0641 430.624 95.3114 430.545 95.4888 430.386C95.6754 430.218 95.7688 429.975 95.7688 429.658V429.042C95.7688 428.725 95.6754 428.487 95.4888 428.328C95.3114 428.16 95.0641 428.076 94.7468 428.076H92.5068V430.624H94.7468ZM104.714 431.744L103.44 433.284V436H101.312V426.228H103.44V430.876H103.524L104.91 428.986L107.108 426.228H109.516L106.226 430.246L109.81 436H107.304L104.714 431.744Z" fill="white"/>
<path d="M52.2684 532V522.228H58.7504V524.118H54.3964V526.12H58.1064V527.996H54.3964V532H52.2684ZM65.4541 532.168C64.8101 532.168 64.2221 532.061 63.6901 531.846C63.1581 531.631 62.7054 531.314 62.3321 530.894C61.9587 530.465 61.6694 529.937 61.4641 529.312C61.2587 528.677 61.1561 527.945 61.1561 527.114C61.1561 526.283 61.2587 525.555 61.4641 524.93C61.6694 524.295 61.9587 523.768 62.3321 523.348C62.7054 522.919 63.1581 522.597 63.6901 522.382C64.2221 522.167 64.8101 522.06 65.4541 522.06C66.0981 522.06 66.6861 522.167 67.2181 522.382C67.7501 522.597 68.2027 522.919 68.5761 523.348C68.9494 523.768 69.2387 524.295 69.4441 524.93C69.6494 525.555 69.7521 526.283 69.7521 527.114C69.7521 527.945 69.6494 528.677 69.4441 529.312C69.2387 529.937 68.9494 530.465 68.5761 530.894C68.2027 531.314 67.7501 531.631 67.2181 531.846C66.6861 532.061 66.0981 532.168 65.4541 532.168ZM65.4541 530.278C66.0981 530.278 66.5974 530.068 66.9521 529.648C67.3161 529.228 67.4981 528.626 67.4981 527.842V526.386C67.4981 525.602 67.3161 525 66.9521 524.58C66.5974 524.16 66.0981 523.95 65.4541 523.95C64.8101 523.95 64.3061 524.16 63.9421 524.58C63.5874 525 63.4101 525.602 63.4101 526.386V527.842C63.4101 528.626 63.5874 529.228 63.9421 529.648C64.3061 530.068 64.8101 530.278 65.4541 530.278ZM73.0282 532V522.228H75.1562V530.11H78.8802V532H73.0282ZM81.952 522.228H85.634C86.278 522.228 86.866 522.331 87.398 522.536C87.93 522.741 88.3827 523.049 88.756 523.46C89.1294 523.861 89.4187 524.37 89.624 524.986C89.8294 525.593 89.932 526.302 89.932 527.114C89.932 527.926 89.8294 528.64 89.624 529.256C89.4187 529.863 89.1294 530.371 88.756 530.782C88.3827 531.183 87.93 531.487 87.398 531.692C86.866 531.897 86.278 532 85.634 532H81.952V522.228ZM85.634 530.11C86.2687 530.11 86.768 529.933 87.132 529.578C87.496 529.223 87.678 528.654 87.678 527.87V526.358C87.678 525.574 87.496 525.005 87.132 524.65C86.768 524.295 86.2687 524.118 85.634 524.118H84.08V530.11H85.634ZM93.2137 532V522.228H99.8637V524.118H95.3417V526.12H99.2197V527.996H95.3417V530.11H99.8637V532H93.2137ZM105.346 532H103.218V522.228H107.852C108.3 522.228 108.706 522.303 109.07 522.452C109.434 522.601 109.742 522.816 109.994 523.096C110.255 523.367 110.456 523.693 110.596 524.076C110.736 524.459 110.806 524.883 110.806 525.35C110.806 526.013 110.656 526.591 110.358 527.086C110.068 527.581 109.625 527.94 109.028 528.164L110.946 532H108.58L106.872 528.416H105.346V532ZM107.586 526.624C107.903 526.624 108.15 526.545 108.328 526.386C108.514 526.218 108.608 525.975 108.608 525.658V525.042C108.608 524.725 108.514 524.487 108.328 524.328C108.15 524.16 107.903 524.076 107.586 524.076H105.346V526.624H107.586ZM117.315 532.168C116.457 532.168 115.729 532.023 115.131 531.734C114.534 531.435 114.025 531.053 113.605 530.586L115.005 529.172C115.668 529.919 116.485 530.292 117.455 530.292C117.978 530.292 118.365 530.185 118.617 529.97C118.869 529.755 118.995 529.471 118.995 529.116C118.995 528.845 118.921 528.621 118.771 528.444C118.622 528.257 118.319 528.131 117.861 528.066L116.895 527.94C115.859 527.809 115.099 527.497 114.613 527.002C114.137 526.507 113.899 525.849 113.899 525.028C113.899 524.589 113.983 524.188 114.151 523.824C114.319 523.46 114.557 523.147 114.865 522.886C115.183 522.625 115.565 522.424 116.013 522.284C116.471 522.135 116.989 522.06 117.567 522.06C118.305 522.06 118.953 522.177 119.513 522.41C120.073 522.643 120.554 522.984 120.955 523.432L119.541 524.86C119.308 524.589 119.023 524.37 118.687 524.202C118.361 524.025 117.945 523.936 117.441 523.936C116.965 523.936 116.611 524.02 116.377 524.188C116.144 524.356 116.027 524.589 116.027 524.888C116.027 525.224 116.116 525.467 116.293 525.616C116.48 525.765 116.779 525.873 117.189 525.938L118.155 526.092C119.163 526.251 119.91 526.563 120.395 527.03C120.881 527.487 121.123 528.141 121.123 528.99C121.123 529.457 121.039 529.886 120.871 530.278C120.703 530.67 120.456 531.006 120.129 531.286C119.812 531.566 119.415 531.785 118.939 531.944C118.463 532.093 117.922 532.168 117.315 532.168Z" fill="white"/>
<path d="M53.7587 639V629.228H58.3787C58.836 629.228 59.2467 629.307 59.6107 629.466C59.9747 629.615 60.2827 629.825 60.5347 630.096C60.796 630.367 60.9967 630.698 61.1367 631.09C61.2767 631.473 61.3467 631.893 61.3467 632.35C61.3467 632.817 61.2767 633.241 61.1367 633.624C60.9967 634.007 60.796 634.333 60.5347 634.604C60.2827 634.875 59.9747 635.089 59.6107 635.248C59.2467 635.397 58.836 635.472 58.3787 635.472H55.8867V639H53.7587ZM55.8867 633.624H58.1267C58.444 633.624 58.6913 633.545 58.8687 633.386C59.0553 633.218 59.1487 632.975 59.1487 632.658V632.042C59.1487 631.725 59.0553 631.487 58.8687 631.328C58.6913 631.16 58.444 631.076 58.1267 631.076H55.8867V633.624ZM66.5742 639H64.4462V629.228H69.0802C69.5282 629.228 69.9342 629.303 70.2982 629.452C70.6622 629.601 70.9702 629.816 71.2222 630.096C71.4835 630.367 71.6842 630.693 71.8242 631.076C71.9642 631.459 72.0342 631.883 72.0342 632.35C72.0342 633.013 71.8848 633.591 71.5862 634.086C71.2968 634.581 70.8535 634.94 70.2562 635.164L72.1742 639H69.8082L68.1002 635.416H66.5742V639ZM68.8142 633.624C69.1315 633.624 69.3788 633.545 69.5562 633.386C69.7428 633.218 69.8362 632.975 69.8362 632.658V632.042C69.8362 631.725 69.7428 631.487 69.5562 631.328C69.3788 631.16 69.1315 631.076 68.8142 631.076H66.5742V633.624H68.8142ZM79.163 639.168C78.519 639.168 77.931 639.061 77.399 638.846C76.867 638.631 76.4144 638.314 76.041 637.894C75.6677 637.465 75.3784 636.937 75.173 636.312C74.9677 635.677 74.865 634.945 74.865 634.114C74.865 633.283 74.9677 632.555 75.173 631.93C75.3784 631.295 75.6677 630.768 76.041 630.348C76.4144 629.919 76.867 629.597 77.399 629.382C77.931 629.167 78.519 629.06 79.163 629.06C79.807 629.06 80.395 629.167 80.927 629.382C81.459 629.597 81.9117 629.919 82.285 630.348C82.6584 630.768 82.9477 631.295 83.153 631.93C83.3584 632.555 83.461 633.283 83.461 634.114C83.461 634.945 83.3584 635.677 83.153 636.312C82.9477 636.937 82.6584 637.465 82.285 637.894C81.9117 638.314 81.459 638.631 80.927 638.846C80.395 639.061 79.807 639.168 79.163 639.168ZM79.163 637.278C79.807 637.278 80.3064 637.068 80.661 636.648C81.025 636.228 81.207 635.626 81.207 634.842V633.386C81.207 632.602 81.025 632 80.661 631.58C80.3064 631.16 79.807 630.95 79.163 630.95C78.519 630.95 78.015 631.16 77.651 631.58C77.2964 632 77.119 632.602 77.119 633.386V634.842C77.119 635.626 77.2964 636.228 77.651 636.648C78.015 637.068 78.519 637.278 79.163 637.278ZM86.7372 639V629.228H93.2192V631.118H88.8652V633.12H92.5752V634.996H88.8652V639H86.7372ZM96.0486 639V637.306H97.3086V630.922H96.0486V629.228H100.697V630.922H99.4366V637.306H100.697V639H96.0486ZM103.97 639V629.228H106.098V637.11H109.822V639H103.97ZM112.893 639V629.228H119.543V631.118H115.021V633.12H118.899V634.996H115.021V637.11H119.543V639H112.893Z" fill="white"/>
<path d="M57.0853 741L56.3853 738.676H53.1233L52.4233 741H50.2673L53.4873 731.228H56.1193L59.2973 741H57.0853ZM54.7753 733.16H54.7053L53.6273 736.87H55.8673L54.7753 733.16ZM62.1493 731.228H65.8313C66.4753 731.228 67.0633 731.331 67.5953 731.536C68.1273 731.741 68.58 732.049 68.9533 732.46C69.3266 732.861 69.616 733.37 69.8213 733.986C70.0266 734.593 70.1293 735.302 70.1293 736.114C70.1293 736.926 70.0266 737.64 69.8213 738.256C69.616 738.863 69.3266 739.371 68.9533 739.782C68.58 740.183 68.1273 740.487 67.5953 740.692C67.0633 740.897 66.4753 741 65.8313 741H62.1493V731.228ZM65.8313 739.11C66.466 739.11 66.9653 738.933 67.3293 738.578C67.6933 738.223 67.8753 737.654 67.8753 736.87V735.358C67.8753 734.574 67.6933 734.005 67.3293 733.65C66.9653 733.295 66.466 733.118 65.8313 733.118H64.2773V739.11H65.8313ZM73.411 731.228H77.093C77.737 731.228 78.325 731.331 78.857 731.536C79.389 731.741 79.8417 732.049 80.215 732.46C80.5883 732.861 80.8777 733.37 81.083 733.986C81.2883 734.593 81.391 735.302 81.391 736.114C81.391 736.926 81.2883 737.64 81.083 738.256C80.8777 738.863 80.5883 739.371 80.215 739.782C79.8417 740.183 79.389 740.487 78.857 740.692C78.325 740.897 77.737 741 77.093 741H73.411V731.228ZM77.093 739.11C77.7277 739.11 78.227 738.933 78.591 738.578C78.955 738.223 79.137 737.654 79.137 736.87V735.358C79.137 734.574 78.955 734.005 78.591 733.65C78.227 733.295 77.7277 733.118 77.093 733.118H75.539V739.11H77.093ZM84.5418 737.738V735.722H88.6998V737.738H84.5418ZM96.1494 741.168C95.5054 741.168 94.9174 741.061 94.3854 740.846C93.8534 740.631 93.4007 740.314 93.0274 739.894C92.654 739.465 92.3647 738.937 92.1594 738.312C91.954 737.677 91.8514 736.945 91.8514 736.114C91.8514 735.283 91.954 734.555 92.1594 733.93C92.3647 733.295 92.654 732.768 93.0274 732.348C93.4007 731.919 93.8534 731.597 94.3854 731.382C94.9174 731.167 95.5054 731.06 96.1494 731.06C96.7934 731.06 97.3814 731.167 97.9134 731.382C98.4454 731.597 98.898 731.919 99.2714 732.348C99.6447 732.768 99.934 733.295 100.139 733.93C100.345 734.555 100.447 735.283 100.447 736.114C100.447 736.945 100.345 737.677 100.139 738.312C99.934 738.937 99.6447 739.465 99.2714 739.894C98.898 740.314 98.4454 740.631 97.9134 740.846C97.3814 741.061 96.7934 741.168 96.1494 741.168ZM96.1494 739.278C96.7934 739.278 97.2927 739.068 97.6474 738.648C98.0114 738.228 98.1934 737.626 98.1934 736.842V735.386C98.1934 734.602 98.0114 734 97.6474 733.58C97.2927 733.16 96.7934 732.95 96.1494 732.95C95.5054 732.95 95.0014 733.16 94.6374 733.58C94.2827 734 94.1054 734.602 94.1054 735.386V736.842C94.1054 737.626 94.2827 738.228 94.6374 738.648C95.0014 739.068 95.5054 739.278 96.1494 739.278ZM106.706 736.38L105.768 734.42H105.726V741H103.724V731.228H106.048L108.722 735.848L109.66 737.808H109.702V731.228H111.704V741H109.38L106.706 736.38ZM118.518 741.168C117.66 741.168 116.932 741.023 116.334 740.734C115.737 740.435 115.228 740.053 114.808 739.586L116.208 738.172C116.871 738.919 117.688 739.292 118.658 739.292C119.181 739.292 119.568 739.185 119.82 738.97C120.072 738.755 120.198 738.471 120.198 738.116C120.198 737.845 120.124 737.621 119.974 737.444C119.825 737.257 119.522 737.131 119.064 737.066L118.098 736.94C117.062 736.809 116.302 736.497 115.816 736.002C115.34 735.507 115.102 734.849 115.102 734.028C115.102 733.589 115.186 733.188 115.354 732.824C115.522 732.46 115.76 732.147 116.068 731.886C116.386 731.625 116.768 731.424 117.216 731.284C117.674 731.135 118.192 731.06 118.77 731.06C119.508 731.06 120.156 731.177 120.716 731.41C121.276 731.643 121.757 731.984 122.158 732.432L120.744 733.86C120.511 733.589 120.226 733.37 119.89 733.202C119.564 733.025 119.148 732.936 118.644 732.936C118.168 732.936 117.814 733.02 117.58 733.188C117.347 733.356 117.23 733.589 117.23 733.888C117.23 734.224 117.319 734.467 117.496 734.616C117.683 734.765 117.982 734.873 118.392 734.938L119.358 735.092C120.366 735.251 121.113 735.563 121.598 736.03C122.084 736.487 122.326 737.141 122.326 737.99C122.326 738.457 122.242 738.886 122.074 739.278C121.906 739.67 121.659 740.006 121.332 740.286C121.015 740.566 120.618 740.785 120.142 740.944C119.666 741.093 119.125 741.168 118.518 741.168Z" fill="white"/>
<path d="M53.1346 835.168C52.2759 835.168 51.5479 835.023 50.9506 834.734C50.3532 834.435 49.8446 834.053 49.4246 833.586L50.8246 832.172C51.4872 832.919 52.3039 833.292 53.2746 833.292C53.7972 833.292 54.1846 833.185 54.4366 832.97C54.6886 832.755 54.8146 832.471 54.8146 832.116C54.8146 831.845 54.7399 831.621 54.5906 831.444C54.4412 831.257 54.1379 831.131 53.6806 831.066L52.7146 830.94C51.6786 830.809 50.9179 830.497 50.4326 830.002C49.9566 829.507 49.7186 828.849 49.7186 828.028C49.7186 827.589 49.8026 827.188 49.9706 826.824C50.1386 826.46 50.3766 826.147 50.6846 825.886C51.0019 825.625 51.3846 825.424 51.8326 825.284C52.2899 825.135 52.8079 825.06 53.3866 825.06C54.1239 825.06 54.7726 825.177 55.3326 825.41C55.8926 825.643 56.3732 825.984 56.7746 826.432L55.3606 827.86C55.1272 827.589 54.8426 827.37 54.5066 827.202C54.1799 827.025 53.7646 826.936 53.2606 826.936C52.7846 826.936 52.4299 827.02 52.1966 827.188C51.9632 827.356 51.8466 827.589 51.8466 827.888C51.8466 828.224 51.9352 828.467 52.1126 828.616C52.2992 828.765 52.5979 828.873 53.0086 828.938L53.9746 829.092C54.9826 829.251 55.7292 829.563 56.2146 830.03C56.6999 830.487 56.9426 831.141 56.9426 831.99C56.9426 832.457 56.8586 832.886 56.6906 833.278C56.5226 833.67 56.2752 834.006 55.9486 834.286C55.6312 834.566 55.2346 834.785 54.7586 834.944C54.2826 835.093 53.7412 835.168 53.1346 835.168ZM60.2069 835V825.228H66.8569V827.118H62.3349V829.12H66.2129V830.996H62.3349V833.11H66.8569V835H60.2069ZM74.2848 827.118V835H72.1568V827.118H69.5108V825.228H76.9308V827.118H74.2848ZM84.1657 827.118V835H82.0377V827.118H79.3917V825.228H86.8117V827.118H84.1657ZM89.3348 835V833.306H90.5948V826.922H89.3348V825.228H93.9828V826.922H92.7228V833.306H93.9828V835H89.3348ZM100.238 830.38L99.2997 828.42H99.2577V835H97.2557V825.228H99.5797L102.254 829.848L103.192 831.808H103.234V825.228H105.236V835H102.912L100.238 830.38ZM115.089 833.446H115.019C114.944 833.941 114.692 834.351 114.263 834.678C113.833 835.005 113.25 835.168 112.513 835.168C111.953 835.168 111.43 835.061 110.945 834.846C110.459 834.631 110.035 834.314 109.671 833.894C109.307 833.474 109.022 832.951 108.817 832.326C108.611 831.701 108.509 830.977 108.509 830.156C108.509 829.335 108.616 828.607 108.831 827.972C109.045 827.337 109.344 826.805 109.727 826.376C110.119 825.947 110.585 825.62 111.127 825.396C111.668 825.172 112.27 825.06 112.933 825.06C113.81 825.06 114.566 825.251 115.201 825.634C115.835 826.007 116.335 826.572 116.699 827.328L114.963 828.322C114.813 827.939 114.58 827.617 114.263 827.356C113.945 827.085 113.502 826.95 112.933 826.95C112.27 826.95 111.743 827.141 111.351 827.524C110.959 827.907 110.763 828.509 110.763 829.33V830.898C110.763 831.71 110.959 832.312 111.351 832.704C111.743 833.087 112.27 833.278 112.933 833.278C113.194 833.278 113.441 833.25 113.675 833.194C113.908 833.129 114.113 833.035 114.291 832.914C114.468 832.783 114.603 832.629 114.697 832.452C114.799 832.275 114.851 832.065 114.851 831.822V831.332H113.031V829.554H116.881V835H115.089V833.446ZM123.613 835.168C122.754 835.168 122.026 835.023 121.429 834.734C120.832 834.435 120.323 834.053 119.903 833.586L121.303 832.172C121.966 832.919 122.782 833.292 123.753 833.292C124.276 833.292 124.663 833.185 124.915 832.97C125.167 832.755 125.293 832.471 125.293 832.116C125.293 831.845 125.218 831.621 125.069 831.444C124.92 831.257 124.616 831.131 124.159 831.066L123.193 830.94C122.157 830.809 121.396 830.497 120.911 830.002C120.435 829.507 120.197 828.849 120.197 828.028C120.197 827.589 120.281 827.188 120.449 826.824C120.617 826.46 120.855 826.147 121.163 825.886C121.48 825.625 121.863 825.424 122.311 825.284C122.768 825.135 123.286 825.06 123.865 825.06C124.602 825.06 125.251 825.177 125.811 825.41C126.371 825.643 126.852 825.984 127.253 826.432L125.839 827.86C125.606 827.589 125.321 827.37 124.985 827.202C124.658 827.025 124.243 826.936 123.739 826.936C123.263 826.936 122.908 827.02 122.675 827.188C122.442 827.356 122.325 827.589 122.325 827.888C122.325 828.224 122.414 828.467 122.591 828.616C122.778 828.765 123.076 828.873 123.487 828.938L124.453 829.092C125.461 829.251 126.208 829.563 126.693 830.03C127.178 830.487 127.421 831.141 127.421 831.99C127.421 832.457 127.337 832.886 127.169 833.278C127.001 833.67 126.754 834.006 126.427 834.286C126.11 834.566 125.713 834.785 125.237 834.944C124.761 835.093 124.22 835.168 123.613 835.168Z" fill="white"/>
<g filter="url(#filter0_d)">
<rect x="433" y="31" width="990" height="862" rx="36" fill="white"/>
</g>
<g filter="url(#filter1_d)">
<rect x="433" y="909" width="990" height="85" rx="36" fill="#373E4E"/>
</g>
<path fill-rule="evenodd" clip-rule="evenodd" d="M1281.17 931C1279.19 931 1277.58 932.705 1277.58 934.81V936.714C1277.58 936.823 1277.59 936.93 1277.6 937.034C1275.5 937.815 1274 939.935 1274 942.429V965.286C1274 968.442 1276.41 971 1279.38 971H1311.62C1314.59 971 1317 968.442 1317 965.286V942.429C1317 939.272 1314.59 936.714 1311.62 936.714H1295.27C1294.48 933.429 1291.67 931 1288.33 931H1281.17ZM1291.44 936.714C1290.82 935.575 1289.66 934.81 1288.33 934.81H1281.17V936.714H1291.44ZM1279.38 940.524C1278.39 940.524 1277.58 941.377 1277.58 942.429V965.286C1277.58 966.337 1278.39 967.19 1279.38 967.19H1311.62C1312.61 967.19 1313.42 966.337 1313.42 965.286V942.429C1313.42 941.377 1312.61 940.524 1311.62 940.524H1279.38Z" fill="#818181"/>
<path d="M72.1302 150.996H68.4062V155H66.2782V145.228H68.4062V149.12H72.1302V145.228H74.2582V155H72.1302V150.996ZM81.8291 155.168C81.1851 155.168 80.5971 155.061 80.0651 154.846C79.5331 154.631 79.0804 154.314 78.7071 153.894C78.3337 153.465 78.0444 152.937 77.8391 152.312C77.6337 151.677 77.5311 150.945 77.5311 150.114C77.5311 149.283 77.6337 148.555 77.8391 147.93C78.0444 147.295 78.3337 146.768 78.7071 146.348C79.0804 145.919 79.5331 145.597 80.0651 145.382C80.5971 145.167 81.1851 145.06 81.8291 145.06C82.4731 145.06 83.0611 145.167 83.5931 145.382C84.1251 145.597 84.5777 145.919 84.9511 146.348C85.3244 146.768 85.6137 147.295 85.8191 147.93C86.0244 148.555 86.1271 149.283 86.1271 150.114C86.1271 150.945 86.0244 151.677 85.8191 152.312C85.6137 152.937 85.3244 153.465 84.9511 153.894C84.5777 154.314 84.1251 154.631 83.5931 154.846C83.0611 155.061 82.4731 155.168 81.8291 155.168ZM81.8291 153.278C82.4731 153.278 82.9724 153.068 83.3271 152.648C83.6911 152.228 83.8731 151.626 83.8731 150.842V149.386C83.8731 148.602 83.6911 148 83.3271 147.58C82.9724 147.16 82.4731 146.95 81.8291 146.95C81.1851 146.95 80.6811 147.16 80.3171 147.58C79.9624 148 79.7851 148.602 79.7851 149.386V150.842C79.7851 151.626 79.9624 152.228 80.3171 152.648C80.6811 153.068 81.1851 153.278 81.8291 153.278ZM96.7112 148.588H96.6692L95.9552 150.016L94.0512 153.474L92.1892 150.03L91.4472 148.49H91.4052V155H89.4032V145.228H91.6572L94.0512 149.806H94.0792L96.4452 145.228H98.7132V155H96.7112V148.588ZM102.374 155V145.228H109.024V147.118H104.502V149.12H108.38V150.996H104.502V153.11H109.024V155H102.374Z" fill="white"/>
<path d="M77.9916 308C75.1345 308 74.1401 310.503 74 311.755V323.255C74 325.696 76.6611 326.306 77.9916 326.306H86.395L83.874 331L91.2269 326.306H96.2689C98.2857 326.306 98.93 324.272 99 323.255V311.755C99 308.939 97.1793 308.078 96.2689 308H77.9916Z" stroke="#818181" stroke-width="2"/>
<path d="M71.2291 349.168C70.5665 349.168 69.9691 349.065 69.4371 348.86C68.9051 348.645 68.4525 348.333 68.0791 347.922C67.7058 347.502 67.4165 346.984 67.2111 346.368C67.0058 345.743 66.9031 345.015 66.9031 344.184C66.9031 343.363 67.0058 342.635 67.2111 342C67.4165 341.356 67.7058 340.819 68.0791 340.39C68.4525 339.951 68.9051 339.62 69.4371 339.396C69.9691 339.172 70.5665 339.06 71.2291 339.06C72.1345 339.06 72.8811 339.247 73.4691 339.62C74.0571 339.984 74.5285 340.563 74.8831 341.356L73.0491 342.308C72.9185 341.897 72.7131 341.571 72.4331 341.328C72.1625 341.076 71.7611 340.95 71.2291 340.95C70.6038 340.95 70.0998 341.155 69.7171 341.566C69.3438 341.967 69.1571 342.555 69.1571 343.33V344.898C69.1571 345.673 69.3438 346.265 69.7171 346.676C70.0998 347.077 70.6038 347.278 71.2291 347.278C71.7518 347.278 72.1671 347.138 72.4751 346.858C72.7925 346.569 73.0258 346.223 73.1751 345.822L74.9111 346.83C74.5471 347.577 74.0665 348.155 73.4691 348.566C72.8811 348.967 72.1345 349.168 71.2291 349.168ZM83.7523 344.996H80.0283V349H77.9003V339.228H80.0283V343.12H83.7523V339.228H85.8803V349H83.7523V344.996ZM95.5511 349L94.8511 346.676H91.5891L90.8891 349H88.7331L91.9531 339.228H94.5851L97.7631 349H95.5511ZM93.2411 341.16H93.1711L92.0931 344.87H94.3331L93.2411 341.16ZM103.773 341.118V349H101.645V341.118H98.9991V339.228H106.419V341.118H103.773Z" fill="white"/>
<g filter="url(#filter2_d)">
<rect x="178" y="31" width="242" height="963" rx="51" fill="#525B67"/>
</g>
<path d="M200 319V371" stroke="#E0E0E0" stroke-width="1.09009"/>
<path d="M200 371V423" stroke="#E0E0E0" stroke-width="1.09009"/>
<path d="M381.193 124H191.807C188.761 124 188 127.509 188 129.263V142.421C188 146.105 190.538 147.465 191.807 147.684C253.667 148.123 378.148 149 381.193 149C384.239 149 385 145.491 385 143.737V129.263C385 125.053 382.462 124 381.193 124Z" fill="#C4C4C4"/>
<path d="M200 130C196.8 130 196 132.667 196 134C196 135.333 196.8 138 200 138C203.2 138 204 135.333 204 134C204 132.667 203.2 130 200 130Z" stroke="#818181" stroke-width="1.5"/>
<path d="M203 137L208 143" stroke="#818181" stroke-width="1.5"/>
<path d="M1239.38 935H468.618C462.524 935 461 937.45 461 938.676V963.324C461 966.265 466.079 967 468.618 967H1239.38C1245.48 967 1247 964.55 1247 963.324V938.676C1247 935.735 1241.92 935 1239.38 935Z" fill="#C4C4C4"/>
<path d="M1353 951H1386" stroke="#818181" stroke-width="5"/>
<path d="M1370 968V935" stroke="#818181" stroke-width="5"/>
<path d="M513.301 90.1666V85.8333H487.24L493.073 78.8133L490.529 75.7366L480.351 88L490.529 100.263L493.073 97.1866L487.24 90.1666H513.301Z" fill="#373E4E"/>
<path d="M478.598 75V101H475V75H478.598Z" fill="#373E4E"/>
<path d="M270.135 94.168C269.473 94.168 268.875 94.0653 268.343 93.86C267.811 93.6453 267.359 93.3327 266.985 92.922C266.612 92.502 266.323 91.984 266.117 91.368C265.912 90.7427 265.809 90.0147 265.809 89.184C265.809 88.3627 265.912 87.6347 266.117 87C266.323 86.356 266.612 85.8193 266.985 85.39C267.359 84.9513 267.811 84.62 268.343 84.396C268.875 84.172 269.473 84.06 270.135 84.06C271.041 84.06 271.787 84.2467 272.375 84.62C272.963 84.984 273.435 85.5627 273.789 86.356L271.955 87.308C271.825 86.8973 271.619 86.5707 271.339 86.328C271.069 86.076 270.667 85.95 270.135 85.95C269.51 85.95 269.006 86.1553 268.623 86.566C268.25 86.9673 268.063 87.5553 268.063 88.33V89.898C268.063 90.6727 268.25 91.2653 268.623 91.676C269.006 92.0773 269.51 92.278 270.135 92.278C270.658 92.278 271.073 92.138 271.381 91.858C271.699 91.5687 271.932 91.2233 272.081 90.822L273.817 91.83C273.453 92.5767 272.973 93.1553 272.375 93.566C271.787 93.9673 271.041 94.168 270.135 94.168ZM280.549 94.168C279.905 94.168 279.317 94.0607 278.785 93.846C278.253 93.6313 277.8 93.314 277.427 92.894C277.053 92.4647 276.764 91.9373 276.559 91.312C276.353 90.6773 276.251 89.9447 276.251 89.114C276.251 88.2833 276.353 87.5553 276.559 86.93C276.764 86.2953 277.053 85.768 277.427 85.348C277.8 84.9187 278.253 84.5967 278.785 84.382C279.317 84.1673 279.905 84.06 280.549 84.06C281.193 84.06 281.781 84.1673 282.313 84.382C282.845 84.5967 283.297 84.9187 283.671 85.348C284.044 85.768 284.333 86.2953 284.539 86.93C284.744 87.5553 284.847 88.2833 284.847 89.114C284.847 89.9447 284.744 90.6773 284.539 91.312C284.333 91.9373 284.044 92.4647 283.671 92.894C283.297 93.314 282.845 93.6313 282.313 93.846C281.781 94.0607 281.193 94.168 280.549 94.168ZM280.549 92.278C281.193 92.278 281.692 92.068 282.047 91.648C282.411 91.228 282.593 90.626 282.593 89.842V88.386C282.593 87.602 282.411 87 282.047 86.58C281.692 86.16 281.193 85.95 280.549 85.95C279.905 85.95 279.401 86.16 279.037 86.58C278.682 87 278.505 87.602 278.505 88.386V89.842C278.505 90.626 278.682 91.228 279.037 91.648C279.401 92.068 279.905 92.278 280.549 92.278ZM291.105 89.38L290.167 87.42H290.125V94H288.123V84.228H290.447L293.121 88.848L294.059 90.808H294.101V84.228H296.103V94H293.779L291.105 89.38ZM303.828 86.118V94H301.7V86.118H299.054V84.228H306.474V86.118H303.828ZM314.534 94L313.834 91.676H310.572L309.872 94H307.716L310.936 84.228H313.568L316.746 94H314.534ZM312.224 86.16H312.154L311.076 89.87H313.316L312.224 86.16ZM323.122 94.168C322.459 94.168 321.862 94.0653 321.33 93.86C320.798 93.6453 320.345 93.3327 319.972 92.922C319.598 92.502 319.309 91.984 319.104 91.368C318.898 90.7427 318.796 90.0147 318.796 89.184C318.796 88.3627 318.898 87.6347 319.104 87C319.309 86.356 319.598 85.8193 319.972 85.39C320.345 84.9513 320.798 84.62 321.33 84.396C321.862 84.172 322.459 84.06 323.122 84.06C324.027 84.06 324.774 84.2467 325.362 84.62C325.95 84.984 326.421 85.5627 326.776 86.356L324.942 87.308C324.811 86.8973 324.606 86.5707 324.326 86.328C324.055 86.076 323.654 85.95 323.122 85.95C322.496 85.95 321.992 86.1553 321.61 86.566C321.236 86.9673 321.05 87.5553 321.05 88.33V89.898C321.05 90.6727 321.236 91.2653 321.61 91.676C321.992 92.0773 322.496 92.278 323.122 92.278C323.644 92.278 324.06 92.138 324.368 91.858C324.685 91.5687 324.918 91.2233 325.068 90.822L326.804 91.83C326.44 92.5767 325.959 93.1553 325.362 93.566C324.774 93.9673 324.027 94.168 323.122 94.168ZM333.867 86.118V94H331.739V86.118H329.093V84.228H336.513V86.118H333.867Z" fill="white"/>
<path d="M219 252.263V233.316C219 228.579 222.014 227.132 223.521 227H243.247C247.849 227 249 230.684 249 232.526V252.263C249 256.053 245.712 257 244.068 257H223.521C219.904 257 219 253.842 219 252.263Z" stroke="#818181" stroke-width="2.5"/>
<path d="M1328 722.105V690.526C1328 682.632 1333.02 680.219 1335.53 680H1368.41C1376.08 680 1378 686.14 1378 689.211V722.105C1378 728.421 1372.52 730 1369.78 730H1335.53C1329.51 730 1328 724.737 1328 722.105Z" fill="#C4C4C4" stroke="#818181" stroke-width="2.5"/>
<path d="M1328 529.105V497.526C1328 489.632 1333.02 487.219 1335.53 487H1368.41C1376.08 487 1378 493.14 1378 496.211V529.105C1378 535.421 1372.52 537 1369.78 537H1335.53C1329.51 537 1328 531.737 1328 529.105Z" fill="#C4C4C4" stroke="#818181" stroke-width="2.5"/>
<path d="M475 394.105V362.526C475 354.632 480.023 352.219 482.534 352H515.411C523.082 352 525 358.14 525 361.211V394.105C525 400.421 519.521 402 516.781 402H482.534C476.507 402 475 396.737 475 394.105Z" fill="#C4C4C4" stroke="#818181" stroke-width="2.5"/>
<path d="M475 180.105V148.526C475 140.632 480.023 138.219 482.534 138H515.411C523.082 138 525 144.14 525 147.211V180.105C525 186.421 519.521 188 516.781 188H482.534C476.507 188 475 182.737 475 180.105Z" fill="#C4C4C4" stroke="#818181" stroke-width="2.5"/>
<path d="M388.704 195L390 193.499L383.5 186L377 193.499L378.296 195L383.5 189L388.704 195Z" fill="white"/>
<path d="M219 303.263V284.316C219 279.579 222.014 278.132 223.521 278H243.247C247.849 278 249 281.684 249 283.526V303.263C249 307.053 245.712 308 244.068 308H223.521C219.904 308 219 304.842 219 303.263Z" stroke="#818181" stroke-width="2.5"/>
<path d="M219 407.263V388.316C219 383.579 222.014 382.132 223.521 382H243.247C247.849 382 249 385.684 249 387.526V407.263C249 411.053 245.712 412 244.068 412H223.521C219.904 412 219 408.842 219 407.263Z" stroke="#818181" stroke-width="2.5"/>
<path d="M218 510.263V491.316C218 486.579 221.014 485.132 222.521 485H242.247C246.849 485 248 488.684 248 490.526V510.263C248 514.053 244.712 515 243.068 515H222.521C218.904 515 218 511.842 218 510.263Z" stroke="#818181" stroke-width="2.5"/>
<path d="M218 562.263V543.316C218 538.579 221.014 537.132 222.521 537H242.247C246.849 537 248 540.684 248 542.526V562.263C248 566.053 244.712 567 243.068 567H222.521C218.904 567 218 563.842 218 562.263Z" stroke="#818181" stroke-width="2.5"/>
<path d="M218 614.263V595.316C218 590.579 221.014 589.132 222.521 589H242.247C246.849 589 248 592.684 248 594.526V614.263C248 618.053 244.712 619 243.068 619H222.521C218.904 619 218 615.842 218 614.263Z" stroke="#818181" stroke-width="2.5"/>
<path d="M218 355.263V336.316C218 331.579 221.014 330.132 222.521 330H242.247C246.849 330 248 333.684 248 335.526V355.263C248 359.053 244.712 360 243.068 360H222.521C218.904 360 218 356.842 218 355.263Z" stroke="#818181" stroke-width="2.5"/>
<path d="M218 770.263V751.316C218 746.579 221.014 745.132 222.521 745H242.247C246.849 745 248 748.684 248 750.526V770.263C248 774.053 244.712 775 243.068 775H222.521C218.904 775 218 771.842 218 770.263Z" stroke="#818181" stroke-width="2.5"/>
<path d="M218 666.263V647.316C218 642.579 221.014 641.132 222.521 641H242.247C246.849 641 248 644.684 248 646.526V666.263C248 670.053 244.712 671 243.068 671H222.521C218.904 671 218 667.842 218 666.263Z" stroke="#818181" stroke-width="2.5"/>
<path d="M218 718.263V699.316C218 694.579 221.014 693.132 222.521 693H242.247C246.849 693 248 696.684 248 698.526V718.263C248 722.053 244.712 723 243.068 723H222.521C218.904 723 218 719.842 218 718.263Z" stroke="#818181" stroke-width="2.5"/>
<path opacity="0.5" d="M178 164H399.35C405.787 164 411 169.709 411 176.75V202.25C411 209.291 405.787 215 399.35 215H178V164Z" fill="#C5DCFA" fill-opacity="0.54"/>
<path d="M213.28 193.446H213.21C213.135 193.941 212.883 194.351 212.454 194.678C212.025 195.005 211.441 195.168 210.704 195.168C210.144 195.168 209.621 195.061 209.136 194.846C208.651 194.631 208.226 194.314 207.862 193.894C207.498 193.474 207.213 192.951 207.008 192.326C206.803 191.701 206.7 190.977 206.7 190.156C206.7 189.335 206.807 188.607 207.022 187.972C207.237 187.337 207.535 186.805 207.918 186.376C208.31 185.947 208.777 185.62 209.318 185.396C209.859 185.172 210.461 185.06 211.124 185.06C212.001 185.06 212.757 185.251 213.392 185.634C214.027 186.007 214.526 186.572 214.89 187.328L213.154 188.322C213.005 187.939 212.771 187.617 212.454 187.356C212.137 187.085 211.693 186.95 211.124 186.95C210.461 186.95 209.934 187.141 209.542 187.524C209.15 187.907 208.954 188.509 208.954 189.33V190.898C208.954 191.71 209.15 192.312 209.542 192.704C209.934 193.087 210.461 193.278 211.124 193.278C211.385 193.278 211.633 193.25 211.866 193.194C212.099 193.129 212.305 193.035 212.482 192.914C212.659 192.783 212.795 192.629 212.888 192.452C212.991 192.275 213.042 192.065 213.042 191.822V191.332H211.222V189.554H215.072V195H213.28V193.446ZM220.769 195H218.641V185.228H223.275C223.723 185.228 224.129 185.303 224.493 185.452C224.857 185.601 225.165 185.816 225.417 186.096C225.678 186.367 225.879 186.693 226.019 187.076C226.159 187.459 226.229 187.883 226.229 188.35C226.229 189.013 226.079 189.591 225.781 190.086C225.491 190.581 225.048 190.94 224.451 191.164L226.369 195H224.003L222.295 191.416H220.769V195ZM223.009 189.624C223.326 189.624 223.573 189.545 223.751 189.386C223.937 189.218 224.031 188.975 224.031 188.658V188.042C224.031 187.725 223.937 187.487 223.751 187.328C223.573 187.16 223.326 187.076 223.009 187.076H220.769V189.624H223.009ZM233.357 195.168C232.713 195.168 232.125 195.061 231.593 194.846C231.061 194.631 230.609 194.314 230.235 193.894C229.862 193.465 229.573 192.937 229.367 192.312C229.162 191.677 229.059 190.945 229.059 190.114C229.059 189.283 229.162 188.555 229.367 187.93C229.573 187.295 229.862 186.768 230.235 186.348C230.609 185.919 231.061 185.597 231.593 185.382C232.125 185.167 232.713 185.06 233.357 185.06C234.001 185.06 234.589 185.167 235.121 185.382C235.653 185.597 236.106 185.919 236.479 186.348C236.853 186.768 237.142 187.295 237.347 187.93C237.553 188.555 237.655 189.283 237.655 190.114C237.655 190.945 237.553 191.677 237.347 192.312C237.142 192.937 236.853 193.465 236.479 193.894C236.106 194.314 235.653 194.631 235.121 194.846C234.589 195.061 234.001 195.168 233.357 195.168ZM233.357 193.278C234.001 193.278 234.501 193.068 234.855 192.648C235.219 192.228 235.401 191.626 235.401 190.842V189.386C235.401 188.602 235.219 188 234.855 187.58C234.501 187.16 234.001 186.95 233.357 186.95C232.713 186.95 232.209 187.16 231.845 187.58C231.491 188 231.313 188.602 231.313 189.386V190.842C231.313 191.626 231.491 192.228 231.845 192.648C232.209 193.068 232.713 193.278 233.357 193.278ZM242.948 185.228V191.22C242.948 191.911 243.083 192.429 243.354 192.774C243.624 193.11 244.077 193.278 244.712 193.278C245.346 193.278 245.799 193.11 246.07 192.774C246.34 192.429 246.476 191.911 246.476 191.22V185.228H248.548V190.996C248.548 191.715 248.478 192.34 248.338 192.872C248.207 193.395 247.988 193.829 247.68 194.174C247.372 194.51 246.975 194.762 246.49 194.93C246.004 195.089 245.412 195.168 244.712 195.168C244.012 195.168 243.419 195.089 242.934 194.93C242.448 194.762 242.052 194.51 241.744 194.174C241.436 193.829 241.212 193.395 241.072 192.872C240.941 192.34 240.876 191.715 240.876 190.996V185.228H242.948ZM252.152 195V185.228H256.772C257.23 185.228 257.64 185.307 258.004 185.466C258.368 185.615 258.676 185.825 258.928 186.096C259.19 186.367 259.39 186.698 259.53 187.09C259.67 187.473 259.74 187.893 259.74 188.35C259.74 188.817 259.67 189.241 259.53 189.624C259.39 190.007 259.19 190.333 258.928 190.604C258.676 190.875 258.368 191.089 258.004 191.248C257.64 191.397 257.23 191.472 256.772 191.472H254.28V195H252.152ZM254.28 189.624H256.52C256.838 189.624 257.085 189.545 257.262 189.386C257.449 189.218 257.542 188.975 257.542 188.658V188.042C257.542 187.725 257.449 187.487 257.262 187.328C257.085 187.16 256.838 187.076 256.52 187.076H254.28V189.624Z" fill="white"/>
<path d="M206.7 453V451.306H207.96V444.922H206.7V443.228H211.348V444.922H210.088V451.306H211.348V453H206.7ZM217.603 448.38L216.665 446.42H216.623V453H214.621V443.228H216.945L219.619 447.848L220.557 449.808H220.599V443.228H222.601V453H220.277L217.603 448.38ZM226.252 443.228H229.934C230.578 443.228 231.166 443.331 231.698 443.536C232.23 443.741 232.682 444.049 233.056 444.46C233.429 444.861 233.718 445.37 233.924 445.986C234.129 446.593 234.232 447.302 234.232 448.114C234.232 448.926 234.129 449.64 233.924 450.256C233.718 450.863 233.429 451.371 233.056 451.782C232.682 452.183 232.23 452.487 231.698 452.692C231.166 452.897 230.578 453 229.934 453H226.252V443.228ZM229.934 451.11C230.568 451.11 231.068 450.933 231.432 450.578C231.796 450.223 231.978 449.654 231.978 448.87V447.358C231.978 446.574 231.796 446.005 231.432 445.65C231.068 445.295 230.568 445.118 229.934 445.118H228.38V451.11H229.934ZM237.136 453V451.306H238.396V444.922H237.136V443.228H241.784V444.922H240.524V451.306H241.784V453H237.136ZM247.325 453L244.175 443.228H246.331L247.787 447.918L248.557 450.984H248.599L249.341 447.918L250.797 443.228H252.883L249.705 453H247.325ZM255.284 453V451.306H256.544V444.922H255.284V443.228H259.932V444.922H258.672V451.306H259.932V453H255.284ZM263.205 443.228H266.887C267.531 443.228 268.119 443.331 268.651 443.536C269.183 443.741 269.636 444.049 270.009 444.46C270.382 444.861 270.672 445.37 270.877 445.986C271.082 446.593 271.185 447.302 271.185 448.114C271.185 448.926 271.082 449.64 270.877 450.256C270.672 450.863 270.382 451.371 270.009 451.782C269.636 452.183 269.183 452.487 268.651 452.692C268.119 452.897 267.531 453 266.887 453H263.205V443.228ZM266.887 451.11C267.522 451.11 268.021 450.933 268.385 450.578C268.749 450.223 268.931 449.654 268.931 448.87V447.358C268.931 446.574 268.749 446.005 268.385 445.65C268.021 445.295 267.522 445.118 266.887 445.118H265.333V451.11H266.887ZM276.483 443.228V449.22C276.483 449.911 276.618 450.429 276.889 450.774C277.159 451.11 277.612 451.278 278.247 451.278C278.881 451.278 279.334 451.11 279.605 450.774C279.875 450.429 280.011 449.911 280.011 449.22V443.228H282.083V448.996C282.083 449.715 282.013 450.34 281.873 450.872C281.742 451.395 281.523 451.829 281.215 452.174C280.907 452.51 280.51 452.762 280.025 452.93C279.539 453.089 278.947 453.168 278.247 453.168C277.547 453.168 276.954 453.089 276.469 452.93C275.983 452.762 275.587 452.51 275.279 452.174C274.971 451.829 274.747 451.395 274.607 450.872C274.476 450.34 274.411 449.715 274.411 448.996V443.228H276.483ZM291.352 453L290.652 450.676H287.39L286.69 453H284.534L287.754 443.228H290.386L293.564 453H291.352ZM289.042 445.16H288.972L287.894 448.87H290.134L289.042 445.16ZM296.416 453V443.228H298.544V451.11H302.268V453H296.416ZM308.504 453.168C307.645 453.168 306.917 453.023 306.32 452.734C305.722 452.435 305.214 452.053 304.794 451.586L306.194 450.172C306.856 450.919 307.673 451.292 308.644 451.292C309.166 451.292 309.554 451.185 309.806 450.97C310.058 450.755 310.184 450.471 310.184 450.116C310.184 449.845 310.109 449.621 309.96 449.444C309.81 449.257 309.507 449.131 309.05 449.066L308.084 448.94C307.048 448.809 306.287 448.497 305.802 448.002C305.326 447.507 305.088 446.849 305.088 446.028C305.088 445.589 305.172 445.188 305.34 444.824C305.508 444.46 305.746 444.147 306.054 443.886C306.371 443.625 306.754 443.424 307.202 443.284C307.659 443.135 308.177 443.06 308.756 443.06C309.493 443.06 310.142 443.177 310.702 443.41C311.262 443.643 311.742 443.984 312.144 444.432L310.73 445.86C310.496 445.589 310.212 445.37 309.876 445.202C309.549 445.025 309.134 444.936 308.63 444.936C308.154 444.936 307.799 445.02 307.566 445.188C307.332 445.356 307.216 445.589 307.216 445.888C307.216 446.224 307.304 446.467 307.482 446.616C307.668 446.765 307.967 446.873 308.378 446.938L309.344 447.092C310.352 447.251 311.098 447.563 311.584 448.03C312.069 448.487 312.312 449.141 312.312 449.99C312.312 450.457 312.228 450.886 312.06 451.278C311.892 451.67 311.644 452.006 311.318 452.286C311 452.566 310.604 452.785 310.128 452.944C309.652 453.093 309.11 453.168 308.504 453.168Z" fill="white"/>
<path d="M200 474V526" stroke="#E0E0E0" stroke-width="1.09009"/>
<path d="M200 578V630" stroke="#E0E0E0" stroke-width="1.09009"/>
<path d="M200 734V786" stroke="#E0E0E0" stroke-width="1.09009"/>
<path d="M200 630V682" stroke="#E0E0E0" stroke-width="1.09009"/>
<path d="M200 682V734" stroke="#E0E0E0" stroke-width="1.09009"/>
<path d="M200 526V578" stroke="#E0E0E0" stroke-width="1.09009"/>
<path d="M200 215V267" stroke="#E0E0E0" stroke-width="1.09009"/>
<path d="M269.298 245.446H269.228C269.153 245.941 268.901 246.351 268.472 246.678C268.042 247.005 267.459 247.168 266.722 247.168C266.162 247.168 265.639 247.061 265.154 246.846C264.668 246.631 264.244 246.314 263.88 245.894C263.516 245.474 263.231 244.951 263.026 244.326C262.82 243.701 262.718 242.977 262.718 242.156C262.718 241.335 262.825 240.607 263.04 239.972C263.254 239.337 263.553 238.805 263.936 238.376C264.328 237.947 264.794 237.62 265.336 237.396C265.877 237.172 266.479 237.06 267.142 237.06C268.019 237.06 268.775 237.251 269.41 237.634C270.044 238.007 270.544 238.572 270.908 239.328L269.172 240.322C269.022 239.939 268.789 239.617 268.472 239.356C268.154 239.085 267.711 238.95 267.142 238.95C266.479 238.95 265.952 239.141 265.56 239.524C265.168 239.907 264.972 240.509 264.972 241.33V242.898C264.972 243.71 265.168 244.312 265.56 244.704C265.952 245.087 266.479 245.278 267.142 245.278C267.403 245.278 267.65 245.25 267.884 245.194C268.117 245.129 268.322 245.035 268.5 244.914C268.677 244.783 268.812 244.629 268.906 244.452C269.008 244.275 269.06 244.065 269.06 243.822V243.332H267.24V241.554H271.09V247H269.298V245.446ZM276.786 247H274.658V237.228H279.292C279.74 237.228 280.146 237.303 280.51 237.452C280.874 237.601 281.182 237.816 281.434 238.096C281.695 238.367 281.896 238.693 282.036 239.076C282.176 239.459 282.246 239.883 282.246 240.35C282.246 241.013 282.097 241.591 281.798 242.086C281.509 242.581 281.065 242.94 280.468 243.164L282.386 247H280.02L278.312 243.416H276.786V247ZM279.026 241.624C279.343 241.624 279.591 241.545 279.768 241.386C279.955 241.218 280.048 240.975 280.048 240.658V240.042C280.048 239.725 279.955 239.487 279.768 239.328C279.591 239.16 279.343 239.076 279.026 239.076H276.786V241.624H279.026ZM289.375 247.168C288.731 247.168 288.143 247.061 287.611 246.846C287.079 246.631 286.626 246.314 286.253 245.894C285.88 245.465 285.59 244.937 285.385 244.312C285.18 243.677 285.077 242.945 285.077 242.114C285.077 241.283 285.18 240.555 285.385 239.93C285.59 239.295 285.88 238.768 286.253 238.348C286.626 237.919 287.079 237.597 287.611 237.382C288.143 237.167 288.731 237.06 289.375 237.06C290.019 237.06 290.607 237.167 291.139 237.382C291.671 237.597 292.124 237.919 292.497 238.348C292.87 238.768 293.16 239.295 293.365 239.93C293.57 240.555 293.673 241.283 293.673 242.114C293.673 242.945 293.57 243.677 293.365 244.312C293.16 244.937 292.87 245.465 292.497 245.894C292.124 246.314 291.671 246.631 291.139 246.846C290.607 247.061 290.019 247.168 289.375 247.168ZM289.375 245.278C290.019 245.278 290.518 245.068 290.873 244.648C291.237 244.228 291.419 243.626 291.419 242.842V241.386C291.419 240.602 291.237 240 290.873 239.58C290.518 239.16 290.019 238.95 289.375 238.95C288.731 238.95 288.227 239.16 287.863 239.58C287.508 240 287.331 240.602 287.331 241.386V242.842C287.331 243.626 287.508 244.228 287.863 244.648C288.227 245.068 288.731 245.278 289.375 245.278ZM298.965 237.228V243.22C298.965 243.911 299.1 244.429 299.371 244.774C299.642 245.11 300.094 245.278 300.729 245.278C301.364 245.278 301.816 245.11 302.087 244.774C302.358 244.429 302.493 243.911 302.493 243.22V237.228H304.565V242.996C304.565 243.715 304.495 244.34 304.355 244.872C304.224 245.395 304.005 245.829 303.697 246.174C303.389 246.51 302.992 246.762 302.507 246.93C302.022 247.089 301.429 247.168 300.729 247.168C300.029 247.168 299.436 247.089 298.951 246.93C298.466 246.762 298.069 246.51 297.761 246.174C297.453 245.829 297.229 245.395 297.089 244.872C296.958 244.34 296.893 243.715 296.893 242.996V237.228H298.965ZM308.17 247V237.228H312.79C313.247 237.228 313.658 237.307 314.022 237.466C314.386 237.615 314.694 237.825 314.946 238.096C315.207 238.367 315.408 238.698 315.548 239.09C315.688 239.473 315.758 239.893 315.758 240.35C315.758 240.817 315.688 241.241 315.548 241.624C315.408 242.007 315.207 242.333 314.946 242.604C314.694 242.875 314.386 243.089 314.022 243.248C313.658 243.397 313.247 243.472 312.79 243.472H310.298V247H308.17ZM310.298 241.624H312.538C312.855 241.624 313.102 241.545 313.28 241.386C313.466 241.218 313.56 240.975 313.56 240.658V240.042C313.56 239.725 313.466 239.487 313.28 239.328C313.102 239.16 312.855 239.076 312.538 239.076H310.298V241.624ZM323.904 247V245.306H326.536V238.754H326.41L324.422 241.358L323.078 240.308L325.416 237.228H328.636V245.306H330.708V247H323.904Z" fill="white"/>
<path d="M268.548 296.446H268.478C268.403 296.941 268.151 297.351 267.722 297.678C267.292 298.005 266.709 298.168 265.972 298.168C265.412 298.168 264.889 298.061 264.404 297.846C263.918 297.631 263.494 297.314 263.13 296.894C262.766 296.474 262.481 295.951 262.276 295.326C262.07 294.701 261.968 293.977 261.968 293.156C261.968 292.335 262.075 291.607 262.29 290.972C262.504 290.337 262.803 289.805 263.186 289.376C263.578 288.947 264.044 288.62 264.586 288.396C265.127 288.172 265.729 288.06 266.392 288.06C267.269 288.06 268.025 288.251 268.66 288.634C269.294 289.007 269.794 289.572 270.158 290.328L268.422 291.322C268.272 290.939 268.039 290.617 267.722 290.356C267.404 290.085 266.961 289.95 266.392 289.95C265.729 289.95 265.202 290.141 264.81 290.524C264.418 290.907 264.222 291.509 264.222 292.33V293.898C264.222 294.71 264.418 295.312 264.81 295.704C265.202 296.087 265.729 296.278 266.392 296.278C266.653 296.278 266.9 296.25 267.134 296.194C267.367 296.129 267.572 296.035 267.75 295.914C267.927 295.783 268.062 295.629 268.156 295.452C268.258 295.275 268.31 295.065 268.31 294.822V294.332H266.49V292.554H270.34V298H268.548V296.446ZM276.036 298H273.908V288.228H278.542C278.99 288.228 279.396 288.303 279.76 288.452C280.124 288.601 280.432 288.816 280.684 289.096C280.945 289.367 281.146 289.693 281.286 290.076C281.426 290.459 281.496 290.883 281.496 291.35C281.496 292.013 281.347 292.591 281.048 293.086C280.759 293.581 280.315 293.94 279.718 294.164L281.636 298H279.27L277.562 294.416H276.036V298ZM278.276 292.624C278.593 292.624 278.841 292.545 279.018 292.386C279.205 292.218 279.298 291.975 279.298 291.658V291.042C279.298 290.725 279.205 290.487 279.018 290.328C278.841 290.16 278.593 290.076 278.276 290.076H276.036V292.624H278.276ZM288.625 298.168C287.981 298.168 287.393 298.061 286.861 297.846C286.329 297.631 285.876 297.314 285.503 296.894C285.13 296.465 284.84 295.937 284.635 295.312C284.43 294.677 284.327 293.945 284.327 293.114C284.327 292.283 284.43 291.555 284.635 290.93C284.84 290.295 285.13 289.768 285.503 289.348C285.876 288.919 286.329 288.597 286.861 288.382C287.393 288.167 287.981 288.06 288.625 288.06C289.269 288.06 289.857 288.167 290.389 288.382C290.921 288.597 291.374 288.919 291.747 289.348C292.12 289.768 292.41 290.295 292.615 290.93C292.82 291.555 292.923 292.283 292.923 293.114C292.923 293.945 292.82 294.677 292.615 295.312C292.41 295.937 292.12 296.465 291.747 296.894C291.374 297.314 290.921 297.631 290.389 297.846C289.857 298.061 289.269 298.168 288.625 298.168ZM288.625 296.278C289.269 296.278 289.768 296.068 290.123 295.648C290.487 295.228 290.669 294.626 290.669 293.842V292.386C290.669 291.602 290.487 291 290.123 290.58C289.768 290.16 289.269 289.95 288.625 289.95C287.981 289.95 287.477 290.16 287.113 290.58C286.758 291 286.581 291.602 286.581 292.386V293.842C286.581 294.626 286.758 295.228 287.113 295.648C287.477 296.068 287.981 296.278 288.625 296.278ZM298.215 288.228V294.22C298.215 294.911 298.35 295.429 298.621 295.774C298.892 296.11 299.344 296.278 299.979 296.278C300.614 296.278 301.066 296.11 301.337 295.774C301.608 295.429 301.743 294.911 301.743 294.22V288.228H303.815V293.996C303.815 294.715 303.745 295.34 303.605 295.872C303.474 296.395 303.255 296.829 302.947 297.174C302.639 297.51 302.242 297.762 301.757 297.93C301.272 298.089 300.679 298.168 299.979 298.168C299.279 298.168 298.686 298.089 298.201 297.93C297.716 297.762 297.319 297.51 297.011 297.174C296.703 296.829 296.479 296.395 296.339 295.872C296.208 295.34 296.143 294.715 296.143 293.996V288.228H298.215ZM307.42 298V288.228H312.04C312.497 288.228 312.908 288.307 313.272 288.466C313.636 288.615 313.944 288.825 314.196 289.096C314.457 289.367 314.658 289.698 314.798 290.09C314.938 290.473 315.008 290.893 315.008 291.35C315.008 291.817 314.938 292.241 314.798 292.624C314.658 293.007 314.457 293.333 314.196 293.604C313.944 293.875 313.636 294.089 313.272 294.248C312.908 294.397 312.497 294.472 312.04 294.472H309.548V298H307.42ZM309.548 292.624H311.788C312.105 292.624 312.352 292.545 312.53 292.386C312.716 292.218 312.81 291.975 312.81 291.658V291.042C312.81 290.725 312.716 290.487 312.53 290.328C312.352 290.16 312.105 290.076 311.788 290.076H309.548V292.624ZM329.552 298H322.636V296.082L325.646 293.506C325.917 293.273 326.145 293.063 326.332 292.876C326.519 292.68 326.668 292.493 326.78 292.316C326.901 292.129 326.985 291.947 327.032 291.77C327.088 291.593 327.116 291.401 327.116 291.196V291C327.116 290.813 327.079 290.65 327.004 290.51C326.929 290.37 326.831 290.253 326.71 290.16C326.589 290.067 326.449 289.997 326.29 289.95C326.141 289.903 325.987 289.88 325.828 289.88C325.595 289.88 325.389 289.917 325.212 289.992C325.044 290.067 324.895 290.169 324.764 290.3C324.643 290.421 324.54 290.566 324.456 290.734C324.372 290.893 324.307 291.065 324.26 291.252L322.426 290.552C322.538 290.216 322.692 289.899 322.888 289.6C323.084 289.292 323.327 289.026 323.616 288.802C323.915 288.569 324.265 288.387 324.666 288.256C325.067 288.125 325.52 288.06 326.024 288.06C326.556 288.06 327.027 288.135 327.438 288.284C327.849 288.433 328.194 288.639 328.474 288.9C328.763 289.161 328.983 289.474 329.132 289.838C329.281 290.193 329.356 290.58 329.356 291C329.356 291.42 329.286 291.803 329.146 292.148C329.006 292.493 328.815 292.82 328.572 293.128C328.339 293.427 328.063 293.711 327.746 293.982C327.429 294.253 327.097 294.528 326.752 294.808L324.932 296.236H329.552V298Z" fill="white"/>
<path d="M544.561 93.002H544.471C544.375 93.638 544.051 94.166 543.499 94.586C542.947 95.006 542.197 95.216 541.249 95.216C540.529 95.216 539.857 95.078 539.233 94.802C538.609 94.526 538.063 94.118 537.595 93.578C537.127 93.038 536.761 92.366 536.497 91.562C536.233 90.758 536.101 89.828 536.101 88.772C536.101 87.716 536.239 86.78 536.515 85.964C536.791 85.148 537.175 84.464 537.667 83.912C538.171 83.36 538.771 82.94 539.467 82.652C540.163 82.364 540.937 82.22 541.789 82.22C542.917 82.22 543.889 82.466 544.705 82.958C545.521 83.438 546.163 84.164 546.631 85.136L544.399 86.414C544.207 85.922 543.907 85.508 543.499 85.172C543.091 84.824 542.521 84.65 541.789 84.65C540.937 84.65 540.259 84.896 539.755 85.388C539.251 85.88 538.999 86.654 538.999 87.71V89.726C538.999 90.77 539.251 91.544 539.755 92.048C540.259 92.54 540.937 92.786 541.789 92.786C542.125 92.786 542.443 92.75 542.743 92.678C543.043 92.594 543.307 92.474 543.535 92.318C543.763 92.15 543.937 91.952 544.057 91.724C544.189 91.496 544.255 91.226 544.255 90.914V90.284H541.915V87.998H546.865V95H544.561V93.002ZM553.761 95H551.025V82.436H556.983C557.559 82.436 558.081 82.532 558.549 82.724C559.017 82.916 559.413 83.192 559.737 83.552C560.073 83.9 560.331 84.32 560.511 84.812C560.691 85.304 560.781 85.85 560.781 86.45C560.781 87.302 560.589 88.046 560.205 88.682C559.833 89.318 559.263 89.78 558.495 90.068L560.961 95H557.919L555.723 90.392H553.761V95ZM556.641 88.088C557.049 88.088 557.367 87.986 557.595 87.782C557.835 87.566 557.955 87.254 557.955 86.846V86.054C557.955 85.646 557.835 85.34 557.595 85.136C557.367 84.92 557.049 84.812 556.641 84.812H553.761V88.088H556.641ZM569.518 95.216C568.69 95.216 567.934 95.078 567.25 94.802C566.566 94.526 565.984 94.118 565.504 93.578C565.024 93.026 564.652 92.348 564.388 91.544C564.124 90.728 563.992 89.786 563.992 88.718C563.992 87.65 564.124 86.714 564.388 85.91C564.652 85.094 565.024 84.416 565.504 83.876C565.984 83.324 566.566 82.91 567.25 82.634C567.934 82.358 568.69 82.22 569.518 82.22C570.346 82.22 571.102 82.358 571.786 82.634C572.47 82.91 573.052 83.324 573.532 83.876C574.012 84.416 574.384 85.094 574.648 85.91C574.912 86.714 575.044 87.65 575.044 88.718C575.044 89.786 574.912 90.728 574.648 91.544C574.384 92.348 574.012 93.026 573.532 93.578C573.052 94.118 572.47 94.526 571.786 94.802C571.102 95.078 570.346 95.216 569.518 95.216ZM569.518 92.786C570.346 92.786 570.988 92.516 571.444 91.976C571.912 91.436 572.146 90.662 572.146 89.654V87.782C572.146 86.774 571.912 86 571.444 85.46C570.988 84.92 570.346 84.65 569.518 84.65C568.69 84.65 568.042 84.92 567.574 85.46C567.118 86 566.89 86.774 566.89 87.782V89.654C566.89 90.662 567.118 91.436 567.574 91.976C568.042 92.516 568.69 92.786 569.518 92.786ZM581.419 82.436V90.14C581.419 91.028 581.593 91.694 581.941 92.138C582.289 92.57 582.871 92.786 583.687 92.786C584.503 92.786 585.085 92.57 585.433 92.138C585.781 91.694 585.955 91.028 585.955 90.14V82.436H588.619V89.852C588.619 90.776 588.529 91.58 588.349 92.264C588.181 92.936 587.899 93.494 587.503 93.938C587.107 94.37 586.597 94.694 585.973 94.91C585.349 95.114 584.587 95.216 583.687 95.216C582.787 95.216 582.025 95.114 581.401 94.91C580.777 94.694 580.267 94.37 579.871 93.938C579.475 93.494 579.187 92.936 579.007 92.264C578.839 91.58 578.755 90.776 578.755 89.852V82.436H581.419ZM592.825 95V82.436H598.765C599.353 82.436 599.881 82.538 600.349 82.742C600.817 82.934 601.213 83.204 601.537 83.552C601.873 83.9 602.131 84.326 602.311 84.83C602.491 85.322 602.581 85.862 602.581 86.45C602.581 87.05 602.491 87.596 602.311 88.088C602.131 88.58 601.873 89 601.537 89.348C601.213 89.696 600.817 89.972 600.349 90.176C599.881 90.368 599.353 90.464 598.765 90.464H595.561V95H592.825ZM595.561 88.088H598.441C598.849 88.088 599.167 87.986 599.395 87.782C599.635 87.566 599.755 87.254 599.755 86.846V86.054C599.755 85.646 599.635 85.34 599.395 85.136C599.167 84.92 598.849 84.812 598.441 84.812H595.561V88.088ZM620.424 95H611.532V92.534L615.402 89.222C615.75 88.922 616.044 88.652 616.284 88.412C616.524 88.16 616.716 87.92 616.86 87.692C617.016 87.452 617.124 87.218 617.184 86.99C617.256 86.762 617.292 86.516 617.292 86.252V86C617.292 85.76 617.244 85.55 617.148 85.37C617.052 85.19 616.926 85.04 616.77 84.92C616.614 84.8 616.434 84.71 616.23 84.65C616.038 84.59 615.84 84.56 615.636 84.56C615.336 84.56 615.072 84.608 614.844 84.704C614.628 84.8 614.436 84.932 614.268 85.1C614.112 85.256 613.98 85.442 613.872 85.658C613.764 85.862 613.68 86.084 613.62 86.324L611.262 85.424C611.406 84.992 611.604 84.584 611.856 84.2C612.108 83.804 612.42 83.462 612.792 83.174C613.176 82.874 613.626 82.64 614.142 82.472C614.658 82.304 615.24 82.22 615.888 82.22C616.572 82.22 617.178 82.316 617.706 82.508C618.234 82.7 618.678 82.964 619.038 83.3C619.41 83.636 619.692 84.038 619.884 84.506C620.076 84.962 620.172 85.46 620.172 86C620.172 86.54 620.082 87.032 619.902 87.476C619.722 87.92 619.476 88.34 619.164 88.736C618.864 89.12 618.51 89.486 618.102 89.834C617.694 90.182 617.268 90.536 616.824 90.896L614.484 92.732H620.424V95Z" fill="#373E4E"/>
<path d="M269.298 348.446H269.228C269.153 348.941 268.901 349.351 268.472 349.678C268.042 350.005 267.459 350.168 266.722 350.168C266.162 350.168 265.639 350.061 265.154 349.846C264.668 349.631 264.244 349.314 263.88 348.894C263.516 348.474 263.231 347.951 263.026 347.326C262.82 346.701 262.718 345.977 262.718 345.156C262.718 344.335 262.825 343.607 263.04 342.972C263.254 342.337 263.553 341.805 263.936 341.376C264.328 340.947 264.794 340.62 265.336 340.396C265.877 340.172 266.479 340.06 267.142 340.06C268.019 340.06 268.775 340.251 269.41 340.634C270.044 341.007 270.544 341.572 270.908 342.328L269.172 343.322C269.022 342.939 268.789 342.617 268.472 342.356C268.154 342.085 267.711 341.95 267.142 341.95C266.479 341.95 265.952 342.141 265.56 342.524C265.168 342.907 264.972 343.509 264.972 344.33V345.898C264.972 346.71 265.168 347.312 265.56 347.704C265.952 348.087 266.479 348.278 267.142 348.278C267.403 348.278 267.65 348.25 267.884 348.194C268.117 348.129 268.322 348.035 268.5 347.914C268.677 347.783 268.812 347.629 268.906 347.452C269.008 347.275 269.06 347.065 269.06 346.822V346.332H267.24V344.554H271.09V350H269.298V348.446ZM276.786 350H274.658V340.228H279.292C279.74 340.228 280.146 340.303 280.51 340.452C280.874 340.601 281.182 340.816 281.434 341.096C281.695 341.367 281.896 341.693 282.036 342.076C282.176 342.459 282.246 342.883 282.246 343.35C282.246 344.013 282.097 344.591 281.798 345.086C281.509 345.581 281.065 345.94 280.468 346.164L282.386 350H280.02L278.312 346.416H276.786V350ZM279.026 344.624C279.343 344.624 279.591 344.545 279.768 344.386C279.955 344.218 280.048 343.975 280.048 343.658V343.042C280.048 342.725 279.955 342.487 279.768 342.328C279.591 342.16 279.343 342.076 279.026 342.076H276.786V344.624H279.026ZM289.375 350.168C288.731 350.168 288.143 350.061 287.611 349.846C287.079 349.631 286.626 349.314 286.253 348.894C285.88 348.465 285.59 347.937 285.385 347.312C285.18 346.677 285.077 345.945 285.077 345.114C285.077 344.283 285.18 343.555 285.385 342.93C285.59 342.295 285.88 341.768 286.253 341.348C286.626 340.919 287.079 340.597 287.611 340.382C288.143 340.167 288.731 340.06 289.375 340.06C290.019 340.06 290.607 340.167 291.139 340.382C291.671 340.597 292.124 340.919 292.497 341.348C292.87 341.768 293.16 342.295 293.365 342.93C293.57 343.555 293.673 344.283 293.673 345.114C293.673 345.945 293.57 346.677 293.365 347.312C293.16 347.937 292.87 348.465 292.497 348.894C292.124 349.314 291.671 349.631 291.139 349.846C290.607 350.061 290.019 350.168 289.375 350.168ZM289.375 348.278C290.019 348.278 290.518 348.068 290.873 347.648C291.237 347.228 291.419 346.626 291.419 345.842V344.386C291.419 343.602 291.237 343 290.873 342.58C290.518 342.16 290.019 341.95 289.375 341.95C288.731 341.95 288.227 342.16 287.863 342.58C287.508 343 287.331 343.602 287.331 344.386V345.842C287.331 346.626 287.508 347.228 287.863 347.648C288.227 348.068 288.731 348.278 289.375 348.278ZM298.965 340.228V346.22C298.965 346.911 299.1 347.429 299.371 347.774C299.642 348.11 300.094 348.278 300.729 348.278C301.364 348.278 301.816 348.11 302.087 347.774C302.358 347.429 302.493 346.911 302.493 346.22V340.228H304.565V345.996C304.565 346.715 304.495 347.34 304.355 347.872C304.224 348.395 304.005 348.829 303.697 349.174C303.389 349.51 302.992 349.762 302.507 349.93C302.022 350.089 301.429 350.168 300.729 350.168C300.029 350.168 299.436 350.089 298.951 349.93C298.466 349.762 298.069 349.51 297.761 349.174C297.453 348.829 297.229 348.395 297.089 347.872C296.958 347.34 296.893 346.715 296.893 345.996V340.228H298.965ZM308.17 350V340.228H312.79C313.247 340.228 313.658 340.307 314.022 340.466C314.386 340.615 314.694 340.825 314.946 341.096C315.207 341.367 315.408 341.698 315.548 342.09C315.688 342.473 315.758 342.893 315.758 343.35C315.758 343.817 315.688 344.241 315.548 344.624C315.408 345.007 315.207 345.333 314.946 345.604C314.694 345.875 314.386 346.089 314.022 346.248C313.658 346.397 313.247 346.472 312.79 346.472H310.298V350H308.17ZM310.298 344.624H312.538C312.855 344.624 313.102 344.545 313.28 344.386C313.466 344.218 313.56 343.975 313.56 343.658V343.042C313.56 342.725 313.466 342.487 313.28 342.328C313.102 342.16 312.855 342.076 312.538 342.076H310.298V344.624ZM326.256 344.092C326.779 344.092 327.157 343.994 327.39 343.798C327.633 343.593 327.754 343.341 327.754 343.042V342.944C327.754 342.589 327.637 342.305 327.404 342.09C327.18 341.875 326.858 341.768 326.438 341.768C326.046 341.768 325.677 341.871 325.332 342.076C324.987 342.272 324.693 342.557 324.45 342.93L323.134 341.698C323.321 341.455 323.521 341.236 323.736 341.04C323.951 340.835 324.193 340.662 324.464 340.522C324.735 340.373 325.038 340.261 325.374 340.186C325.71 340.102 326.088 340.06 326.508 340.06C327.031 340.06 327.502 340.121 327.922 340.242C328.351 340.363 328.715 340.541 329.014 340.774C329.322 340.998 329.555 341.269 329.714 341.586C329.882 341.903 329.966 342.258 329.966 342.65C329.966 342.958 329.915 343.238 329.812 343.49C329.719 343.742 329.583 343.961 329.406 344.148C329.238 344.335 329.042 344.489 328.818 344.61C328.594 344.722 328.356 344.801 328.104 344.848V344.932C328.393 344.988 328.659 345.081 328.902 345.212C329.154 345.333 329.369 345.492 329.546 345.688C329.733 345.884 329.877 346.117 329.98 346.388C330.083 346.649 330.134 346.948 330.134 347.284C330.134 347.723 330.045 348.119 329.868 348.474C329.691 348.829 329.439 349.132 329.112 349.384C328.785 349.636 328.393 349.832 327.936 349.972C327.479 350.103 326.975 350.168 326.424 350.168C325.929 350.168 325.491 350.117 325.108 350.014C324.725 349.911 324.389 349.776 324.1 349.608C323.82 349.431 323.573 349.23 323.358 349.006C323.153 348.782 322.971 348.544 322.812 348.292L324.366 347.088C324.581 347.489 324.842 347.821 325.15 348.082C325.467 348.334 325.892 348.46 326.424 348.46C326.9 348.46 327.269 348.343 327.53 348.11C327.801 347.867 327.936 347.541 327.936 347.13V347.046C327.936 346.645 327.782 346.346 327.474 346.15C327.175 345.945 326.76 345.842 326.228 345.842H325.346V344.092H326.256Z" fill="white"/>
<path d="M269.298 400.446H269.228C269.153 400.941 268.901 401.351 268.472 401.678C268.042 402.005 267.459 402.168 266.722 402.168C266.162 402.168 265.639 402.061 265.154 401.846C264.668 401.631 264.244 401.314 263.88 400.894C263.516 400.474 263.231 399.951 263.026 399.326C262.82 398.701 262.718 397.977 262.718 397.156C262.718 396.335 262.825 395.607 263.04 394.972C263.254 394.337 263.553 393.805 263.936 393.376C264.328 392.947 264.794 392.62 265.336 392.396C265.877 392.172 266.479 392.06 267.142 392.06C268.019 392.06 268.775 392.251 269.41 392.634C270.044 393.007 270.544 393.572 270.908 394.328L269.172 395.322C269.022 394.939 268.789 394.617 268.472 394.356C268.154 394.085 267.711 393.95 267.142 393.95C266.479 393.95 265.952 394.141 265.56 394.524C265.168 394.907 264.972 395.509 264.972 396.33V397.898C264.972 398.71 265.168 399.312 265.56 399.704C265.952 400.087 266.479 400.278 267.142 400.278C267.403 400.278 267.65 400.25 267.884 400.194C268.117 400.129 268.322 400.035 268.5 399.914C268.677 399.783 268.812 399.629 268.906 399.452C269.008 399.275 269.06 399.065 269.06 398.822V398.332H267.24V396.554H271.09V402H269.298V400.446ZM276.786 402H274.658V392.228H279.292C279.74 392.228 280.146 392.303 280.51 392.452C280.874 392.601 281.182 392.816 281.434 393.096C281.695 393.367 281.896 393.693 282.036 394.076C282.176 394.459 282.246 394.883 282.246 395.35C282.246 396.013 282.097 396.591 281.798 397.086C281.509 397.581 281.065 397.94 280.468 398.164L282.386 402H280.02L278.312 398.416H276.786V402ZM279.026 396.624C279.343 396.624 279.591 396.545 279.768 396.386C279.955 396.218 280.048 395.975 280.048 395.658V395.042C280.048 394.725 279.955 394.487 279.768 394.328C279.591 394.16 279.343 394.076 279.026 394.076H276.786V396.624H279.026ZM289.375 402.168C288.731 402.168 288.143 402.061 287.611 401.846C287.079 401.631 286.626 401.314 286.253 400.894C285.88 400.465 285.59 399.937 285.385 399.312C285.18 398.677 285.077 397.945 285.077 397.114C285.077 396.283 285.18 395.555 285.385 394.93C285.59 394.295 285.88 393.768 286.253 393.348C286.626 392.919 287.079 392.597 287.611 392.382C288.143 392.167 288.731 392.06 289.375 392.06C290.019 392.06 290.607 392.167 291.139 392.382C291.671 392.597 292.124 392.919 292.497 393.348C292.87 393.768 293.16 394.295 293.365 394.93C293.57 395.555 293.673 396.283 293.673 397.114C293.673 397.945 293.57 398.677 293.365 399.312C293.16 399.937 292.87 400.465 292.497 400.894C292.124 401.314 291.671 401.631 291.139 401.846C290.607 402.061 290.019 402.168 289.375 402.168ZM289.375 400.278C290.019 400.278 290.518 400.068 290.873 399.648C291.237 399.228 291.419 398.626 291.419 397.842V396.386C291.419 395.602 291.237 395 290.873 394.58C290.518 394.16 290.019 393.95 289.375 393.95C288.731 393.95 288.227 394.16 287.863 394.58C287.508 395 287.331 395.602 287.331 396.386V397.842C287.331 398.626 287.508 399.228 287.863 399.648C288.227 400.068 288.731 400.278 289.375 400.278ZM298.965 392.228V398.22C298.965 398.911 299.1 399.429 299.371 399.774C299.642 400.11 300.094 400.278 300.729 400.278C301.364 400.278 301.816 400.11 302.087 399.774C302.358 399.429 302.493 398.911 302.493 398.22V392.228H304.565V397.996C304.565 398.715 304.495 399.34 304.355 399.872C304.224 400.395 304.005 400.829 303.697 401.174C303.389 401.51 302.992 401.762 302.507 401.93C302.022 402.089 301.429 402.168 300.729 402.168C300.029 402.168 299.436 402.089 298.951 401.93C298.466 401.762 298.069 401.51 297.761 401.174C297.453 400.829 297.229 400.395 297.089 399.872C296.958 399.34 296.893 398.715 296.893 397.996V392.228H298.965ZM308.17 402V392.228H312.79C313.247 392.228 313.658 392.307 314.022 392.466C314.386 392.615 314.694 392.825 314.946 393.096C315.207 393.367 315.408 393.698 315.548 394.09C315.688 394.473 315.758 394.893 315.758 395.35C315.758 395.817 315.688 396.241 315.548 396.624C315.408 397.007 315.207 397.333 314.946 397.604C314.694 397.875 314.386 398.089 314.022 398.248C313.658 398.397 313.247 398.472 312.79 398.472H310.298V402H308.17ZM310.298 396.624H312.538C312.855 396.624 313.102 396.545 313.28 396.386C313.466 396.218 313.56 395.975 313.56 395.658V395.042C313.56 394.725 313.466 394.487 313.28 394.328C313.102 394.16 312.855 394.076 312.538 394.076H310.298V396.624ZM327.306 402V400.124H323.008V398.332L326.816 392.228H329.308V398.5H330.54V400.124H329.308V402H327.306ZM324.688 398.5H327.306V394.398H327.166L324.688 398.5Z" fill="white"/>
<path d="M265.545 495.228V501.22C265.545 501.911 265.681 502.429 265.951 502.774C266.222 503.11 266.675 503.278 267.309 503.278C267.944 503.278 268.397 503.11 268.667 502.774C268.938 502.429 269.073 501.911 269.073 501.22V495.228H271.145V500.996C271.145 501.715 271.075 502.34 270.935 502.872C270.805 503.395 270.585 503.829 270.277 504.174C269.969 504.51 269.573 504.762 269.087 504.93C268.602 505.089 268.009 505.168 267.309 505.168C266.609 505.168 266.017 505.089 265.531 504.93C265.046 504.762 264.649 504.51 264.341 504.174C264.033 503.829 263.809 503.395 263.669 502.872C263.539 502.34 263.473 501.715 263.473 500.996V495.228H265.545ZM277.914 505.168C277.055 505.168 276.327 505.023 275.73 504.734C275.133 504.435 274.624 504.053 274.204 503.586L275.604 502.172C276.267 502.919 277.083 503.292 278.054 503.292C278.577 503.292 278.964 503.185 279.216 502.97C279.468 502.755 279.594 502.471 279.594 502.116C279.594 501.845 279.519 501.621 279.37 501.444C279.221 501.257 278.917 501.131 278.46 501.066L277.494 500.94C276.458 500.809 275.697 500.497 275.212 500.002C274.736 499.507 274.498 498.849 274.498 498.028C274.498 497.589 274.582 497.188 274.75 496.824C274.918 496.46 275.156 496.147 275.464 495.886C275.781 495.625 276.164 495.424 276.612 495.284C277.069 495.135 277.587 495.06 278.166 495.06C278.903 495.06 279.552 495.177 280.112 495.41C280.672 495.643 281.153 495.984 281.554 496.432L280.14 497.86C279.907 497.589 279.622 497.37 279.286 497.202C278.959 497.025 278.544 496.936 278.04 496.936C277.564 496.936 277.209 497.02 276.976 497.188C276.743 497.356 276.626 497.589 276.626 497.888C276.626 498.224 276.715 498.467 276.892 498.616C277.079 498.765 277.377 498.873 277.788 498.938L278.754 499.092C279.762 499.251 280.509 499.563 280.994 500.03C281.479 500.487 281.722 501.141 281.722 501.99C281.722 502.457 281.638 502.886 281.47 503.278C281.302 503.67 281.055 504.006 280.728 504.286C280.411 504.566 280.014 504.785 279.538 504.944C279.062 505.093 278.521 505.168 277.914 505.168ZM284.986 505V495.228H291.636V497.118H287.114V499.12H290.992V500.996H287.114V503.11H291.636V505H284.986ZM297.118 505H294.99V495.228H299.624C300.072 495.228 300.478 495.303 300.842 495.452C301.206 495.601 301.514 495.816 301.766 496.096C302.027 496.367 302.228 496.693 302.368 497.076C302.508 497.459 302.578 497.883 302.578 498.35C302.578 499.013 302.429 499.591 302.13 500.086C301.841 500.581 301.397 500.94 300.8 501.164L302.718 505H300.352L298.644 501.416H297.118V505ZM299.358 499.624C299.675 499.624 299.923 499.545 300.1 499.386C300.287 499.218 300.38 498.975 300.38 498.658V498.042C300.38 497.725 300.287 497.487 300.1 497.328C299.923 497.16 299.675 497.076 299.358 497.076H297.118V499.624H299.358ZM310.97 505V503.306H313.602V496.754H313.476L311.488 499.358L310.144 498.308L312.482 495.228H315.702V503.306H317.774V505H310.97Z" fill="white"/>
<path d="M265.545 547.228V553.22C265.545 553.911 265.681 554.429 265.951 554.774C266.222 555.11 266.675 555.278 267.309 555.278C267.944 555.278 268.397 555.11 268.667 554.774C268.938 554.429 269.073 553.911 269.073 553.22V547.228H271.145V552.996C271.145 553.715 271.075 554.34 270.935 554.872C270.805 555.395 270.585 555.829 270.277 556.174C269.969 556.51 269.573 556.762 269.087 556.93C268.602 557.089 268.009 557.168 267.309 557.168C266.609 557.168 266.017 557.089 265.531 556.93C265.046 556.762 264.649 556.51 264.341 556.174C264.033 555.829 263.809 555.395 263.669 554.872C263.539 554.34 263.473 553.715 263.473 552.996V547.228H265.545ZM277.914 557.168C277.055 557.168 276.327 557.023 275.73 556.734C275.133 556.435 274.624 556.053 274.204 555.586L275.604 554.172C276.267 554.919 277.083 555.292 278.054 555.292C278.577 555.292 278.964 555.185 279.216 554.97C279.468 554.755 279.594 554.471 279.594 554.116C279.594 553.845 279.519 553.621 279.37 553.444C279.221 553.257 278.917 553.131 278.46 553.066L277.494 552.94C276.458 552.809 275.697 552.497 275.212 552.002C274.736 551.507 274.498 550.849 274.498 550.028C274.498 549.589 274.582 549.188 274.75 548.824C274.918 548.46 275.156 548.147 275.464 547.886C275.781 547.625 276.164 547.424 276.612 547.284C277.069 547.135 277.587 547.06 278.166 547.06C278.903 547.06 279.552 547.177 280.112 547.41C280.672 547.643 281.153 547.984 281.554 548.432L280.14 549.86C279.907 549.589 279.622 549.37 279.286 549.202C278.959 549.025 278.544 548.936 278.04 548.936C277.564 548.936 277.209 549.02 276.976 549.188C276.743 549.356 276.626 549.589 276.626 549.888C276.626 550.224 276.715 550.467 276.892 550.616C277.079 550.765 277.377 550.873 277.788 550.938L278.754 551.092C279.762 551.251 280.509 551.563 280.994 552.03C281.479 552.487 281.722 553.141 281.722 553.99C281.722 554.457 281.638 554.886 281.47 555.278C281.302 555.67 281.055 556.006 280.728 556.286C280.411 556.566 280.014 556.785 279.538 556.944C279.062 557.093 278.521 557.168 277.914 557.168ZM284.986 557V547.228H291.636V549.118H287.114V551.12H290.992V552.996H287.114V555.11H291.636V557H284.986ZM297.118 557H294.99V547.228H299.624C300.072 547.228 300.478 547.303 300.842 547.452C301.206 547.601 301.514 547.816 301.766 548.096C302.027 548.367 302.228 548.693 302.368 549.076C302.508 549.459 302.578 549.883 302.578 550.35C302.578 551.013 302.429 551.591 302.13 552.086C301.841 552.581 301.397 552.94 300.8 553.164L302.718 557H300.352L298.644 553.416H297.118V557ZM299.358 551.624C299.675 551.624 299.923 551.545 300.1 551.386C300.287 551.218 300.38 550.975 300.38 550.658V550.042C300.38 549.725 300.287 549.487 300.1 549.328C299.923 549.16 299.675 549.076 299.358 549.076H297.118V551.624H299.358ZM317.368 557H310.452V555.082L313.462 552.506C313.733 552.273 313.962 552.063 314.148 551.876C314.335 551.68 314.484 551.493 314.596 551.316C314.718 551.129 314.802 550.947 314.848 550.77C314.904 550.593 314.932 550.401 314.932 550.196V550C314.932 549.813 314.895 549.65 314.82 549.51C314.746 549.37 314.648 549.253 314.526 549.16C314.405 549.067 314.265 548.997 314.106 548.95C313.957 548.903 313.803 548.88 313.644 548.88C313.411 548.88 313.206 548.917 313.028 548.992C312.86 549.067 312.711 549.169 312.58 549.3C312.459 549.421 312.356 549.566 312.272 549.734C312.188 549.893 312.123 550.065 312.076 550.252L310.242 549.552C310.354 549.216 310.508 548.899 310.704 548.6C310.9 548.292 311.143 548.026 311.432 547.802C311.731 547.569 312.081 547.387 312.482 547.256C312.884 547.125 313.336 547.06 313.84 547.06C314.372 547.06 314.844 547.135 315.254 547.284C315.665 547.433 316.01 547.639 316.29 547.9C316.58 548.161 316.799 548.474 316.948 548.838C317.098 549.193 317.172 549.58 317.172 550C317.172 550.42 317.102 550.803 316.962 551.148C316.822 551.493 316.631 551.82 316.388 552.128C316.155 552.427 315.88 552.711 315.562 552.982C315.245 553.253 314.914 553.528 314.568 553.808L312.748 555.236H317.368V557Z" fill="white"/>
<path d="M265.545 599.228V605.22C265.545 605.911 265.681 606.429 265.951 606.774C266.222 607.11 266.675 607.278 267.309 607.278C267.944 607.278 268.397 607.11 268.667 606.774C268.938 606.429 269.073 605.911 269.073 605.22V599.228H271.145V604.996C271.145 605.715 271.075 606.34 270.935 606.872C270.805 607.395 270.585 607.829 270.277 608.174C269.969 608.51 269.573 608.762 269.087 608.93C268.602 609.089 268.009 609.168 267.309 609.168C266.609 609.168 266.017 609.089 265.531 608.93C265.046 608.762 264.649 608.51 264.341 608.174C264.033 607.829 263.809 607.395 263.669 606.872C263.539 606.34 263.473 605.715 263.473 604.996V599.228H265.545ZM277.914 609.168C277.055 609.168 276.327 609.023 275.73 608.734C275.133 608.435 274.624 608.053 274.204 607.586L275.604 606.172C276.267 606.919 277.083 607.292 278.054 607.292C278.577 607.292 278.964 607.185 279.216 606.97C279.468 606.755 279.594 606.471 279.594 606.116C279.594 605.845 279.519 605.621 279.37 605.444C279.221 605.257 278.917 605.131 278.46 605.066L277.494 604.94C276.458 604.809 275.697 604.497 275.212 604.002C274.736 603.507 274.498 602.849 274.498 602.028C274.498 601.589 274.582 601.188 274.75 600.824C274.918 600.46 275.156 600.147 275.464 599.886C275.781 599.625 276.164 599.424 276.612 599.284C277.069 599.135 277.587 599.06 278.166 599.06C278.903 599.06 279.552 599.177 280.112 599.41C280.672 599.643 281.153 599.984 281.554 600.432L280.14 601.86C279.907 601.589 279.622 601.37 279.286 601.202C278.959 601.025 278.544 600.936 278.04 600.936C277.564 600.936 277.209 601.02 276.976 601.188C276.743 601.356 276.626 601.589 276.626 601.888C276.626 602.224 276.715 602.467 276.892 602.616C277.079 602.765 277.377 602.873 277.788 602.938L278.754 603.092C279.762 603.251 280.509 603.563 280.994 604.03C281.479 604.487 281.722 605.141 281.722 605.99C281.722 606.457 281.638 606.886 281.47 607.278C281.302 607.67 281.055 608.006 280.728 608.286C280.411 608.566 280.014 608.785 279.538 608.944C279.062 609.093 278.521 609.168 277.914 609.168ZM284.986 609V599.228H291.636V601.118H287.114V603.12H290.992V604.996H287.114V607.11H291.636V609H284.986ZM297.118 609H294.99V599.228H299.624C300.072 599.228 300.478 599.303 300.842 599.452C301.206 599.601 301.514 599.816 301.766 600.096C302.027 600.367 302.228 600.693 302.368 601.076C302.508 601.459 302.578 601.883 302.578 602.35C302.578 603.013 302.429 603.591 302.13 604.086C301.841 604.581 301.397 604.94 300.8 605.164L302.718 609H300.352L298.644 605.416H297.118V609ZM299.358 603.624C299.675 603.624 299.923 603.545 300.1 603.386C300.287 603.218 300.38 602.975 300.38 602.658V602.042C300.38 601.725 300.287 601.487 300.1 601.328C299.923 601.16 299.675 601.076 299.358 601.076H297.118V603.624H299.358ZM313.322 603.092C313.845 603.092 314.223 602.994 314.456 602.798C314.699 602.593 314.82 602.341 314.82 602.042V601.944C314.82 601.589 314.704 601.305 314.47 601.09C314.246 600.875 313.924 600.768 313.504 600.768C313.112 600.768 312.744 600.871 312.398 601.076C312.053 601.272 311.759 601.557 311.516 601.93L310.2 600.698C310.387 600.455 310.588 600.236 310.802 600.04C311.017 599.835 311.26 599.662 311.53 599.522C311.801 599.373 312.104 599.261 312.44 599.186C312.776 599.102 313.154 599.06 313.574 599.06C314.097 599.06 314.568 599.121 314.988 599.242C315.418 599.363 315.782 599.541 316.08 599.774C316.388 599.998 316.622 600.269 316.78 600.586C316.948 600.903 317.032 601.258 317.032 601.65C317.032 601.958 316.981 602.238 316.878 602.49C316.785 602.742 316.65 602.961 316.472 603.148C316.304 603.335 316.108 603.489 315.884 603.61C315.66 603.722 315.422 603.801 315.17 603.848V603.932C315.46 603.988 315.726 604.081 315.968 604.212C316.22 604.333 316.435 604.492 316.612 604.688C316.799 604.884 316.944 605.117 317.046 605.388C317.149 605.649 317.2 605.948 317.2 606.284C317.2 606.723 317.112 607.119 316.934 607.474C316.757 607.829 316.505 608.132 316.178 608.384C315.852 608.636 315.46 608.832 315.002 608.972C314.545 609.103 314.041 609.168 313.49 609.168C312.996 609.168 312.557 609.117 312.174 609.014C311.792 608.911 311.456 608.776 311.166 608.608C310.886 608.431 310.639 608.23 310.424 608.006C310.219 607.782 310.037 607.544 309.878 607.292L311.432 606.088C311.647 606.489 311.908 606.821 312.216 607.082C312.534 607.334 312.958 607.46 313.49 607.46C313.966 607.46 314.335 607.343 314.596 607.11C314.867 606.867 315.002 606.541 315.002 606.13V606.046C315.002 605.645 314.848 605.346 314.54 605.15C314.242 604.945 313.826 604.842 313.294 604.842H312.412V603.092H313.322Z" fill="white"/>
<path d="M265.295 651.228V657.22C265.295 657.911 265.431 658.429 265.701 658.774C265.972 659.11 266.425 659.278 267.059 659.278C267.694 659.278 268.147 659.11 268.417 658.774C268.688 658.429 268.823 657.911 268.823 657.22V651.228H270.895V656.996C270.895 657.715 270.825 658.34 270.685 658.872C270.555 659.395 270.335 659.829 270.027 660.174C269.719 660.51 269.323 660.762 268.837 660.93C268.352 661.089 267.759 661.168 267.059 661.168C266.359 661.168 265.767 661.089 265.281 660.93C264.796 660.762 264.399 660.51 264.091 660.174C263.783 659.829 263.559 659.395 263.419 658.872C263.289 658.34 263.223 657.715 263.223 656.996V651.228H265.295ZM277.664 661.168C276.805 661.168 276.077 661.023 275.48 660.734C274.883 660.435 274.374 660.053 273.954 659.586L275.354 658.172C276.017 658.919 276.833 659.292 277.804 659.292C278.327 659.292 278.714 659.185 278.966 658.97C279.218 658.755 279.344 658.471 279.344 658.116C279.344 657.845 279.269 657.621 279.12 657.444C278.971 657.257 278.667 657.131 278.21 657.066L277.244 656.94C276.208 656.809 275.447 656.497 274.962 656.002C274.486 655.507 274.248 654.849 274.248 654.028C274.248 653.589 274.332 653.188 274.5 652.824C274.668 652.46 274.906 652.147 275.214 651.886C275.531 651.625 275.914 651.424 276.362 651.284C276.819 651.135 277.337 651.06 277.916 651.06C278.653 651.06 279.302 651.177 279.862 651.41C280.422 651.643 280.903 651.984 281.304 652.432L279.89 653.86C279.657 653.589 279.372 653.37 279.036 653.202C278.709 653.025 278.294 652.936 277.79 652.936C277.314 652.936 276.959 653.02 276.726 653.188C276.493 653.356 276.376 653.589 276.376 653.888C276.376 654.224 276.465 654.467 276.642 654.616C276.829 654.765 277.127 654.873 277.538 654.938L278.504 655.092C279.512 655.251 280.259 655.563 280.744 656.03C281.229 656.487 281.472 657.141 281.472 657.99C281.472 658.457 281.388 658.886 281.22 659.278C281.052 659.67 280.805 660.006 280.478 660.286C280.161 660.566 279.764 660.785 279.288 660.944C278.812 661.093 278.271 661.168 277.664 661.168ZM284.736 661V651.228H291.386V653.118H286.864V655.12H290.742V656.996H286.864V659.11H291.386V661H284.736ZM296.868 661H294.74V651.228H299.374C299.822 651.228 300.228 651.303 300.592 651.452C300.956 651.601 301.264 651.816 301.516 652.096C301.777 652.367 301.978 652.693 302.118 653.076C302.258 653.459 302.328 653.883 302.328 654.35C302.328 655.013 302.179 655.591 301.88 656.086C301.591 656.581 301.147 656.94 300.55 657.164L302.468 661H300.102L298.394 657.416H296.868V661ZM299.108 655.624C299.425 655.624 299.673 655.545 299.85 655.386C300.037 655.218 300.13 654.975 300.13 654.658V654.042C300.13 653.725 300.037 653.487 299.85 653.328C299.673 653.16 299.425 653.076 299.108 653.076H296.868V655.624H299.108ZM314.122 661V659.124H309.824V657.332L313.632 651.228H316.124V657.5H317.356V659.124H316.124V661H314.122ZM311.504 657.5H314.122V653.398H313.982L311.504 657.5Z" fill="white"/>
<path d="M265.545 703.228V709.22C265.545 709.911 265.681 710.429 265.951 710.774C266.222 711.11 266.675 711.278 267.309 711.278C267.944 711.278 268.397 711.11 268.667 710.774C268.938 710.429 269.073 709.911 269.073 709.22V703.228H271.145V708.996C271.145 709.715 271.075 710.34 270.935 710.872C270.805 711.395 270.585 711.829 270.277 712.174C269.969 712.51 269.573 712.762 269.087 712.93C268.602 713.089 268.009 713.168 267.309 713.168C266.609 713.168 266.017 713.089 265.531 712.93C265.046 712.762 264.649 712.51 264.341 712.174C264.033 711.829 263.809 711.395 263.669 710.872C263.539 710.34 263.473 709.715 263.473 708.996V703.228H265.545ZM277.914 713.168C277.055 713.168 276.327 713.023 275.73 712.734C275.133 712.435 274.624 712.053 274.204 711.586L275.604 710.172C276.267 710.919 277.083 711.292 278.054 711.292C278.577 711.292 278.964 711.185 279.216 710.97C279.468 710.755 279.594 710.471 279.594 710.116C279.594 709.845 279.519 709.621 279.37 709.444C279.221 709.257 278.917 709.131 278.46 709.066L277.494 708.94C276.458 708.809 275.697 708.497 275.212 708.002C274.736 707.507 274.498 706.849 274.498 706.028C274.498 705.589 274.582 705.188 274.75 704.824C274.918 704.46 275.156 704.147 275.464 703.886C275.781 703.625 276.164 703.424 276.612 703.284C277.069 703.135 277.587 703.06 278.166 703.06C278.903 703.06 279.552 703.177 280.112 703.41C280.672 703.643 281.153 703.984 281.554 704.432L280.14 705.86C279.907 705.589 279.622 705.37 279.286 705.202C278.959 705.025 278.544 704.936 278.04 704.936C277.564 704.936 277.209 705.02 276.976 705.188C276.743 705.356 276.626 705.589 276.626 705.888C276.626 706.224 276.715 706.467 276.892 706.616C277.079 706.765 277.377 706.873 277.788 706.938L278.754 707.092C279.762 707.251 280.509 707.563 280.994 708.03C281.479 708.487 281.722 709.141 281.722 709.99C281.722 710.457 281.638 710.886 281.47 711.278C281.302 711.67 281.055 712.006 280.728 712.286C280.411 712.566 280.014 712.785 279.538 712.944C279.062 713.093 278.521 713.168 277.914 713.168ZM284.986 713V703.228H291.636V705.118H287.114V707.12H290.992V708.996H287.114V711.11H291.636V713H284.986ZM297.118 713H294.99V703.228H299.624C300.072 703.228 300.478 703.303 300.842 703.452C301.206 703.601 301.514 703.816 301.766 704.096C302.027 704.367 302.228 704.693 302.368 705.076C302.508 705.459 302.578 705.883 302.578 706.35C302.578 707.013 302.429 707.591 302.13 708.086C301.841 708.581 301.397 708.94 300.8 709.164L302.718 713H300.352L298.644 709.416H297.118V713ZM299.358 707.624C299.675 707.624 299.923 707.545 300.1 707.386C300.287 707.218 300.38 706.975 300.38 706.658V706.042C300.38 705.725 300.287 705.487 300.1 705.328C299.923 705.16 299.675 705.076 299.358 705.076H297.118V707.624H299.358ZM316.962 705.062H312.524L312.314 708.156H312.426C312.52 707.923 312.622 707.713 312.734 707.526C312.856 707.33 312.996 707.167 313.154 707.036C313.313 706.896 313.504 706.789 313.728 706.714C313.952 706.639 314.218 706.602 314.526 706.602C314.946 706.602 315.338 706.672 315.702 706.812C316.066 706.952 316.384 707.157 316.654 707.428C316.925 707.689 317.14 708.016 317.298 708.408C317.457 708.791 317.536 709.225 317.536 709.71C317.536 710.205 317.452 710.667 317.284 711.096C317.126 711.516 316.883 711.88 316.556 712.188C316.239 712.496 315.847 712.739 315.38 712.916C314.914 713.084 314.382 713.168 313.784 713.168C313.308 713.168 312.888 713.117 312.524 713.014C312.16 712.911 311.838 712.776 311.558 712.608C311.278 712.431 311.036 712.23 310.83 712.006C310.625 711.782 310.448 711.544 310.298 711.292L311.824 710.088C312.039 710.471 312.296 710.797 312.594 711.068C312.893 711.329 313.294 711.46 313.798 711.46C314.302 711.46 314.68 711.315 314.932 711.026C315.194 710.737 315.324 710.354 315.324 709.878V709.766C315.324 709.318 315.194 708.963 314.932 708.702C314.671 708.441 314.312 708.31 313.854 708.31C313.472 708.31 313.154 708.389 312.902 708.548C312.66 708.697 312.473 708.847 312.342 708.996L310.62 708.758L310.984 703.228H316.962V705.062Z" fill="white"/>
<path d="M265.295 755.228V761.22C265.295 761.911 265.431 762.429 265.701 762.774C265.972 763.11 266.425 763.278 267.059 763.278C267.694 763.278 268.147 763.11 268.417 762.774C268.688 762.429 268.823 761.911 268.823 761.22V755.228H270.895V760.996C270.895 761.715 270.825 762.34 270.685 762.872C270.555 763.395 270.335 763.829 270.027 764.174C269.719 764.51 269.323 764.762 268.837 764.93C268.352 765.089 267.759 765.168 267.059 765.168C266.359 765.168 265.767 765.089 265.281 764.93C264.796 764.762 264.399 764.51 264.091 764.174C263.783 763.829 263.559 763.395 263.419 762.872C263.289 762.34 263.223 761.715 263.223 760.996V755.228H265.295ZM277.664 765.168C276.805 765.168 276.077 765.023 275.48 764.734C274.883 764.435 274.374 764.053 273.954 763.586L275.354 762.172C276.017 762.919 276.833 763.292 277.804 763.292C278.327 763.292 278.714 763.185 278.966 762.97C279.218 762.755 279.344 762.471 279.344 762.116C279.344 761.845 279.269 761.621 279.12 761.444C278.971 761.257 278.667 761.131 278.21 761.066L277.244 760.94C276.208 760.809 275.447 760.497 274.962 760.002C274.486 759.507 274.248 758.849 274.248 758.028C274.248 757.589 274.332 757.188 274.5 756.824C274.668 756.46 274.906 756.147 275.214 755.886C275.531 755.625 275.914 755.424 276.362 755.284C276.819 755.135 277.337 755.06 277.916 755.06C278.653 755.06 279.302 755.177 279.862 755.41C280.422 755.643 280.903 755.984 281.304 756.432L279.89 757.86C279.657 757.589 279.372 757.37 279.036 757.202C278.709 757.025 278.294 756.936 277.79 756.936C277.314 756.936 276.959 757.02 276.726 757.188C276.493 757.356 276.376 757.589 276.376 757.888C276.376 758.224 276.465 758.467 276.642 758.616C276.829 758.765 277.127 758.873 277.538 758.938L278.504 759.092C279.512 759.251 280.259 759.563 280.744 760.03C281.229 760.487 281.472 761.141 281.472 761.99C281.472 762.457 281.388 762.886 281.22 763.278C281.052 763.67 280.805 764.006 280.478 764.286C280.161 764.566 279.764 764.785 279.288 764.944C278.812 765.093 278.271 765.168 277.664 765.168ZM284.736 765V755.228H291.386V757.118H286.864V759.12H290.742V760.996H286.864V763.11H291.386V765H284.736ZM296.868 765H294.74V755.228H299.374C299.822 755.228 300.228 755.303 300.592 755.452C300.956 755.601 301.264 755.816 301.516 756.096C301.777 756.367 301.978 756.693 302.118 757.076C302.258 757.459 302.328 757.883 302.328 758.35C302.328 759.013 302.179 759.591 301.88 760.086C301.591 760.581 301.147 760.94 300.55 761.164L302.468 765H300.102L298.394 761.416H296.868V765ZM299.108 759.624C299.425 759.624 299.673 759.545 299.85 759.386C300.037 759.218 300.13 758.975 300.13 758.658V758.042C300.13 757.725 300.037 757.487 299.85 757.328C299.673 757.16 299.425 757.076 299.108 757.076H296.868V759.624H299.108ZM313.66 765.168C313.082 765.168 312.564 765.079 312.106 764.902C311.649 764.715 311.262 764.454 310.944 764.118C310.636 763.773 310.398 763.362 310.23 762.886C310.072 762.41 309.992 761.878 309.992 761.29C309.992 760.609 310.095 759.965 310.3 759.358C310.515 758.742 310.786 758.177 311.112 757.664C311.448 757.141 311.822 756.675 312.232 756.264C312.652 755.853 313.072 755.508 313.492 755.228H316.39C315.793 755.657 315.256 756.068 314.78 756.46C314.304 756.843 313.889 757.23 313.534 757.622C313.189 758.014 312.9 758.415 312.666 758.826C312.442 759.227 312.284 759.661 312.19 760.128L312.316 760.17C312.4 759.983 312.498 759.801 312.61 759.624C312.732 759.447 312.876 759.293 313.044 759.162C313.222 759.022 313.427 758.91 313.66 758.826C313.894 758.742 314.164 758.7 314.472 758.7C314.874 758.7 315.247 758.775 315.592 758.924C315.947 759.064 316.25 759.265 316.502 759.526C316.764 759.787 316.964 760.109 317.104 760.492C317.254 760.865 317.328 761.281 317.328 761.738C317.328 762.242 317.24 762.704 317.062 763.124C316.894 763.544 316.647 763.908 316.32 764.216C316.003 764.515 315.62 764.748 315.172 764.916C314.724 765.084 314.22 765.168 313.66 765.168ZM313.66 763.53C314.127 763.53 314.491 763.404 314.752 763.152C315.014 762.891 315.144 762.522 315.144 762.046V761.794C315.144 761.318 315.014 760.954 314.752 760.702C314.491 760.441 314.127 760.31 313.66 760.31C313.194 760.31 312.83 760.441 312.568 760.702C312.307 760.954 312.176 761.318 312.176 761.794V762.046C312.176 762.522 312.307 762.891 312.568 763.152C312.83 763.404 313.194 763.53 313.66 763.53Z" fill="white"/>
<path d="M381.704 453L383 451.499L376.5 444L370 451.499L371.296 453L376.5 447L381.704 453Z" fill="white"/>
<path d="M200 266V319" stroke="white" stroke-width="3" stroke-linejoin="round"/>
<rect x="539" y="138" width="725" height="186" rx="10" fill="#C4C4C4"/>
<rect x="539" y="352" width="725" height="104" rx="10" fill="#C4C4C4"/>
<rect x="592" y="485" width="725" height="166" rx="10" fill="#E8CFBE"/>
<rect x="592" y="680" width="725" height="138" rx="10" fill="#E8CFBE"/>
<path d="M411 124H393C390.6 124 390 126 390 127V146C390 148.4 392 149 393 149H411C413.4 149 414 147 414 146V127C414 124.6 412 124 411 124Z" fill="#C4C4C4" stroke="#C4C4C4"/>
<path d="M402 131V143" stroke="#818181"/>
<path d="M396 137H408" stroke="#818181"/>
<defs>
<filter id="filter0_d" x="423" y="25" width="1010" height="882" filterUnits="userSpaceOnUse" color-interpolation-filters="sRGB">
<feFlood flood-opacity="0" result="BackgroundImageFix"/>
<feColorMatrix in="SourceAlpha" type="matrix" values="0 0 0 0 0 0 0 0 0 0 0 0 0 0 0 0 0 0 127 0"/>
<feOffset dy="4"/>
<feGaussianBlur stdDeviation="5"/>
<feColorMatrix type="matrix" values="0 0 0 0 0 0 0 0 0 0 0 0 0 0 0 0 0 0 0.32 0"/>
<feBlend mode="normal" in2="BackgroundImageFix" result="effect1_dropShadow"/>
<feBlend mode="normal" in="SourceGraphic" in2="effect1_dropShadow" result="shape"/>
</filter>
<filter id="filter1_d" x="423" y="903" width="1010" height="105" filterUnits="userSpaceOnUse" color-interpolation-filters="sRGB">
<feFlood flood-opacity="0" result="BackgroundImageFix"/>
<feColorMatrix in="SourceAlpha" type="matrix" values="0 0 0 0 0 0 0 0 0 0 0 0 0 0 0 0 0 0 127 0"/>
<feOffset dy="4"/>
<feGaussianBlur stdDeviation="5"/>
<feColorMatrix type="matrix" values="0 0 0 0 0 0 0 0 0 0 0 0 0 0 0 0 0 0 0.32 0"/>
<feBlend mode="normal" in2="BackgroundImageFix" result="effect1_dropShadow"/>
<feBlend mode="normal" in="SourceGraphic" in2="effect1_dropShadow" result="shape"/>
</filter>
<filter id="filter2_d" x="174" y="31" width="250" height="971" filterUnits="userSpaceOnUse" color-interpolation-filters="sRGB">
<feFlood flood-opacity="0" result="BackgroundImageFix"/>
<feColorMatrix in="SourceAlpha" type="matrix" values="0 0 0 0 0 0 0 0 0 0 0 0 0 0 0 0 0 0 127 0"/>
<feOffset dy="4"/>
<feGaussianBlur stdDeviation="2"/>
<feColorMatrix type="matrix" values="0 0 0 0 0 0 0 0 0 0 0 0 0 0 0 0 0 0 0.25 0"/>
<feBlend mode="normal" in2="BackgroundImageFix" result="effect1_dropShadow"/>
<feBlend mode="normal" in="SourceGraphic" in2="effect1_dropShadow" result="shape"/>
</filter>
</defs>
</svg>
