<svg width="1440" height="1024" viewBox="0 0 1440 1024" fill="none" xmlns="http://www.w3.org/2000/svg">
<rect width="1440" height="1024" fill="#E8CFBE"/>
<rect x="20" y="31" width="142" height="963" rx="51" fill="#373E4E"/>
<path opacity="0.5" d="M20 571H137.9C145.134 571 151 576.429 151 583.125V655.875C151 662.571 145.134 668 137.9 668H20V571Z" fill="#C5DCFA" fill-opacity="0.57"/>
<path fill-rule="evenodd" clip-rule="evenodd" d="M97.65 121.498L89.3913 113.674C88.0049 112.36 85.7571 112.36 84.3708 113.674L76.35 121.273V137.546H84.6333V130.819C84.6333 129.58 85.6929 128.577 87 128.577C88.3071 128.577 89.3666 129.58 89.3666 130.819V137.546H97.65V121.498ZM86.0443 115.259L78.7166 122.202V135.303H82.2666V130.819C82.2666 128.343 84.3859 126.335 87 126.335C89.6141 126.335 91.7333 128.343 91.7333 130.819V135.303H95.2833V122.428L87.7178 115.259C87.2557 114.822 86.5064 114.822 86.0443 115.259Z" fill="#525B67"/>
<path fill-rule="evenodd" clip-rule="evenodd" d="M98 221V227H76V221H98ZM78.4444 223H95.5556V225H78.4444V223Z" fill="#818181"/>
<path d="M98 229C98 228.448 97.5523 228 97 228H77C76.4477 228 76 228.448 76 229V243C76 243.552 76.4477 244 77 244H97C97.5523 244 98 243.552 98 243V229ZM78 242V230H96V242H78Z" fill="#818181" stroke="#818181" stroke-width="2" stroke-linejoin="round"/>
<path d="M81.0834 410.094H92.9167V407.852H81.0834V410.094Z" fill="#818181"/>
<path d="M92.9167 405.609H81.0834V403.367H92.9167V405.609Z" fill="#818181"/>
<path d="M81.0834 401.125H85.8167V398.883H81.0834V401.125Z" fill="#818181"/>
<path fill-rule="evenodd" clip-rule="evenodd" d="M79.9 392.156C77.9393 392.156 76.35 393.662 76.35 395.52V411.215C76.35 413.072 77.9393 414.578 79.9 414.578H94.1C96.0606 414.578 97.65 413.072 97.65 411.215V400.004C97.65 395.67 93.9414 392.156 89.3666 392.156H79.9ZM79.9 394.398H88.1833V400.004H95.2833V411.215C95.2833 411.834 94.7535 412.336 94.1 412.336H79.9C79.2464 412.336 78.7166 411.834 78.7166 411.215V395.52C78.7166 394.901 79.2464 394.398 79.9 394.398ZM90.55 394.511C92.4567 394.877 94.0305 396.113 94.791 397.762H90.55V394.511Z" fill="#818181"/>
<path fill-rule="evenodd" clip-rule="evenodd" d="M77.5333 486.221C76.2262 486.221 75.1667 487.224 75.1667 488.463V489.584C75.1667 489.648 75.1695 489.711 75.1749 489.772C73.7917 490.232 72.8 491.48 72.8 492.947V506.4C72.8 508.258 74.3893 509.764 76.35 509.764H97.65C99.6107 509.764 101.2 508.258 101.2 506.4V492.947C101.2 491.09 99.6107 489.584 97.65 489.584H86.8509C86.3254 487.65 84.4722 486.221 82.2667 486.221H77.5333ZM84.3167 489.584C83.9075 488.914 83.1427 488.463 82.2667 488.463H77.5333V489.584H84.3167ZM76.35 491.826C75.6964 491.826 75.1667 492.328 75.1667 492.947V506.4C75.1667 507.019 75.6964 507.521 76.35 507.521H97.65C98.3035 507.521 98.8333 507.019 98.8333 506.4V492.947C98.8333 492.328 98.3035 491.826 97.65 491.826H76.35Z" fill="#818181"/>
<path fill-rule="evenodd" clip-rule="evenodd" d="M82.2667 600.043C82.2667 602.519 84.3859 604.527 87 604.527C89.6141 604.527 91.7333 602.519 91.7333 600.043C91.7333 597.566 89.6141 595.559 87 595.559C84.3859 595.559 82.2667 597.566 82.2667 600.043ZM84.6333 600.043C84.6333 601.282 85.6929 602.285 87 602.285C88.3071 602.285 89.3667 601.282 89.3667 600.043C89.3667 598.804 88.3071 597.801 87 597.801C85.6929 597.801 84.6333 598.804 84.6333 600.043Z" fill="#818181"/>
<path fill-rule="evenodd" clip-rule="evenodd" d="M87 591.074C94.1889 591.074 100.017 596.596 100.017 603.406C100.017 610.217 94.1889 615.738 87 615.738C79.8111 615.738 73.9833 610.217 73.9833 603.406C73.9833 596.596 79.8111 591.074 87 591.074ZM97.65 603.406C97.65 605.749 96.8069 607.906 95.3922 609.619C93.4463 607.206 90.3769 605.648 86.9237 605.648C83.5153 605.648 80.4808 607.165 78.5315 609.525C77.163 607.828 76.35 605.707 76.35 603.406C76.35 597.833 81.1181 593.316 87 593.316C92.8819 593.316 97.65 597.833 97.65 603.406ZM87 613.496C89.5444 613.496 91.8804 612.651 93.7122 611.24C92.2144 609.215 89.7322 607.891 86.9237 607.891C84.1501 607.891 81.6948 609.182 80.1913 611.165C82.0372 612.621 84.4108 613.496 87 613.496Z" fill="#818181"/>
<path d="M87 695.184C86.3464 695.184 85.8167 695.686 85.8167 696.305V700.789C85.8167 701.408 86.3464 701.91 87 701.91C87.6535 701.91 88.1833 701.408 88.1833 700.789V696.305C88.1833 695.686 87.6535 695.184 87 695.184Z" fill="#0F56B3"/>
<path fill-rule="evenodd" clip-rule="evenodd" d="M77.5334 699.547C77.5334 694.594 81.7717 690.578 87.0001 690.578C92.2284 690.578 96.4667 694.594 96.4667 699.547V708.516C96.4667 713.469 92.2284 717.484 87.0001 717.484C81.7717 717.484 77.5334 713.469 77.5334 708.516V699.547ZM94.1001 699.547V708.516C94.1001 712.231 90.9213 715.242 87.0001 715.242C83.0788 715.242 79.9001 712.231 79.9001 708.516V699.547C79.9001 695.832 83.0788 692.82 87.0001 692.82C90.9213 692.82 94.1001 695.832 94.1001 699.547Z" fill="#818181"/>
<path fill-rule="evenodd" clip-rule="evenodd" d="M81.0833 794.5C83.2888 794.5 85.142 795.929 85.6675 797.863H95.2833V800.105H85.6675C85.142 802.039 83.2888 803.469 81.0833 803.469C78.4692 803.469 76.35 801.461 76.35 798.984C76.35 796.508 78.4692 794.5 81.0833 794.5ZM81.0833 801.227C82.3904 801.227 83.45 800.223 83.45 798.984C83.45 797.746 82.3904 796.742 81.0833 796.742C79.7762 796.742 78.7166 797.746 78.7166 798.984C78.7166 800.223 79.7762 801.227 81.0833 801.227Z" fill="#818181"/>
<path fill-rule="evenodd" clip-rule="evenodd" d="M90.2 812.969C87.9945 812.969 86.1413 811.539 85.6158 809.605H76V807.363H85.6158C86.1413 805.429 87.9945 804 90.2 804C92.8141 804 94.9333 806.008 94.9333 808.484C94.9333 810.961 92.8141 812.969 90.2 812.969ZM90.2 810.727C91.5071 810.727 92.5667 809.723 92.5667 808.484C92.5667 807.246 91.5071 806.242 90.2 806.242C88.8929 806.242 87.8333 807.246 87.8333 808.484C87.8333 809.723 88.8929 810.727 90.2 810.727Z" fill="#818181"/>
<path d="M50.1002 264.168C49.4376 264.168 48.8402 264.065 48.3082 263.86C47.7762 263.645 47.3236 263.333 46.9502 262.922C46.5769 262.502 46.2876 261.984 46.0822 261.368C45.8769 260.743 45.7742 260.015 45.7742 259.184C45.7742 258.363 45.8769 257.635 46.0822 257C46.2876 256.356 46.5769 255.819 46.9502 255.39C47.3236 254.951 47.7762 254.62 48.3082 254.396C48.8402 254.172 49.4376 254.06 50.1002 254.06C51.0056 254.06 51.7522 254.247 52.3402 254.62C52.9282 254.984 53.3996 255.563 53.7542 256.356L51.9202 257.308C51.7896 256.897 51.5842 256.571 51.3042 256.328C51.0336 256.076 50.6322 255.95 50.1002 255.95C49.4749 255.95 48.9709 256.155 48.5882 256.566C48.2149 256.967 48.0282 257.555 48.0282 258.33V259.898C48.0282 260.673 48.2149 261.265 48.5882 261.676C48.9709 262.077 49.4749 262.278 50.1002 262.278C50.6229 262.278 51.0382 262.138 51.3462 261.858C51.6636 261.569 51.8969 261.223 52.0462 260.822L53.7822 261.83C53.4182 262.577 52.9376 263.155 52.3402 263.566C51.7522 263.967 51.0056 264.168 50.1002 264.168ZM62.682 264L61.982 261.676H58.72L58.02 264H55.864L59.084 254.228H61.716L64.894 264H62.682ZM60.372 256.16H60.302L59.224 259.87H61.464L60.372 256.16ZM67.746 264V254.228H69.874V262.11H73.598V264H67.746ZM76.6698 264V254.228H83.3198V256.118H78.7978V258.12H82.6758V259.996H78.7978V262.11H83.3198V264H76.6698ZM89.6557 259.38L88.7177 257.42H88.6757V264H86.6737V254.228H88.9977L91.6717 258.848L92.6097 260.808H92.6517V254.228H94.6537V264H92.3297L89.6557 259.38ZM98.3046 254.228H101.987C102.631 254.228 103.219 254.331 103.751 254.536C104.283 254.741 104.735 255.049 105.109 255.46C105.482 255.861 105.771 256.37 105.977 256.986C106.182 257.593 106.285 258.302 106.285 259.114C106.285 259.926 106.182 260.64 105.977 261.256C105.771 261.863 105.482 262.371 105.109 262.782C104.735 263.183 104.283 263.487 103.751 263.692C103.219 263.897 102.631 264 101.987 264H98.3046V254.228ZM101.987 262.11C102.621 262.11 103.121 261.933 103.485 261.578C103.849 261.223 104.031 260.654 104.031 259.87V258.358C104.031 257.574 103.849 257.005 103.485 256.65C103.121 256.295 102.621 256.118 101.987 256.118H100.433V262.11H101.987ZM109.566 264V254.228H116.216V256.118H111.694V258.12H115.572V259.996H111.694V262.11H116.216V264H109.566ZM121.698 264H119.57V254.228H124.204C124.652 254.228 125.058 254.303 125.422 254.452C125.786 254.601 126.094 254.816 126.346 255.096C126.608 255.367 126.808 255.693 126.948 256.076C127.088 256.459 127.158 256.883 127.158 257.35C127.158 258.013 127.009 258.591 126.71 259.086C126.421 259.581 125.978 259.94 125.38 260.164L127.298 264H124.932L123.224 260.416H121.698V264ZM123.938 258.624C124.256 258.624 124.503 258.545 124.68 258.386C124.867 258.218 124.96 257.975 124.96 257.658V257.042C124.96 256.725 124.867 256.487 124.68 256.328C124.503 256.16 124.256 256.076 123.938 256.076H121.698V258.624H123.938Z" fill="white"/>
<path d="M65.6356 436L63.4236 426.228H65.5236L66.4476 430.918L66.9656 433.634H67.0076L67.6236 430.918L68.7016 426.228H71.0256L72.1176 430.918L72.7196 433.634H72.7616L73.2796 430.918L74.2176 426.228H76.2336L73.9656 436H71.5436L70.3116 430.708L69.8356 428.566H69.7936L69.3036 430.708L68.0716 436H65.6356ZM82.8046 436.168C82.1606 436.168 81.5726 436.061 81.0406 435.846C80.5086 435.631 80.056 435.314 79.6826 434.894C79.3093 434.465 79.02 433.937 78.8146 433.312C78.6093 432.677 78.5066 431.945 78.5066 431.114C78.5066 430.283 78.6093 429.555 78.8146 428.93C79.02 428.295 79.3093 427.768 79.6826 427.348C80.056 426.919 80.5086 426.597 81.0406 426.382C81.5726 426.167 82.1606 426.06 82.8046 426.06C83.4486 426.06 84.0366 426.167 84.5686 426.382C85.1006 426.597 85.5533 426.919 85.9266 427.348C86.3 427.768 86.5893 428.295 86.7946 428.93C87 429.555 87.1026 430.283 87.1026 431.114C87.1026 431.945 87 432.677 86.7946 433.312C86.5893 433.937 86.3 434.465 85.9266 434.894C85.5533 435.314 85.1006 435.631 84.5686 435.846C84.0366 436.061 83.4486 436.168 82.8046 436.168ZM82.8046 434.278C83.4486 434.278 83.948 434.068 84.3026 433.648C84.6666 433.228 84.8486 432.626 84.8486 431.842V430.386C84.8486 429.602 84.6666 429 84.3026 428.58C83.948 428.16 83.4486 427.95 82.8046 427.95C82.1606 427.95 81.6566 428.16 81.2926 428.58C80.938 429 80.7606 429.602 80.7606 430.386V431.842C80.7606 432.626 80.938 433.228 81.2926 433.648C81.6566 434.068 82.1606 434.278 82.8046 434.278ZM92.5068 436H90.3788V426.228H95.0128C95.4608 426.228 95.8668 426.303 96.2308 426.452C96.5948 426.601 96.9028 426.816 97.1548 427.096C97.4161 427.367 97.6168 427.693 97.7568 428.076C97.8968 428.459 97.9668 428.883 97.9668 429.35C97.9668 430.013 97.8174 430.591 97.5188 431.086C97.2294 431.581 96.7861 431.94 96.1888 432.164L98.1068 436H95.7408L94.0328 432.416H92.5068V436ZM94.7468 430.624C95.0641 430.624 95.3114 430.545 95.4888 430.386C95.6754 430.218 95.7688 429.975 95.7688 429.658V429.042C95.7688 428.725 95.6754 428.487 95.4888 428.328C95.3114 428.16 95.0641 428.076 94.7468 428.076H92.5068V430.624H94.7468ZM104.714 431.744L103.44 433.284V436H101.312V426.228H103.44V430.876H103.524L104.91 428.986L107.108 426.228H109.516L106.226 430.246L109.81 436H107.304L104.714 431.744Z" fill="white"/>
<path d="M52.2684 532V522.228H58.7504V524.118H54.3964V526.12H58.1064V527.996H54.3964V532H52.2684ZM65.4541 532.168C64.8101 532.168 64.2221 532.061 63.6901 531.846C63.1581 531.631 62.7054 531.314 62.3321 530.894C61.9587 530.465 61.6694 529.937 61.4641 529.312C61.2587 528.677 61.1561 527.945 61.1561 527.114C61.1561 526.283 61.2587 525.555 61.4641 524.93C61.6694 524.295 61.9587 523.768 62.3321 523.348C62.7054 522.919 63.1581 522.597 63.6901 522.382C64.2221 522.167 64.8101 522.06 65.4541 522.06C66.0981 522.06 66.6861 522.167 67.2181 522.382C67.7501 522.597 68.2027 522.919 68.5761 523.348C68.9494 523.768 69.2387 524.295 69.4441 524.93C69.6494 525.555 69.7521 526.283 69.7521 527.114C69.7521 527.945 69.6494 528.677 69.4441 529.312C69.2387 529.937 68.9494 530.465 68.5761 530.894C68.2027 531.314 67.7501 531.631 67.2181 531.846C66.6861 532.061 66.0981 532.168 65.4541 532.168ZM65.4541 530.278C66.0981 530.278 66.5974 530.068 66.9521 529.648C67.3161 529.228 67.4981 528.626 67.4981 527.842V526.386C67.4981 525.602 67.3161 525 66.9521 524.58C66.5974 524.16 66.0981 523.95 65.4541 523.95C64.8101 523.95 64.3061 524.16 63.9421 524.58C63.5874 525 63.4101 525.602 63.4101 526.386V527.842C63.4101 528.626 63.5874 529.228 63.9421 529.648C64.3061 530.068 64.8101 530.278 65.4541 530.278ZM73.0282 532V522.228H75.1562V530.11H78.8802V532H73.0282ZM81.952 522.228H85.634C86.278 522.228 86.866 522.331 87.398 522.536C87.93 522.741 88.3827 523.049 88.756 523.46C89.1294 523.861 89.4187 524.37 89.624 524.986C89.8294 525.593 89.932 526.302 89.932 527.114C89.932 527.926 89.8294 528.64 89.624 529.256C89.4187 529.863 89.1294 530.371 88.756 530.782C88.3827 531.183 87.93 531.487 87.398 531.692C86.866 531.897 86.278 532 85.634 532H81.952V522.228ZM85.634 530.11C86.2687 530.11 86.768 529.933 87.132 529.578C87.496 529.223 87.678 528.654 87.678 527.87V526.358C87.678 525.574 87.496 525.005 87.132 524.65C86.768 524.295 86.2687 524.118 85.634 524.118H84.08V530.11H85.634ZM93.2137 532V522.228H99.8637V524.118H95.3417V526.12H99.2197V527.996H95.3417V530.11H99.8637V532H93.2137ZM105.346 532H103.218V522.228H107.852C108.3 522.228 108.706 522.303 109.07 522.452C109.434 522.601 109.742 522.816 109.994 523.096C110.255 523.367 110.456 523.693 110.596 524.076C110.736 524.459 110.806 524.883 110.806 525.35C110.806 526.013 110.656 526.591 110.358 527.086C110.068 527.581 109.625 527.94 109.028 528.164L110.946 532H108.58L106.872 528.416H105.346V532ZM107.586 526.624C107.903 526.624 108.15 526.545 108.328 526.386C108.514 526.218 108.608 525.975 108.608 525.658V525.042C108.608 524.725 108.514 524.487 108.328 524.328C108.15 524.16 107.903 524.076 107.586 524.076H105.346V526.624H107.586ZM117.315 532.168C116.457 532.168 115.729 532.023 115.131 531.734C114.534 531.435 114.025 531.053 113.605 530.586L115.005 529.172C115.668 529.919 116.485 530.292 117.455 530.292C117.978 530.292 118.365 530.185 118.617 529.97C118.869 529.755 118.995 529.471 118.995 529.116C118.995 528.845 118.921 528.621 118.771 528.444C118.622 528.257 118.319 528.131 117.861 528.066L116.895 527.94C115.859 527.809 115.099 527.497 114.613 527.002C114.137 526.507 113.899 525.849 113.899 525.028C113.899 524.589 113.983 524.188 114.151 523.824C114.319 523.46 114.557 523.147 114.865 522.886C115.183 522.625 115.565 522.424 116.013 522.284C116.471 522.135 116.989 522.06 117.567 522.06C118.305 522.06 118.953 522.177 119.513 522.41C120.073 522.643 120.554 522.984 120.955 523.432L119.541 524.86C119.308 524.589 119.023 524.37 118.687 524.202C118.361 524.025 117.945 523.936 117.441 523.936C116.965 523.936 116.611 524.02 116.377 524.188C116.144 524.356 116.027 524.589 116.027 524.888C116.027 525.224 116.116 525.467 116.293 525.616C116.48 525.765 116.779 525.873 117.189 525.938L118.155 526.092C119.163 526.251 119.91 526.563 120.395 527.03C120.881 527.487 121.123 528.141 121.123 528.99C121.123 529.457 121.039 529.886 120.871 530.278C120.703 530.67 120.456 531.006 120.129 531.286C119.812 531.566 119.415 531.785 118.939 531.944C118.463 532.093 117.922 532.168 117.315 532.168Z" fill="white"/>
<path d="M53.7587 639V629.228H58.3787C58.836 629.228 59.2467 629.307 59.6107 629.466C59.9747 629.615 60.2827 629.825 60.5347 630.096C60.796 630.367 60.9967 630.698 61.1367 631.09C61.2767 631.473 61.3467 631.893 61.3467 632.35C61.3467 632.817 61.2767 633.241 61.1367 633.624C60.9967 634.007 60.796 634.333 60.5347 634.604C60.2827 634.875 59.9747 635.089 59.6107 635.248C59.2467 635.397 58.836 635.472 58.3787 635.472H55.8867V639H53.7587ZM55.8867 633.624H58.1267C58.444 633.624 58.6913 633.545 58.8687 633.386C59.0553 633.218 59.1487 632.975 59.1487 632.658V632.042C59.1487 631.725 59.0553 631.487 58.8687 631.328C58.6913 631.16 58.444 631.076 58.1267 631.076H55.8867V633.624ZM66.5742 639H64.4462V629.228H69.0802C69.5282 629.228 69.9342 629.303 70.2982 629.452C70.6622 629.601 70.9702 629.816 71.2222 630.096C71.4835 630.367 71.6842 630.693 71.8242 631.076C71.9642 631.459 72.0342 631.883 72.0342 632.35C72.0342 633.013 71.8848 633.591 71.5862 634.086C71.2968 634.581 70.8535 634.94 70.2562 635.164L72.1742 639H69.8082L68.1002 635.416H66.5742V639ZM68.8142 633.624C69.1315 633.624 69.3788 633.545 69.5562 633.386C69.7428 633.218 69.8362 632.975 69.8362 632.658V632.042C69.8362 631.725 69.7428 631.487 69.5562 631.328C69.3788 631.16 69.1315 631.076 68.8142 631.076H66.5742V633.624H68.8142ZM79.163 639.168C78.519 639.168 77.931 639.061 77.399 638.846C76.867 638.631 76.4144 638.314 76.041 637.894C75.6677 637.465 75.3784 636.937 75.173 636.312C74.9677 635.677 74.865 634.945 74.865 634.114C74.865 633.283 74.9677 632.555 75.173 631.93C75.3784 631.295 75.6677 630.768 76.041 630.348C76.4144 629.919 76.867 629.597 77.399 629.382C77.931 629.167 78.519 629.06 79.163 629.06C79.807 629.06 80.395 629.167 80.927 629.382C81.459 629.597 81.9117 629.919 82.285 630.348C82.6584 630.768 82.9477 631.295 83.153 631.93C83.3584 632.555 83.461 633.283 83.461 634.114C83.461 634.945 83.3584 635.677 83.153 636.312C82.9477 636.937 82.6584 637.465 82.285 637.894C81.9117 638.314 81.459 638.631 80.927 638.846C80.395 639.061 79.807 639.168 79.163 639.168ZM79.163 637.278C79.807 637.278 80.3064 637.068 80.661 636.648C81.025 636.228 81.207 635.626 81.207 634.842V633.386C81.207 632.602 81.025 632 80.661 631.58C80.3064 631.16 79.807 630.95 79.163 630.95C78.519 630.95 78.015 631.16 77.651 631.58C77.2964 632 77.119 632.602 77.119 633.386V634.842C77.119 635.626 77.2964 636.228 77.651 636.648C78.015 637.068 78.519 637.278 79.163 637.278ZM86.7372 639V629.228H93.2192V631.118H88.8652V633.12H92.5752V634.996H88.8652V639H86.7372ZM96.0486 639V637.306H97.3086V630.922H96.0486V629.228H100.697V630.922H99.4366V637.306H100.697V639H96.0486ZM103.97 639V629.228H106.098V637.11H109.822V639H103.97ZM112.893 639V629.228H119.543V631.118H115.021V633.12H118.899V634.996H115.021V637.11H119.543V639H112.893Z" fill="white"/>
<path d="M57.0853 741L56.3853 738.676H53.1233L52.4233 741H50.2673L53.4873 731.228H56.1193L59.2973 741H57.0853ZM54.7753 733.16H54.7053L53.6273 736.87H55.8673L54.7753 733.16ZM62.1493 731.228H65.8313C66.4753 731.228 67.0633 731.331 67.5953 731.536C68.1273 731.741 68.58 732.049 68.9533 732.46C69.3266 732.861 69.616 733.37 69.8213 733.986C70.0266 734.593 70.1293 735.302 70.1293 736.114C70.1293 736.926 70.0266 737.64 69.8213 738.256C69.616 738.863 69.3266 739.371 68.9533 739.782C68.58 740.183 68.1273 740.487 67.5953 740.692C67.0633 740.897 66.4753 741 65.8313 741H62.1493V731.228ZM65.8313 739.11C66.466 739.11 66.9653 738.933 67.3293 738.578C67.6933 738.223 67.8753 737.654 67.8753 736.87V735.358C67.8753 734.574 67.6933 734.005 67.3293 733.65C66.9653 733.295 66.466 733.118 65.8313 733.118H64.2773V739.11H65.8313ZM73.411 731.228H77.093C77.737 731.228 78.325 731.331 78.857 731.536C79.389 731.741 79.8417 732.049 80.215 732.46C80.5883 732.861 80.8777 733.37 81.083 733.986C81.2883 734.593 81.391 735.302 81.391 736.114C81.391 736.926 81.2883 737.64 81.083 738.256C80.8777 738.863 80.5883 739.371 80.215 739.782C79.8417 740.183 79.389 740.487 78.857 740.692C78.325 740.897 77.737 741 77.093 741H73.411V731.228ZM77.093 739.11C77.7277 739.11 78.227 738.933 78.591 738.578C78.955 738.223 79.137 737.654 79.137 736.87V735.358C79.137 734.574 78.955 734.005 78.591 733.65C78.227 733.295 77.7277 733.118 77.093 733.118H75.539V739.11H77.093ZM84.5418 737.738V735.722H88.6998V737.738H84.5418ZM96.1494 741.168C95.5054 741.168 94.9174 741.061 94.3854 740.846C93.8534 740.631 93.4007 740.314 93.0274 739.894C92.654 739.465 92.3647 738.937 92.1594 738.312C91.954 737.677 91.8514 736.945 91.8514 736.114C91.8514 735.283 91.954 734.555 92.1594 733.93C92.3647 733.295 92.654 732.768 93.0274 732.348C93.4007 731.919 93.8534 731.597 94.3854 731.382C94.9174 731.167 95.5054 731.06 96.1494 731.06C96.7934 731.06 97.3814 731.167 97.9134 731.382C98.4454 731.597 98.898 731.919 99.2714 732.348C99.6447 732.768 99.934 733.295 100.139 733.93C100.345 734.555 100.447 735.283 100.447 736.114C100.447 736.945 100.345 737.677 100.139 738.312C99.934 738.937 99.6447 739.465 99.2714 739.894C98.898 740.314 98.4454 740.631 97.9134 740.846C97.3814 741.061 96.7934 741.168 96.1494 741.168ZM96.1494 739.278C96.7934 739.278 97.2927 739.068 97.6474 738.648C98.0114 738.228 98.1934 737.626 98.1934 736.842V735.386C98.1934 734.602 98.0114 734 97.6474 733.58C97.2927 733.16 96.7934 732.95 96.1494 732.95C95.5054 732.95 95.0014 733.16 94.6374 733.58C94.2827 734 94.1054 734.602 94.1054 735.386V736.842C94.1054 737.626 94.2827 738.228 94.6374 738.648C95.0014 739.068 95.5054 739.278 96.1494 739.278ZM106.706 736.38L105.768 734.42H105.726V741H103.724V731.228H106.048L108.722 735.848L109.66 737.808H109.702V731.228H111.704V741H109.38L106.706 736.38ZM118.518 741.168C117.66 741.168 116.932 741.023 116.334 740.734C115.737 740.435 115.228 740.053 114.808 739.586L116.208 738.172C116.871 738.919 117.688 739.292 118.658 739.292C119.181 739.292 119.568 739.185 119.82 738.97C120.072 738.755 120.198 738.471 120.198 738.116C120.198 737.845 120.124 737.621 119.974 737.444C119.825 737.257 119.522 737.131 119.064 737.066L118.098 736.94C117.062 736.809 116.302 736.497 115.816 736.002C115.34 735.507 115.102 734.849 115.102 734.028C115.102 733.589 115.186 733.188 115.354 732.824C115.522 732.46 115.76 732.147 116.068 731.886C116.386 731.625 116.768 731.424 117.216 731.284C117.674 731.135 118.192 731.06 118.77 731.06C119.508 731.06 120.156 731.177 120.716 731.41C121.276 731.643 121.757 731.984 122.158 732.432L120.744 733.86C120.511 733.589 120.226 733.37 119.89 733.202C119.564 733.025 119.148 732.936 118.644 732.936C118.168 732.936 117.814 733.02 117.58 733.188C117.347 733.356 117.23 733.589 117.23 733.888C117.23 734.224 117.319 734.467 117.496 734.616C117.683 734.765 117.982 734.873 118.392 734.938L119.358 735.092C120.366 735.251 121.113 735.563 121.598 736.03C122.084 736.487 122.326 737.141 122.326 737.99C122.326 738.457 122.242 738.886 122.074 739.278C121.906 739.67 121.659 740.006 121.332 740.286C121.015 740.566 120.618 740.785 120.142 740.944C119.666 741.093 119.125 741.168 118.518 741.168Z" fill="white"/>
<path d="M53.1346 835.168C52.2759 835.168 51.5479 835.023 50.9506 834.734C50.3532 834.435 49.8446 834.053 49.4246 833.586L50.8246 832.172C51.4872 832.919 52.3039 833.292 53.2746 833.292C53.7972 833.292 54.1846 833.185 54.4366 832.97C54.6886 832.755 54.8146 832.471 54.8146 832.116C54.8146 831.845 54.7399 831.621 54.5906 831.444C54.4412 831.257 54.1379 831.131 53.6806 831.066L52.7146 830.94C51.6786 830.809 50.9179 830.497 50.4326 830.002C49.9566 829.507 49.7186 828.849 49.7186 828.028C49.7186 827.589 49.8026 827.188 49.9706 826.824C50.1386 826.46 50.3766 826.147 50.6846 825.886C51.0019 825.625 51.3846 825.424 51.8326 825.284C52.2899 825.135 52.8079 825.06 53.3866 825.06C54.1239 825.06 54.7726 825.177 55.3326 825.41C55.8926 825.643 56.3732 825.984 56.7746 826.432L55.3606 827.86C55.1272 827.589 54.8426 827.37 54.5066 827.202C54.1799 827.025 53.7646 826.936 53.2606 826.936C52.7846 826.936 52.4299 827.02 52.1966 827.188C51.9632 827.356 51.8466 827.589 51.8466 827.888C51.8466 828.224 51.9352 828.467 52.1126 828.616C52.2992 828.765 52.5979 828.873 53.0086 828.938L53.9746 829.092C54.9826 829.251 55.7292 829.563 56.2146 830.03C56.6999 830.487 56.9426 831.141 56.9426 831.99C56.9426 832.457 56.8586 832.886 56.6906 833.278C56.5226 833.67 56.2752 834.006 55.9486 834.286C55.6312 834.566 55.2346 834.785 54.7586 834.944C54.2826 835.093 53.7412 835.168 53.1346 835.168ZM60.2069 835V825.228H66.8569V827.118H62.3349V829.12H66.2129V830.996H62.3349V833.11H66.8569V835H60.2069ZM74.2848 827.118V835H72.1568V827.118H69.5108V825.228H76.9308V827.118H74.2848ZM84.1657 827.118V835H82.0377V827.118H79.3917V825.228H86.8117V827.118H84.1657ZM89.3348 835V833.306H90.5948V826.922H89.3348V825.228H93.9828V826.922H92.7228V833.306H93.9828V835H89.3348ZM100.238 830.38L99.2997 828.42H99.2577V835H97.2557V825.228H99.5797L102.254 829.848L103.192 831.808H103.234V825.228H105.236V835H102.912L100.238 830.38ZM115.089 833.446H115.019C114.944 833.941 114.692 834.351 114.263 834.678C113.833 835.005 113.25 835.168 112.513 835.168C111.953 835.168 111.43 835.061 110.945 834.846C110.459 834.631 110.035 834.314 109.671 833.894C109.307 833.474 109.022 832.951 108.817 832.326C108.611 831.701 108.509 830.977 108.509 830.156C108.509 829.335 108.616 828.607 108.831 827.972C109.045 827.337 109.344 826.805 109.727 826.376C110.119 825.947 110.585 825.62 111.127 825.396C111.668 825.172 112.27 825.06 112.933 825.06C113.81 825.06 114.566 825.251 115.201 825.634C115.835 826.007 116.335 826.572 116.699 827.328L114.963 828.322C114.813 827.939 114.58 827.617 114.263 827.356C113.945 827.085 113.502 826.95 112.933 826.95C112.27 826.95 111.743 827.141 111.351 827.524C110.959 827.907 110.763 828.509 110.763 829.33V830.898C110.763 831.71 110.959 832.312 111.351 832.704C111.743 833.087 112.27 833.278 112.933 833.278C113.194 833.278 113.441 833.25 113.675 833.194C113.908 833.129 114.113 833.035 114.291 832.914C114.468 832.783 114.603 832.629 114.697 832.452C114.799 832.275 114.851 832.065 114.851 831.822V831.332H113.031V829.554H116.881V835H115.089V833.446ZM123.613 835.168C122.754 835.168 122.026 835.023 121.429 834.734C120.832 834.435 120.323 834.053 119.903 833.586L121.303 832.172C121.966 832.919 122.782 833.292 123.753 833.292C124.276 833.292 124.663 833.185 124.915 832.97C125.167 832.755 125.293 832.471 125.293 832.116C125.293 831.845 125.218 831.621 125.069 831.444C124.92 831.257 124.616 831.131 124.159 831.066L123.193 830.94C122.157 830.809 121.396 830.497 120.911 830.002C120.435 829.507 120.197 828.849 120.197 828.028C120.197 827.589 120.281 827.188 120.449 826.824C120.617 826.46 120.855 826.147 121.163 825.886C121.48 825.625 121.863 825.424 122.311 825.284C122.768 825.135 123.286 825.06 123.865 825.06C124.602 825.06 125.251 825.177 125.811 825.41C126.371 825.643 126.852 825.984 127.253 826.432L125.839 827.86C125.606 827.589 125.321 827.37 124.985 827.202C124.658 827.025 124.243 826.936 123.739 826.936C123.263 826.936 122.908 827.02 122.675 827.188C122.442 827.356 122.325 827.589 122.325 827.888C122.325 828.224 122.414 828.467 122.591 828.616C122.778 828.765 123.076 828.873 123.487 828.938L124.453 829.092C125.461 829.251 126.208 829.563 126.693 830.03C127.178 830.487 127.421 831.141 127.421 831.99C127.421 832.457 127.337 832.886 127.169 833.278C127.001 833.67 126.754 834.006 126.427 834.286C126.11 834.566 125.713 834.785 125.237 834.944C124.761 835.093 124.22 835.168 123.613 835.168Z" fill="white"/>
<path d="M72.1302 150.996H68.4062V155H66.2782V145.228H68.4062V149.12H72.1302V145.228H74.2582V155H72.1302V150.996ZM81.8291 155.168C81.1851 155.168 80.5971 155.061 80.0651 154.846C79.5331 154.631 79.0804 154.314 78.7071 153.894C78.3337 153.465 78.0444 152.937 77.8391 152.312C77.6337 151.677 77.5311 150.945 77.5311 150.114C77.5311 149.283 77.6337 148.555 77.8391 147.93C78.0444 147.295 78.3337 146.768 78.7071 146.348C79.0804 145.919 79.5331 145.597 80.0651 145.382C80.5971 145.167 81.1851 145.06 81.8291 145.06C82.4731 145.06 83.0611 145.167 83.5931 145.382C84.1251 145.597 84.5777 145.919 84.9511 146.348C85.3244 146.768 85.6137 147.295 85.8191 147.93C86.0244 148.555 86.1271 149.283 86.1271 150.114C86.1271 150.945 86.0244 151.677 85.8191 152.312C85.6137 152.937 85.3244 153.465 84.9511 153.894C84.5777 154.314 84.1251 154.631 83.5931 154.846C83.0611 155.061 82.4731 155.168 81.8291 155.168ZM81.8291 153.278C82.4731 153.278 82.9724 153.068 83.3271 152.648C83.6911 152.228 83.8731 151.626 83.8731 150.842V149.386C83.8731 148.602 83.6911 148 83.3271 147.58C82.9724 147.16 82.4731 146.95 81.8291 146.95C81.1851 146.95 80.6811 147.16 80.3171 147.58C79.9624 148 79.7851 148.602 79.7851 149.386V150.842C79.7851 151.626 79.9624 152.228 80.3171 152.648C80.6811 153.068 81.1851 153.278 81.8291 153.278ZM96.7112 148.588H96.6692L95.9552 150.016L94.0512 153.474L92.1892 150.03L91.4472 148.49H91.4052V155H89.4032V145.228H91.6572L94.0512 149.806H94.0792L96.4452 145.228H98.7132V155H96.7112V148.588ZM102.374 155V145.228H109.024V147.118H104.502V149.12H108.38V150.996H104.502V153.11H109.024V155H102.374Z" fill="white"/>
<path d="M77.9916 308C75.1345 308 74.1401 310.503 74 311.755V323.255C74 325.696 76.6611 326.306 77.9916 326.306H86.395L83.874 331L91.2269 326.306H96.2689C98.2857 326.306 98.93 324.272 99 323.255V311.755C99 308.939 97.1793 308.078 96.2689 308H77.9916Z" stroke="#818181" stroke-width="2"/>
<path d="M71.2291 349.168C70.5665 349.168 69.9691 349.065 69.4371 348.86C68.9051 348.645 68.4525 348.333 68.0791 347.922C67.7058 347.502 67.4165 346.984 67.2111 346.368C67.0058 345.743 66.9031 345.015 66.9031 344.184C66.9031 343.363 67.0058 342.635 67.2111 342C67.4165 341.356 67.7058 340.819 68.0791 340.39C68.4525 339.951 68.9051 339.62 69.4371 339.396C69.9691 339.172 70.5665 339.06 71.2291 339.06C72.1345 339.06 72.8811 339.247 73.4691 339.62C74.0571 339.984 74.5285 340.563 74.8831 341.356L73.0491 342.308C72.9185 341.897 72.7131 341.571 72.4331 341.328C72.1625 341.076 71.7611 340.95 71.2291 340.95C70.6038 340.95 70.0998 341.155 69.7171 341.566C69.3438 341.967 69.1571 342.555 69.1571 343.33V344.898C69.1571 345.673 69.3438 346.265 69.7171 346.676C70.0998 347.077 70.6038 347.278 71.2291 347.278C71.7518 347.278 72.1671 347.138 72.4751 346.858C72.7925 346.569 73.0258 346.223 73.1751 345.822L74.9111 346.83C74.5471 347.577 74.0665 348.155 73.4691 348.566C72.8811 348.967 72.1345 349.168 71.2291 349.168ZM83.7523 344.996H80.0283V349H77.9003V339.228H80.0283V343.12H83.7523V339.228H85.8803V349H83.7523V344.996ZM95.5511 349L94.8511 346.676H91.5891L90.8891 349H88.7331L91.9531 339.228H94.5851L97.7631 349H95.5511ZM93.2411 341.16H93.1711L92.0931 344.87H94.3331L93.2411 341.16ZM103.773 341.118V349H101.645V341.118H98.9991V339.228H106.419V341.118H103.773Z" fill="white"/>
<g filter="url(#filter0_d)">
<rect x="179" y="28" width="242" height="963" rx="51" fill="#525B67"/>
</g>
<path opacity="0.5" d="M179 124H400.35C406.787 124 412 129.709 412 136.75V162.25C412 169.291 406.787 175 400.35 175H179V124Z" fill="#C5DCFA" fill-opacity="0.54"/>
<path d="M225.28 152.446H225.21C225.135 152.941 224.883 153.351 224.454 153.678C224.025 154.005 223.441 154.168 222.704 154.168C222.144 154.168 221.621 154.061 221.136 153.846C220.651 153.631 220.226 153.314 219.862 152.894C219.498 152.474 219.213 151.951 219.008 151.326C218.803 150.701 218.7 149.977 218.7 149.156C218.7 148.335 218.807 147.607 219.022 146.972C219.237 146.337 219.535 145.805 219.918 145.376C220.31 144.947 220.777 144.62 221.318 144.396C221.859 144.172 222.461 144.06 223.124 144.06C224.001 144.06 224.757 144.251 225.392 144.634C226.027 145.007 226.526 145.572 226.89 146.328L225.154 147.322C225.005 146.939 224.771 146.617 224.454 146.356C224.137 146.085 223.693 145.95 223.124 145.95C222.461 145.95 221.934 146.141 221.542 146.524C221.15 146.907 220.954 147.509 220.954 148.33V149.898C220.954 150.71 221.15 151.312 221.542 151.704C221.934 152.087 222.461 152.278 223.124 152.278C223.385 152.278 223.633 152.25 223.866 152.194C224.099 152.129 224.305 152.035 224.482 151.914C224.659 151.783 224.795 151.629 224.888 151.452C224.991 151.275 225.042 151.065 225.042 150.822V150.332H223.222V148.554H227.072V154H225.28V152.446ZM230.641 154V144.228H237.291V146.118H232.769V148.12H236.647V149.996H232.769V152.11H237.291V154H230.641ZM243.626 149.38L242.688 147.42H242.646V154H240.644V144.228H242.968L245.642 148.848L246.58 150.808H246.622V144.228H248.624V154H246.3L243.626 149.38ZM252.275 154V144.228H258.925V146.118H254.403V148.12H258.281V149.996H254.403V152.11H258.925V154H252.275ZM264.407 154H262.279V144.228H266.913C267.361 144.228 267.767 144.303 268.131 144.452C268.495 144.601 268.803 144.816 269.055 145.096C269.317 145.367 269.517 145.693 269.657 146.076C269.797 146.459 269.867 146.883 269.867 147.35C269.867 148.013 269.718 148.591 269.419 149.086C269.13 149.581 268.687 149.94 268.089 150.164L270.007 154H267.641L265.933 150.416H264.407V154ZM266.647 148.624C266.965 148.624 267.212 148.545 267.389 148.386C267.576 148.218 267.669 147.975 267.669 147.658V147.042C267.669 146.725 267.576 146.487 267.389 146.328C267.212 146.16 266.965 146.076 266.647 146.076H264.407V148.624H266.647ZM279.233 154L278.533 151.676H275.271L274.571 154H272.415L275.635 144.228H278.267L281.445 154H279.233ZM276.923 146.16H276.853L275.775 149.87H278.015L276.923 146.16ZM284.297 154V144.228H286.425V152.11H290.149V154H284.297Z" fill="white"/>
<g filter="url(#filter1_d)">
<rect x="438" y="31" width="977" height="963" rx="36" fill="white"/>
</g>
<path d="M647 232.421V106.105C647 74.5263 667.091 64.8772 677.137 64H808.644C839.329 64 847 88.5614 847 100.842V232.421C847 257.684 825.082 264 814.123 264H677.137C653.027 264 647 242.947 647 232.421Z" fill="#C4C4C4" stroke="#818181" stroke-width="4"/>
<path d="M674.094 395.228V401.22C674.094 401.911 674.229 402.429 674.5 402.774C674.771 403.11 675.223 403.278 675.858 403.278C676.493 403.278 676.945 403.11 677.216 402.774C677.487 402.429 677.622 401.911 677.622 401.22V395.228H679.694V400.996C679.694 401.715 679.624 402.34 679.484 402.872C679.353 403.395 679.134 403.829 678.826 404.174C678.518 404.51 678.121 404.762 677.636 404.93C677.151 405.089 676.558 405.168 675.858 405.168C675.158 405.168 674.565 405.089 674.08 404.93C673.595 404.762 673.198 404.51 672.89 404.174C672.582 403.829 672.358 403.395 672.218 402.872C672.087 402.34 672.022 401.715 672.022 400.996V395.228H674.094ZM686.463 405.168C685.604 405.168 684.876 405.023 684.279 404.734C683.681 404.435 683.173 404.053 682.753 403.586L684.153 402.172C684.815 402.919 685.632 403.292 686.603 403.292C687.125 403.292 687.513 403.185 687.765 402.97C688.017 402.755 688.143 402.471 688.143 402.116C688.143 401.845 688.068 401.621 687.919 401.444C687.769 401.257 687.466 401.131 687.009 401.066L686.043 400.94C685.007 400.809 684.246 400.497 683.761 400.002C683.285 399.507 683.047 398.849 683.047 398.028C683.047 397.589 683.131 397.188 683.299 396.824C683.467 396.46 683.705 396.147 684.013 395.886C684.33 395.625 684.713 395.424 685.161 395.284C685.618 395.135 686.136 395.06 686.715 395.06C687.452 395.06 688.101 395.177 688.661 395.41C689.221 395.643 689.701 395.984 690.103 396.432L688.689 397.86C688.455 397.589 688.171 397.37 687.835 397.202C687.508 397.025 687.093 396.936 686.589 396.936C686.113 396.936 685.758 397.02 685.525 397.188C685.291 397.356 685.175 397.589 685.175 397.888C685.175 398.224 685.263 398.467 685.441 398.616C685.627 398.765 685.926 398.873 686.337 398.938L687.303 399.092C688.311 399.251 689.057 399.563 689.543 400.03C690.028 400.487 690.271 401.141 690.271 401.99C690.271 402.457 690.187 402.886 690.019 403.278C689.851 403.67 689.603 404.006 689.277 404.286C688.959 404.566 688.563 404.785 688.087 404.944C687.611 405.093 687.069 405.168 686.463 405.168ZM693.535 405V395.228H700.185V397.118H695.663V399.12H699.541V400.996H695.663V403.11H700.185V405H693.535ZM705.667 405H703.539V395.228H708.173C708.621 395.228 709.027 395.303 709.391 395.452C709.755 395.601 710.063 395.816 710.315 396.096C710.576 396.367 710.777 396.693 710.917 397.076C711.057 397.459 711.127 397.883 711.127 398.35C711.127 399.013 710.978 399.591 710.679 400.086C710.39 400.581 709.946 400.94 709.349 401.164L711.267 405H708.901L707.193 401.416H705.667V405ZM707.907 399.624C708.224 399.624 708.472 399.545 708.649 399.386C708.836 399.218 708.929 398.975 708.929 398.658V398.042C708.929 397.725 708.836 397.487 708.649 397.328C708.472 397.16 708.224 397.076 707.907 397.076H705.667V399.624H707.907ZM717.455 400.38L716.517 398.42H716.475V405H714.473V395.228H716.797L719.471 399.848L720.409 401.808H720.451V395.228H722.453V405H720.129L717.455 400.38ZM732.123 405L731.423 402.676H728.161L727.461 405H725.305L728.525 395.228H731.157L734.335 405H732.123ZM729.813 397.16H729.743L728.665 400.87H730.905L729.813 397.16ZM744.495 398.588H744.453L743.739 400.016L741.835 403.474L739.973 400.03L739.231 398.49H739.189V405H737.187V395.228H739.441L741.835 399.806H741.863L744.229 395.228H746.497V405H744.495V398.588ZM750.158 405V395.228H756.808V397.118H752.286V399.12H756.164V400.996H752.286V403.11H756.808V405H750.158Z" fill="black"/>
<path d="M672.078 458V448.228H678.728V450.118H674.206V452.12H678.084V453.996H674.206V456.11H678.728V458H672.078ZM689.39 451.588H689.348L688.634 453.016L686.73 456.474L684.868 453.03L684.126 451.49H684.084V458H682.082V448.228H684.336L686.73 452.806H686.758L689.124 448.228H691.392V458H689.39V451.588ZM701.073 458L700.373 455.676H697.111L696.411 458H694.255L697.475 448.228H700.107L703.285 458H701.073ZM698.763 450.16H698.693L697.615 453.87H699.855L698.763 450.16ZM705.759 458V456.306H707.019V449.922H705.759V448.228H710.407V449.922H709.147V456.306H710.407V458H705.759ZM713.68 458V448.228H715.808V456.11H719.532V458H713.68ZM723.835 458.154C723.415 458.154 723.103 458.051 722.897 457.846C722.701 457.631 722.603 457.361 722.603 457.034V456.754C722.603 456.427 722.701 456.161 722.897 455.956C723.103 455.741 723.415 455.634 723.835 455.634C724.255 455.634 724.563 455.741 724.759 455.956C724.965 456.161 725.067 456.427 725.067 456.754V457.034C725.067 457.361 724.965 457.631 724.759 457.846C724.563 458.051 724.255 458.154 723.835 458.154ZM723.835 453.016C723.415 453.016 723.103 452.913 722.897 452.708C722.701 452.493 722.603 452.223 722.603 451.896V451.616C722.603 451.289 722.701 451.023 722.897 450.818C723.103 450.603 723.415 450.496 723.835 450.496C724.255 450.496 724.563 450.603 724.759 450.818C724.965 451.023 725.067 451.289 725.067 451.616V451.896C725.067 452.223 724.965 452.493 724.759 452.708C724.563 452.913 724.255 453.016 723.835 453.016Z" fill="black"/>
<path d="M672.078 507V497.228H676.698C677.155 497.228 677.566 497.307 677.93 497.466C678.294 497.615 678.602 497.825 678.854 498.096C679.115 498.367 679.316 498.698 679.456 499.09C679.596 499.473 679.666 499.893 679.666 500.35C679.666 500.817 679.596 501.241 679.456 501.624C679.316 502.007 679.115 502.333 678.854 502.604C678.602 502.875 678.294 503.089 677.93 503.248C677.566 503.397 677.155 503.472 676.698 503.472H674.206V507H672.078ZM674.206 501.624H676.446C676.763 501.624 677.011 501.545 677.188 501.386C677.375 501.218 677.468 500.975 677.468 500.658V500.042C677.468 499.725 677.375 499.487 677.188 499.328C677.011 499.16 676.763 499.076 676.446 499.076H674.206V501.624ZM687.76 507L687.06 504.676H683.798L683.098 507H680.942L684.162 497.228H686.794L689.972 507H687.76ZM685.45 499.16H685.38L684.302 502.87H686.542L685.45 499.16ZM695.988 507.168C695.129 507.168 694.401 507.023 693.804 506.734C693.207 506.435 692.698 506.053 692.278 505.586L693.678 504.172C694.341 504.919 695.157 505.292 696.128 505.292C696.651 505.292 697.038 505.185 697.29 504.97C697.542 504.755 697.668 504.471 697.668 504.116C697.668 503.845 697.593 503.621 697.444 503.444C697.295 503.257 696.991 503.131 696.534 503.066L695.568 502.94C694.532 502.809 693.771 502.497 693.286 502.002C692.81 501.507 692.572 500.849 692.572 500.028C692.572 499.589 692.656 499.188 692.824 498.824C692.992 498.46 693.23 498.147 693.538 497.886C693.855 497.625 694.238 497.424 694.686 497.284C695.143 497.135 695.661 497.06 696.24 497.06C696.977 497.06 697.626 497.177 698.186 497.41C698.746 497.643 699.227 497.984 699.628 498.432L698.214 499.86C697.981 499.589 697.696 499.37 697.36 499.202C697.033 499.025 696.618 498.936 696.114 498.936C695.638 498.936 695.283 499.02 695.05 499.188C694.817 499.356 694.7 499.589 694.7 499.888C694.7 500.224 694.789 500.467 694.966 500.616C695.153 500.765 695.451 500.873 695.862 500.938L696.828 501.092C697.836 501.251 698.583 501.563 699.068 502.03C699.553 502.487 699.796 503.141 699.796 503.99C699.796 504.457 699.712 504.886 699.544 505.278C699.376 505.67 699.129 506.006 698.802 506.286C698.485 506.566 698.088 506.785 697.612 506.944C697.136 507.093 696.595 507.168 695.988 507.168ZM706.033 507.168C705.174 507.168 704.446 507.023 703.849 506.734C703.252 506.435 702.743 506.053 702.323 505.586L703.723 504.172C704.386 504.919 705.202 505.292 706.173 505.292C706.696 505.292 707.083 505.185 707.335 504.97C707.587 504.755 707.713 504.471 707.713 504.116C707.713 503.845 707.638 503.621 707.489 503.444C707.34 503.257 707.036 503.131 706.579 503.066L705.613 502.94C704.577 502.809 703.816 502.497 703.331 502.002C702.855 501.507 702.617 500.849 702.617 500.028C702.617 499.589 702.701 499.188 702.869 498.824C703.037 498.46 703.275 498.147 703.583 497.886C703.9 497.625 704.283 497.424 704.731 497.284C705.188 497.135 705.706 497.06 706.285 497.06C707.022 497.06 707.671 497.177 708.231 497.41C708.791 497.643 709.272 497.984 709.673 498.432L708.259 499.86C708.026 499.589 707.741 499.37 707.405 499.202C707.078 499.025 706.663 498.936 706.159 498.936C705.683 498.936 705.328 499.02 705.095 499.188C704.862 499.356 704.745 499.589 704.745 499.888C704.745 500.224 704.834 500.467 705.011 500.616C705.198 500.765 705.496 500.873 705.907 500.938L706.873 501.092C707.881 501.251 708.628 501.563 709.113 502.03C709.598 502.487 709.841 503.141 709.841 503.99C709.841 504.457 709.757 504.886 709.589 505.278C709.421 505.67 709.174 506.006 708.847 506.286C708.53 506.566 708.133 506.785 707.657 506.944C707.181 507.093 706.64 507.168 706.033 507.168ZM714.399 507L712.187 497.228H714.287L715.211 501.918L715.729 504.634H715.771L716.387 501.918L717.465 497.228H719.789L720.881 501.918L721.483 504.634H721.525L722.043 501.918L722.981 497.228H724.997L722.729 507H720.307L719.075 501.708L718.599 499.566H718.557L718.067 501.708L716.835 507H714.399ZM731.568 507.168C730.924 507.168 730.336 507.061 729.804 506.846C729.272 506.631 728.82 506.314 728.446 505.894C728.073 505.465 727.784 504.937 727.578 504.312C727.373 503.677 727.27 502.945 727.27 502.114C727.27 501.283 727.373 500.555 727.578 499.93C727.784 499.295 728.073 498.768 728.446 498.348C728.82 497.919 729.272 497.597 729.804 497.382C730.336 497.167 730.924 497.06 731.568 497.06C732.212 497.06 732.8 497.167 733.332 497.382C733.864 497.597 734.317 497.919 734.69 498.348C735.064 498.768 735.353 499.295 735.558 499.93C735.764 500.555 735.866 501.283 735.866 502.114C735.866 502.945 735.764 503.677 735.558 504.312C735.353 504.937 735.064 505.465 734.69 505.894C734.317 506.314 733.864 506.631 733.332 506.846C732.8 507.061 732.212 507.168 731.568 507.168ZM731.568 505.278C732.212 505.278 732.712 505.068 733.066 504.648C733.43 504.228 733.612 503.626 733.612 502.842V501.386C733.612 500.602 733.43 500 733.066 499.58C732.712 499.16 732.212 498.95 731.568 498.95C730.924 498.95 730.42 499.16 730.056 499.58C729.702 500 729.524 500.602 729.524 501.386V502.842C729.524 503.626 729.702 504.228 730.056 504.648C730.42 505.068 730.924 505.278 731.568 505.278ZM741.27 507H739.142V497.228H743.776C744.224 497.228 744.63 497.303 744.994 497.452C745.358 497.601 745.666 497.816 745.918 498.096C746.18 498.367 746.38 498.693 746.52 499.076C746.66 499.459 746.73 499.883 746.73 500.35C746.73 501.013 746.581 501.591 746.282 502.086C745.993 502.581 745.55 502.94 744.952 503.164L746.87 507H744.504L742.796 503.416H741.27V507ZM743.51 501.624C743.828 501.624 744.075 501.545 744.252 501.386C744.439 501.218 744.532 500.975 744.532 500.658V500.042C744.532 499.725 744.439 499.487 744.252 499.328C744.075 499.16 743.828 499.076 743.51 499.076H741.27V501.624H743.51ZM750.076 497.228H753.758C754.402 497.228 754.99 497.331 755.522 497.536C756.054 497.741 756.507 498.049 756.88 498.46C757.253 498.861 757.543 499.37 757.748 499.986C757.953 500.593 758.056 501.302 758.056 502.114C758.056 502.926 757.953 503.64 757.748 504.256C757.543 504.863 757.253 505.371 756.88 505.782C756.507 506.183 756.054 506.487 755.522 506.692C754.99 506.897 754.402 507 753.758 507H750.076V497.228ZM753.758 505.11C754.393 505.11 754.892 504.933 755.256 504.578C755.62 504.223 755.802 503.654 755.802 502.87V501.358C755.802 500.574 755.62 500.005 755.256 499.65C754.892 499.295 754.393 499.118 753.758 499.118H752.204V505.11H753.758Z" fill="black"/>
<path d="M672.078 360V350.228H678.728V352.118H674.206V354.12H678.084V355.996H674.206V358.11H678.728V360H672.078ZM682.082 350.228H685.764C686.408 350.228 686.996 350.331 687.528 350.536C688.06 350.741 688.513 351.049 688.886 351.46C689.259 351.861 689.549 352.37 689.754 352.986C689.959 353.593 690.062 354.302 690.062 355.114C690.062 355.926 689.959 356.64 689.754 357.256C689.549 357.863 689.259 358.371 688.886 358.782C688.513 359.183 688.06 359.487 687.528 359.692C686.996 359.897 686.408 360 685.764 360H682.082V350.228ZM685.764 358.11C686.399 358.11 686.898 357.933 687.262 357.578C687.626 357.223 687.808 356.654 687.808 355.87V354.358C687.808 353.574 687.626 353.005 687.262 352.65C686.898 352.295 686.399 352.118 685.764 352.118H684.21V358.11H685.764ZM692.966 360V358.306H694.226V351.922H692.966V350.228H697.614V351.922H696.354V358.306H697.614V360H692.966ZM704.906 352.118V360H702.778V352.118H700.132V350.228H707.552V352.118H704.906ZM715.316 360V350.228H719.936C720.394 350.228 720.804 350.307 721.168 350.466C721.532 350.615 721.84 350.825 722.092 351.096C722.354 351.367 722.554 351.698 722.694 352.09C722.834 352.473 722.904 352.893 722.904 353.35C722.904 353.817 722.834 354.241 722.694 354.624C722.554 355.007 722.354 355.333 722.092 355.604C721.84 355.875 721.532 356.089 721.168 356.248C720.804 356.397 720.394 356.472 719.936 356.472H717.444V360H715.316ZM717.444 354.624H719.684C720.002 354.624 720.249 354.545 720.426 354.386C720.613 354.218 720.706 353.975 720.706 353.658V353.042C720.706 352.725 720.613 352.487 720.426 352.328C720.249 352.16 720.002 352.076 719.684 352.076H717.444V354.624ZM728.132 360H726.004V350.228H730.638C731.086 350.228 731.492 350.303 731.856 350.452C732.22 350.601 732.528 350.816 732.78 351.096C733.041 351.367 733.242 351.693 733.382 352.076C733.522 352.459 733.592 352.883 733.592 353.35C733.592 354.013 733.442 354.591 733.144 355.086C732.854 355.581 732.411 355.94 731.814 356.164L733.732 360H731.366L729.658 356.416H728.132V360ZM730.372 354.624C730.689 354.624 730.936 354.545 731.114 354.386C731.3 354.218 731.394 353.975 731.394 353.658V353.042C731.394 352.725 731.3 352.487 731.114 352.328C730.936 352.16 730.689 352.076 730.372 352.076H728.132V354.624H730.372ZM740.721 360.168C740.077 360.168 739.489 360.061 738.957 359.846C738.425 359.631 737.972 359.314 737.599 358.894C737.225 358.465 736.936 357.937 736.731 357.312C736.525 356.677 736.423 355.945 736.423 355.114C736.423 354.283 736.525 353.555 736.731 352.93C736.936 352.295 737.225 351.768 737.599 351.348C737.972 350.919 738.425 350.597 738.957 350.382C739.489 350.167 740.077 350.06 740.721 350.06C741.365 350.06 741.953 350.167 742.485 350.382C743.017 350.597 743.469 350.919 743.843 351.348C744.216 351.768 744.505 352.295 744.711 352.93C744.916 353.555 745.019 354.283 745.019 355.114C745.019 355.945 744.916 356.677 744.711 357.312C744.505 357.937 744.216 358.465 743.843 358.894C743.469 359.314 743.017 359.631 742.485 359.846C741.953 360.061 741.365 360.168 740.721 360.168ZM740.721 358.278C741.365 358.278 741.864 358.068 742.219 357.648C742.583 357.228 742.765 356.626 742.765 355.842V354.386C742.765 353.602 742.583 353 742.219 352.58C741.864 352.16 741.365 351.95 740.721 351.95C740.077 351.95 739.573 352.16 739.209 352.58C738.854 353 738.677 353.602 738.677 354.386V355.842C738.677 356.626 738.854 357.228 739.209 357.648C739.573 358.068 740.077 358.278 740.721 358.278ZM748.295 360V350.228H754.777V352.118H750.423V354.12H754.133V355.996H750.423V360H748.295ZM757.606 360V358.306H758.866V351.922H757.606V350.228H762.254V351.922H760.994V358.306H762.254V360H757.606ZM765.527 360V350.228H767.655V358.11H771.379V360H765.527ZM774.451 360V350.228H781.101V352.118H776.579V354.12H780.457V355.996H776.579V358.11H781.101V360H774.451Z" fill="black"/>
<path d="M881.44 93.12L879.028 88.08H878.92V105H873.772V79.872H879.748L886.624 91.752L889.036 96.792H889.144V79.872H894.292V105H888.316L881.44 93.12ZM916.803 105L915.003 99.024H906.615L904.815 105H899.271L907.551 79.872H914.319L922.491 105H916.803ZM910.863 84.84H910.683L907.911 94.38H913.671L910.863 84.84ZM946.259 88.512H946.151L944.315 92.184L939.419 101.076L934.631 92.22L932.723 88.26H932.615V105H927.467V79.872H933.263L939.419 91.644H939.491L945.575 79.872H951.407V105H946.259V88.512ZM958.463 105V79.872H975.563V84.732H963.935V89.88H973.907V94.704H963.935V100.14H975.563V105H958.463ZM990.146 111.84V107.412H1008V111.84H990.146ZM1011.65 111.84V107.412H1029.51V111.84H1011.65ZM1044.85 105V79.872H1050.33V100.14H1059.9V105H1044.85ZM1081.52 105L1079.72 99.024H1071.33L1069.53 105H1063.99L1072.27 79.872H1079.04L1087.21 105H1081.52ZM1075.58 84.84H1075.4L1072.63 94.38H1078.39L1075.58 84.84ZM1100.32 105.432C1098.11 105.432 1096.24 105.06 1094.71 104.316C1093.17 103.548 1091.86 102.564 1090.78 101.364L1094.38 97.728C1096.09 99.648 1098.19 100.608 1100.68 100.608C1102.03 100.608 1103.02 100.332 1103.67 99.78C1104.32 99.228 1104.64 98.496 1104.64 97.584C1104.64 96.888 1104.45 96.312 1104.07 95.856C1103.68 95.376 1102.9 95.052 1101.73 94.884L1099.24 94.56C1096.58 94.224 1094.62 93.42 1093.37 92.148C1092.15 90.876 1091.54 89.184 1091.54 87.072C1091.54 85.944 1091.75 84.912 1092.19 83.976C1092.62 83.04 1093.23 82.236 1094.02 81.564C1094.84 80.892 1095.82 80.376 1096.97 80.016C1098.15 79.632 1099.48 79.44 1100.97 79.44C1102.87 79.44 1104.53 79.74 1105.97 80.34C1107.41 80.94 1108.65 81.816 1109.68 82.968L1106.05 86.64C1105.45 85.944 1104.71 85.38 1103.85 84.948C1103.01 84.492 1101.94 84.264 1100.65 84.264C1099.42 84.264 1098.51 84.48 1097.91 84.912C1097.31 85.344 1097.01 85.944 1097.01 86.712C1097.01 87.576 1097.24 88.2 1097.69 88.584C1098.17 88.968 1098.94 89.244 1100 89.412L1102.48 89.808C1105.07 90.216 1106.99 91.02 1108.24 92.22C1109.49 93.396 1110.11 95.076 1110.11 97.26C1110.11 98.46 1109.9 99.564 1109.47 100.572C1109.03 101.58 1108.4 102.444 1107.56 103.164C1106.74 103.884 1105.72 104.448 1104.5 104.856C1103.27 105.24 1101.88 105.432 1100.32 105.432ZM1125.78 84.732V105H1120.31V84.732H1113.51V79.872H1132.59V84.732H1125.78ZM1155.51 93.12L1153.09 88.08H1152.99V105H1147.84V79.872H1153.81L1160.69 91.752L1163.1 96.792H1163.21V79.872H1168.36V105H1162.38L1155.51 93.12ZM1190.87 105L1189.07 99.024H1180.68L1178.88 105H1173.34L1181.62 79.872H1188.39L1196.56 105H1190.87ZM1184.93 84.84H1184.75L1181.98 94.38H1187.74L1184.93 84.84ZM1220.33 88.512H1220.22L1218.38 92.184L1213.49 101.076L1208.7 92.22L1206.79 88.26H1206.68V105H1201.53V79.872H1207.33L1213.49 91.644H1213.56L1219.64 79.872H1225.47V105H1220.33V88.512ZM1232.53 105V79.872H1249.63V84.732H1238V89.88H1247.97V94.704H1238V100.14H1249.63V105H1232.53Z" fill="black"/>
<path d="M877.426 201.216C876.598 201.216 875.842 201.078 875.158 200.802C874.474 200.526 873.892 200.118 873.412 199.578C872.932 199.026 872.56 198.348 872.296 197.544C872.032 196.728 871.9 195.786 871.9 194.718C871.9 193.65 872.032 192.714 872.296 191.91C872.56 191.094 872.932 190.416 873.412 189.876C873.892 189.324 874.474 188.91 875.158 188.634C875.842 188.358 876.598 188.22 877.426 188.22C878.254 188.22 879.01 188.358 879.694 188.634C880.378 188.91 880.96 189.324 881.44 189.876C881.92 190.416 882.292 191.094 882.556 191.91C882.82 192.714 882.952 193.65 882.952 194.718C882.952 195.786 882.82 196.728 882.556 197.544C882.292 198.348 881.92 199.026 881.44 199.578C880.96 200.118 880.378 200.526 879.694 200.802C879.01 201.078 878.254 201.216 877.426 201.216ZM877.426 198.786C878.254 198.786 878.896 198.516 879.352 197.976C879.82 197.436 880.054 196.662 880.054 195.654V193.782C880.054 192.774 879.82 192 879.352 191.46C878.896 190.92 878.254 190.65 877.426 190.65C876.598 190.65 875.95 190.92 875.482 191.46C875.026 192 874.798 192.774 874.798 193.782V195.654C874.798 196.662 875.026 197.436 875.482 197.976C875.95 198.516 876.598 198.786 877.426 198.786ZM891.812 201.216C890.96 201.216 890.192 201.084 889.508 200.82C888.824 200.544 888.242 200.142 887.762 199.614C887.282 199.074 886.91 198.408 886.646 197.616C886.382 196.812 886.25 195.876 886.25 194.808C886.25 193.752 886.382 192.816 886.646 192C886.91 191.172 887.282 190.482 887.762 189.93C888.242 189.366 888.824 188.94 889.508 188.652C890.192 188.364 890.96 188.22 891.812 188.22C892.976 188.22 893.936 188.46 894.692 188.94C895.448 189.408 896.054 190.152 896.51 191.172L894.152 192.396C893.984 191.868 893.72 191.448 893.36 191.136C893.012 190.812 892.496 190.65 891.812 190.65C891.008 190.65 890.36 190.914 889.868 191.442C889.388 191.958 889.148 192.714 889.148 193.71V195.726C889.148 196.722 889.388 197.484 889.868 198.012C890.36 198.528 891.008 198.786 891.812 198.786C892.484 198.786 893.018 198.606 893.414 198.246C893.822 197.874 894.122 197.43 894.314 196.914L896.546 198.21C896.078 199.17 895.46 199.914 894.692 200.442C893.936 200.958 892.976 201.216 891.812 201.216ZM904.808 201.216C903.956 201.216 903.188 201.084 902.504 200.82C901.82 200.544 901.238 200.142 900.758 199.614C900.278 199.074 899.906 198.408 899.642 197.616C899.378 196.812 899.246 195.876 899.246 194.808C899.246 193.752 899.378 192.816 899.642 192C899.906 191.172 900.278 190.482 900.758 189.93C901.238 189.366 901.82 188.94 902.504 188.652C903.188 188.364 903.956 188.22 904.808 188.22C905.972 188.22 906.932 188.46 907.688 188.94C908.444 189.408 909.05 190.152 909.506 191.172L907.148 192.396C906.98 191.868 906.716 191.448 906.356 191.136C906.008 190.812 905.492 190.65 904.808 190.65C904.004 190.65 903.356 190.914 902.864 191.442C902.384 191.958 902.144 192.714 902.144 193.71V195.726C902.144 196.722 902.384 197.484 902.864 198.012C903.356 198.528 904.004 198.786 904.808 198.786C905.48 198.786 906.014 198.606 906.41 198.246C906.818 197.874 907.118 197.43 907.31 196.914L909.542 198.21C909.074 199.17 908.456 199.914 907.688 200.442C906.932 200.958 905.972 201.216 904.808 201.216ZM915.548 188.436V196.14C915.548 197.028 915.722 197.694 916.07 198.138C916.418 198.57 917 198.786 917.816 198.786C918.632 198.786 919.214 198.57 919.562 198.138C919.91 197.694 920.084 197.028 920.084 196.14V188.436H922.748V195.852C922.748 196.776 922.658 197.58 922.478 198.264C922.31 198.936 922.028 199.494 921.632 199.938C921.236 200.37 920.726 200.694 920.102 200.91C919.478 201.114 918.716 201.216 917.816 201.216C916.916 201.216 916.154 201.114 915.53 200.91C914.906 200.694 914.396 200.37 914 199.938C913.604 199.494 913.316 198.936 913.136 198.264C912.968 197.58 912.884 196.776 912.884 195.852V188.436H915.548ZM926.954 201V188.436H932.894C933.482 188.436 934.01 188.538 934.478 188.742C934.946 188.934 935.342 189.204 935.666 189.552C936.002 189.9 936.26 190.326 936.44 190.83C936.62 191.322 936.71 191.862 936.71 192.45C936.71 193.05 936.62 193.596 936.44 194.088C936.26 194.58 936.002 195 935.666 195.348C935.342 195.696 934.946 195.972 934.478 196.176C934.01 196.368 933.482 196.464 932.894 196.464H929.69V201H926.954ZM929.69 194.088H932.57C932.978 194.088 933.296 193.986 933.524 193.782C933.764 193.566 933.884 193.254 933.884 192.846V192.054C933.884 191.646 933.764 191.34 933.524 191.136C933.296 190.92 932.978 190.812 932.57 190.812H929.69V194.088ZM946.689 201L945.789 198.012H941.595L940.695 201H937.923L942.062 188.436H945.447L949.533 201H946.689ZM943.719 190.92H943.629L942.243 195.69H945.123L943.719 190.92ZM956.831 190.866V201H954.095V190.866H950.693V188.436H960.233V190.866H956.831ZM963.048 201V198.822H964.668V190.614H963.048V188.436H969.024V190.614H967.404V198.822H969.024V201H963.048ZM977.844 201.216C977.016 201.216 976.26 201.078 975.576 200.802C974.892 200.526 974.31 200.118 973.83 199.578C973.35 199.026 972.978 198.348 972.714 197.544C972.45 196.728 972.318 195.786 972.318 194.718C972.318 193.65 972.45 192.714 972.714 191.91C972.978 191.094 973.35 190.416 973.83 189.876C974.31 189.324 974.892 188.91 975.576 188.634C976.26 188.358 977.016 188.22 977.844 188.22C978.672 188.22 979.428 188.358 980.112 188.634C980.796 188.91 981.378 189.324 981.858 189.876C982.338 190.416 982.71 191.094 982.974 191.91C983.238 192.714 983.37 193.65 983.37 194.718C983.37 195.786 983.238 196.728 982.974 197.544C982.71 198.348 982.338 199.026 981.858 199.578C981.378 200.118 980.796 200.526 980.112 200.802C979.428 201.078 978.672 201.216 977.844 201.216ZM977.844 198.786C978.672 198.786 979.314 198.516 979.77 197.976C980.238 197.436 980.472 196.662 980.472 195.654V193.782C980.472 192.774 980.238 192 979.77 191.46C979.314 190.92 978.672 190.65 977.844 190.65C977.016 190.65 976.368 190.92 975.9 191.46C975.444 192 975.216 192.774 975.216 193.782V195.654C975.216 196.662 975.444 197.436 975.9 197.976C976.368 198.516 977.016 198.786 977.844 198.786ZM990.988 195.06L989.782 192.54H989.728V201H987.154V188.436H990.142L993.58 194.376L994.786 196.896H994.84V188.436H997.414V201H994.426L990.988 195.06Z" fill="black"/>
<path d="M877.462 247.216C876.61 247.216 875.842 247.084 875.158 246.82C874.474 246.544 873.892 246.142 873.412 245.614C872.932 245.074 872.56 244.408 872.296 243.616C872.032 242.812 871.9 241.876 871.9 240.808C871.9 239.752 872.032 238.816 872.296 238C872.56 237.172 872.932 236.482 873.412 235.93C873.892 235.366 874.474 234.94 875.158 234.652C875.842 234.364 876.61 234.22 877.462 234.22C878.626 234.22 879.586 234.46 880.342 234.94C881.098 235.408 881.704 236.152 882.16 237.172L879.802 238.396C879.634 237.868 879.37 237.448 879.01 237.136C878.662 236.812 878.146 236.65 877.462 236.65C876.658 236.65 876.01 236.914 875.518 237.442C875.038 237.958 874.798 238.714 874.798 239.71V241.726C874.798 242.722 875.038 243.484 875.518 244.012C876.01 244.528 876.658 244.786 877.462 244.786C878.134 244.786 878.668 244.606 879.064 244.246C879.472 243.874 879.772 243.43 879.964 242.914L882.196 244.21C881.728 245.17 881.11 245.914 880.342 246.442C879.586 246.958 878.626 247.216 877.462 247.216ZM890.422 247.216C889.594 247.216 888.838 247.078 888.154 246.802C887.47 246.526 886.888 246.118 886.408 245.578C885.928 245.026 885.556 244.348 885.292 243.544C885.028 242.728 884.896 241.786 884.896 240.718C884.896 239.65 885.028 238.714 885.292 237.91C885.556 237.094 885.928 236.416 886.408 235.876C886.888 235.324 887.47 234.91 888.154 234.634C888.838 234.358 889.594 234.22 890.422 234.22C891.25 234.22 892.006 234.358 892.69 234.634C893.374 234.91 893.956 235.324 894.436 235.876C894.916 236.416 895.288 237.094 895.552 237.91C895.816 238.714 895.948 239.65 895.948 240.718C895.948 241.786 895.816 242.728 895.552 243.544C895.288 244.348 894.916 245.026 894.436 245.578C893.956 246.118 893.374 246.526 892.69 246.802C892.006 247.078 891.25 247.216 890.422 247.216ZM890.422 244.786C891.25 244.786 891.892 244.516 892.348 243.976C892.816 243.436 893.05 242.662 893.05 241.654V239.782C893.05 238.774 892.816 238 892.348 237.46C891.892 236.92 891.25 236.65 890.422 236.65C889.594 236.65 888.946 236.92 888.478 237.46C888.022 238 887.794 238.774 887.794 239.782V241.654C887.794 242.662 888.022 243.436 888.478 243.976C888.946 244.516 889.594 244.786 890.422 244.786ZM903.566 241.06L902.36 238.54H902.306V247H899.732V234.436H902.72L906.158 240.376L907.364 242.896H907.418V234.436H909.992V247H907.004L903.566 241.06ZM919.495 236.866V247H916.759V236.866H913.357V234.436H922.897V236.866H919.495ZM932.831 247L931.931 244.012H927.737L926.837 247H924.065L928.205 234.436H931.589L935.675 247H932.831ZM929.861 236.92H929.771L928.385 241.69H931.265L929.861 236.92ZM943.444 247.216C942.592 247.216 941.824 247.084 941.14 246.82C940.456 246.544 939.874 246.142 939.394 245.614C938.914 245.074 938.542 244.408 938.278 243.616C938.014 242.812 937.882 241.876 937.882 240.808C937.882 239.752 938.014 238.816 938.278 238C938.542 237.172 938.914 236.482 939.394 235.93C939.874 235.366 940.456 234.94 941.14 234.652C941.824 234.364 942.592 234.22 943.444 234.22C944.608 234.22 945.568 234.46 946.324 234.94C947.08 235.408 947.686 236.152 948.142 237.172L945.784 238.396C945.616 237.868 945.352 237.448 944.992 237.136C944.644 236.812 944.128 236.65 943.444 236.65C942.64 236.65 941.992 236.914 941.5 237.442C941.02 237.958 940.78 238.714 940.78 239.71V241.726C940.78 242.722 941.02 243.484 941.5 244.012C941.992 244.528 942.64 244.786 943.444 244.786C944.116 244.786 944.65 244.606 945.046 244.246C945.454 243.874 945.754 243.43 945.946 242.914L948.178 244.21C947.71 245.17 947.092 245.914 946.324 246.442C945.568 246.958 944.608 247.216 943.444 247.216ZM956.831 236.866V247H954.095V236.866H950.693V234.436H960.233V236.866H956.831ZM964.468 247.198C963.928 247.198 963.526 247.066 963.262 246.802C963.01 246.526 962.884 246.178 962.884 245.758V245.398C962.884 244.978 963.01 244.636 963.262 244.372C963.526 244.096 963.928 243.958 964.468 243.958C965.008 243.958 965.404 244.096 965.656 244.372C965.92 244.636 966.052 244.978 966.052 245.398V245.758C966.052 246.178 965.92 246.526 965.656 246.802C965.404 247.066 965.008 247.198 964.468 247.198ZM964.468 240.592C963.928 240.592 963.526 240.46 963.262 240.196C963.01 239.92 962.884 239.572 962.884 239.152V238.792C962.884 238.372 963.01 238.03 963.262 237.766C963.526 237.49 963.928 237.352 964.468 237.352C965.008 237.352 965.404 237.49 965.656 237.766C965.92 238.03 966.052 238.372 966.052 238.792V239.152C966.052 239.572 965.92 239.92 965.656 240.196C965.404 240.46 965.008 240.592 964.468 240.592ZM979.913 241.06L978.707 238.54H978.653V247H976.079V234.436H979.067L982.505 240.376L983.711 242.896H983.765V234.436H986.339V247H983.351L979.913 241.06ZM998.345 247L997.445 244.012H993.251L992.351 247H989.579L993.719 234.436H997.103L1001.19 247H998.345ZM995.375 236.92H995.285L993.899 241.69H996.779L995.375 236.92ZM1013.82 238.756H1013.77L1012.85 240.592L1010.4 245.038L1008.01 240.61L1007.06 238.63H1007V247H1004.43V234.436H1007.33L1010.4 240.322H1010.44L1013.48 234.436H1016.4V247H1013.82V238.756ZM1020.68 247V234.436H1029.23V236.866H1023.41V239.44H1028.4V241.852H1023.41V244.57H1029.23V247H1020.68ZM1043.64 249.178H1039.86C1038.72 249.178 1037.7 248.998 1036.8 248.638C1035.91 248.278 1035.16 247.768 1034.53 247.108C1033.92 246.46 1033.45 245.686 1033.13 244.786C1032.81 243.874 1032.64 242.866 1032.64 241.762C1032.64 240.67 1032.81 239.662 1033.15 238.738C1033.48 237.814 1033.96 237.022 1034.59 236.362C1035.21 235.69 1035.97 235.168 1036.86 234.796C1037.74 234.424 1038.75 234.238 1039.86 234.238C1040.89 234.238 1041.84 234.4 1042.69 234.724C1043.54 235.036 1044.27 235.486 1044.87 236.074C1045.48 236.65 1045.95 237.358 1046.27 238.198C1046.61 239.026 1046.77 239.95 1046.77 240.97C1046.77 242.41 1046.47 243.532 1045.86 244.336C1045.26 245.128 1044.44 245.524 1043.41 245.524C1042.76 245.524 1042.23 245.368 1041.82 245.056C1041.42 244.744 1041.19 244.336 1041.16 243.832H1041.07C1040.95 244.336 1040.72 244.738 1040.38 245.038C1040.06 245.338 1039.6 245.488 1039 245.488C1038.21 245.488 1037.55 245.176 1037.02 244.552C1036.49 243.916 1036.23 242.986 1036.23 241.762C1036.23 240.538 1036.49 239.614 1037.02 238.99C1037.55 238.354 1038.21 238.036 1039 238.036C1039.5 238.036 1039.91 238.174 1040.22 238.45C1040.53 238.714 1040.74 239.044 1040.85 239.44H1040.94V238.198H1042.94V243.04C1042.94 243.64 1043.2 243.94 1043.73 243.94C1044.14 243.94 1044.47 243.724 1044.72 243.292C1044.97 242.848 1045.1 242.164 1045.1 241.24V240.736C1045.1 239.968 1044.97 239.278 1044.7 238.666C1044.45 238.054 1044.09 237.538 1043.62 237.118C1043.17 236.698 1042.62 236.374 1041.97 236.146C1041.33 235.918 1040.63 235.804 1039.86 235.804C1039.01 235.804 1038.24 235.942 1037.56 236.218C1036.89 236.494 1036.3 236.884 1035.81 237.388C1035.33 237.88 1034.96 238.474 1034.7 239.17C1034.44 239.854 1034.32 240.604 1034.32 241.42V242.104C1034.32 242.92 1034.44 243.67 1034.7 244.354C1034.96 245.026 1035.33 245.602 1035.81 246.082C1036.3 246.562 1036.89 246.934 1037.56 247.198C1038.24 247.462 1039.01 247.594 1039.86 247.594H1043.64V249.178ZM1039.74 243.85C1040.05 243.85 1040.32 243.736 1040.56 243.508C1040.82 243.268 1040.94 243.01 1040.94 242.734V240.646C1040.94 240.37 1040.82 240.142 1040.56 239.962C1040.32 239.77 1040.05 239.674 1039.74 239.674C1039.3 239.674 1038.96 239.812 1038.69 240.088C1038.44 240.364 1038.31 240.718 1038.31 241.15V242.374C1038.31 242.806 1038.44 243.16 1038.69 243.436C1038.96 243.712 1039.3 243.85 1039.74 243.85ZM1055.77 247.216C1054.92 247.216 1054.15 247.084 1053.46 246.82C1052.78 246.544 1052.2 246.142 1051.72 245.614C1051.24 245.074 1050.87 244.408 1050.6 243.616C1050.34 242.812 1050.21 241.876 1050.21 240.808C1050.21 239.752 1050.34 238.816 1050.6 238C1050.87 237.172 1051.24 236.482 1051.72 235.93C1052.2 235.366 1052.78 234.94 1053.46 234.652C1054.15 234.364 1054.92 234.22 1055.77 234.22C1056.93 234.22 1057.89 234.46 1058.65 234.94C1059.4 235.408 1060.01 236.152 1060.47 237.172L1058.11 238.396C1057.94 237.868 1057.68 237.448 1057.32 237.136C1056.97 236.812 1056.45 236.65 1055.77 236.65C1054.96 236.65 1054.32 236.914 1053.82 237.442C1053.34 237.958 1053.1 238.714 1053.1 239.71V241.726C1053.1 242.722 1053.34 243.484 1053.82 244.012C1054.32 244.528 1054.96 244.786 1055.77 244.786C1056.44 244.786 1056.97 244.606 1057.37 244.246C1057.78 243.874 1058.08 243.43 1058.27 242.914L1060.5 244.21C1060.03 245.17 1059.42 245.914 1058.65 246.442C1057.89 246.958 1056.93 247.216 1055.77 247.216ZM1068.76 247.216C1067.91 247.216 1067.14 247.084 1066.46 246.82C1065.78 246.544 1065.19 246.142 1064.71 245.614C1064.23 245.074 1063.86 244.408 1063.6 243.616C1063.33 242.812 1063.2 241.876 1063.2 240.808C1063.2 239.752 1063.33 238.816 1063.6 238C1063.86 237.172 1064.23 236.482 1064.71 235.93C1065.19 235.366 1065.78 234.94 1066.46 234.652C1067.14 234.364 1067.91 234.22 1068.76 234.22C1069.93 234.22 1070.89 234.46 1071.64 234.94C1072.4 235.408 1073.01 236.152 1073.46 237.172L1071.1 238.396C1070.94 237.868 1070.67 237.448 1070.31 237.136C1069.96 236.812 1069.45 236.65 1068.76 236.65C1067.96 236.65 1067.31 236.914 1066.82 237.442C1066.34 237.958 1066.1 238.714 1066.1 239.71V241.726C1066.1 242.722 1066.34 243.484 1066.82 244.012C1067.31 244.528 1067.96 244.786 1068.76 244.786C1069.44 244.786 1069.97 244.606 1070.37 244.246C1070.77 243.874 1071.07 243.43 1071.27 242.914L1073.5 244.21C1073.03 245.17 1072.41 245.914 1071.64 246.442C1070.89 246.958 1069.93 247.216 1068.76 247.216ZM1076.91 247V234.436H1082.85C1083.44 234.436 1083.97 234.538 1084.44 234.742C1084.91 234.934 1085.3 235.204 1085.63 235.552C1085.96 235.9 1086.22 236.326 1086.4 236.83C1086.58 237.322 1086.67 237.862 1086.67 238.45C1086.67 239.05 1086.58 239.596 1086.4 240.088C1086.22 240.58 1085.96 241 1085.63 241.348C1085.3 241.696 1084.91 241.972 1084.44 242.176C1083.97 242.368 1083.44 242.464 1082.85 242.464H1079.65V247H1076.91ZM1079.65 240.088H1082.53C1082.94 240.088 1083.26 239.986 1083.48 239.782C1083.72 239.566 1083.84 239.254 1083.84 238.846V238.054C1083.84 237.646 1083.72 237.34 1083.48 237.136C1083.26 236.92 1082.94 236.812 1082.53 236.812H1079.65V240.088ZM1089.74 247V244.822H1091.36V236.614H1089.74V234.436H1095.72V236.614H1094.1V244.822H1095.72V247H1089.74ZM1100.9 247.198C1100.36 247.198 1099.96 247.066 1099.69 246.802C1099.44 246.526 1099.32 246.178 1099.32 245.758V245.398C1099.32 244.978 1099.44 244.636 1099.69 244.372C1099.96 244.096 1100.36 243.958 1100.9 243.958C1101.44 243.958 1101.84 244.096 1102.09 244.372C1102.35 244.636 1102.48 244.978 1102.48 245.398V245.758C1102.48 246.178 1102.35 246.526 1102.09 246.802C1101.84 247.066 1101.44 247.198 1100.9 247.198ZM1110.92 247.216C1110.07 247.216 1109.3 247.084 1108.62 246.82C1107.93 246.544 1107.35 246.142 1106.87 245.614C1106.39 245.074 1106.02 244.408 1105.76 243.616C1105.49 242.812 1105.36 241.876 1105.36 240.808C1105.36 239.752 1105.49 238.816 1105.76 238C1106.02 237.172 1106.39 236.482 1106.87 235.93C1107.35 235.366 1107.93 234.94 1108.62 234.652C1109.3 234.364 1110.07 234.22 1110.92 234.22C1112.09 234.22 1113.05 234.46 1113.8 234.94C1114.56 235.408 1115.16 236.152 1115.62 237.172L1113.26 238.396C1113.09 237.868 1112.83 237.448 1112.47 237.136C1112.12 236.812 1111.61 236.65 1110.92 236.65C1110.12 236.65 1109.47 236.914 1108.98 237.442C1108.5 237.958 1108.26 238.714 1108.26 239.71V241.726C1108.26 242.722 1108.5 243.484 1108.98 244.012C1109.47 244.528 1110.12 244.786 1110.92 244.786C1111.59 244.786 1112.13 244.606 1112.52 244.246C1112.93 243.874 1113.23 243.43 1113.42 242.914L1115.66 244.21C1115.19 245.17 1114.57 245.914 1113.8 246.442C1113.05 246.958 1112.09 247.216 1110.92 247.216ZM1123.88 247.216C1123.06 247.216 1122.3 247.078 1121.62 246.802C1120.93 246.526 1120.35 246.118 1119.87 245.578C1119.39 245.026 1119.02 244.348 1118.75 243.544C1118.49 242.728 1118.36 241.786 1118.36 240.718C1118.36 239.65 1118.49 238.714 1118.75 237.91C1119.02 237.094 1119.39 236.416 1119.87 235.876C1120.35 235.324 1120.93 234.91 1121.62 234.634C1122.3 234.358 1123.06 234.22 1123.88 234.22C1124.71 234.22 1125.47 234.358 1126.15 234.634C1126.84 234.91 1127.42 235.324 1127.9 235.876C1128.38 236.416 1128.75 237.094 1129.01 237.91C1129.28 238.714 1129.41 239.65 1129.41 240.718C1129.41 241.786 1129.28 242.728 1129.01 243.544C1128.75 244.348 1128.38 245.026 1127.9 245.578C1127.42 246.118 1126.84 246.526 1126.15 246.802C1125.47 247.078 1124.71 247.216 1123.88 247.216ZM1123.88 244.786C1124.71 244.786 1125.35 244.516 1125.81 243.976C1126.28 243.436 1126.51 242.662 1126.51 241.654V239.782C1126.51 238.774 1126.28 238 1125.81 237.46C1125.35 236.92 1124.71 236.65 1123.88 236.65C1123.06 236.65 1122.41 236.92 1121.94 237.46C1121.48 238 1121.26 238.774 1121.26 239.782V241.654C1121.26 242.662 1121.48 243.436 1121.94 243.976C1122.41 244.516 1123.06 244.786 1123.88 244.786ZM1142.59 238.756H1142.53L1141.62 240.592L1139.17 245.038L1136.77 240.61L1135.82 238.63H1135.77V247H1133.19V234.436H1136.09L1139.17 240.322H1139.2L1142.25 234.436H1145.16V247H1142.59V238.756Z" fill="black"/>
<path d="M676.026 573.168C675.363 573.168 674.766 573.065 674.234 572.86C673.702 572.645 673.249 572.333 672.876 571.922C672.503 571.502 672.213 570.984 672.008 570.368C671.803 569.743 671.7 569.015 671.7 568.184C671.7 567.363 671.803 566.635 672.008 566C672.213 565.356 672.503 564.819 672.876 564.39C673.249 563.951 673.702 563.62 674.234 563.396C674.766 563.172 675.363 563.06 676.026 563.06C676.931 563.06 677.678 563.247 678.266 563.62C678.854 563.984 679.325 564.563 679.68 565.356L677.846 566.308C677.715 565.897 677.51 565.571 677.23 565.328C676.959 565.076 676.558 564.95 676.026 564.95C675.401 564.95 674.897 565.155 674.514 565.566C674.141 565.967 673.954 566.555 673.954 567.33V568.898C673.954 569.673 674.141 570.265 674.514 570.676C674.897 571.077 675.401 571.278 676.026 571.278C676.549 571.278 676.964 571.138 677.272 570.858C677.589 570.569 677.823 570.223 677.972 569.822L679.708 570.83C679.344 571.577 678.863 572.155 678.266 572.566C677.678 572.967 676.931 573.168 676.026 573.168ZM688.549 568.996H684.825V573H682.697V563.228H684.825V567.12H688.549V563.228H690.677V573H688.549V568.996ZM700.348 573L699.648 570.676H696.386L695.686 573H693.53L696.75 563.228H699.382L702.56 573H700.348ZM698.038 565.16H697.968L696.89 568.87H699.13L698.038 565.16ZM708.394 568.38L707.456 566.42H707.414V573H705.412V563.228H707.736L710.41 567.848L711.348 569.808H711.39V563.228H713.392V573H711.068L708.394 568.38ZM723.245 571.446H723.175C723.1 571.941 722.848 572.351 722.419 572.678C721.99 573.005 721.406 573.168 720.669 573.168C720.109 573.168 719.586 573.061 719.101 572.846C718.616 572.631 718.191 572.314 717.827 571.894C717.463 571.474 717.178 570.951 716.973 570.326C716.768 569.701 716.665 568.977 716.665 568.156C716.665 567.335 716.772 566.607 716.987 565.972C717.202 565.337 717.5 564.805 717.883 564.376C718.275 563.947 718.742 563.62 719.283 563.396C719.824 563.172 720.426 563.06 721.089 563.06C721.966 563.06 722.722 563.251 723.357 563.634C723.992 564.007 724.491 564.572 724.855 565.328L723.119 566.322C722.97 565.939 722.736 565.617 722.419 565.356C722.102 565.085 721.658 564.95 721.089 564.95C720.426 564.95 719.899 565.141 719.507 565.524C719.115 565.907 718.919 566.509 718.919 567.33V568.898C718.919 569.71 719.115 570.312 719.507 570.704C719.899 571.087 720.426 571.278 721.089 571.278C721.35 571.278 721.598 571.25 721.831 571.194C722.064 571.129 722.27 571.035 722.447 570.914C722.624 570.783 722.76 570.629 722.853 570.452C722.956 570.275 723.007 570.065 723.007 569.822V569.332H721.187V567.554H725.037V573H723.245V571.446ZM728.605 573V563.228H735.255V565.118H730.733V567.12H734.611V568.996H730.733V571.11H735.255V573H728.605ZM743.418 573V563.228H748.038C748.495 563.228 748.906 563.307 749.27 563.466C749.634 563.615 749.942 563.825 750.194 564.096C750.455 564.367 750.656 564.698 750.796 565.09C750.936 565.473 751.006 565.893 751.006 566.35C751.006 566.817 750.936 567.241 750.796 567.624C750.656 568.007 750.455 568.333 750.194 568.604C749.942 568.875 749.634 569.089 749.27 569.248C748.906 569.397 748.495 569.472 748.038 569.472H745.546V573H743.418ZM745.546 567.624H747.786C748.103 567.624 748.351 567.545 748.528 567.386C748.715 567.218 748.808 566.975 748.808 566.658V566.042C748.808 565.725 748.715 565.487 748.528 565.328C748.351 565.16 748.103 565.076 747.786 565.076H745.546V567.624ZM759.1 573L758.4 570.676H755.138L754.438 573H752.282L755.502 563.228H758.134L761.312 573H759.1ZM756.79 565.16H756.72L755.642 568.87H757.882L756.79 565.16ZM767.328 573.168C766.469 573.168 765.741 573.023 765.144 572.734C764.547 572.435 764.038 572.053 763.618 571.586L765.018 570.172C765.681 570.919 766.497 571.292 767.468 571.292C767.991 571.292 768.378 571.185 768.63 570.97C768.882 570.755 769.008 570.471 769.008 570.116C769.008 569.845 768.933 569.621 768.784 569.444C768.635 569.257 768.331 569.131 767.874 569.066L766.908 568.94C765.872 568.809 765.111 568.497 764.626 568.002C764.15 567.507 763.912 566.849 763.912 566.028C763.912 565.589 763.996 565.188 764.164 564.824C764.332 564.46 764.57 564.147 764.878 563.886C765.195 563.625 765.578 563.424 766.026 563.284C766.483 563.135 767.001 563.06 767.58 563.06C768.317 563.06 768.966 563.177 769.526 563.41C770.086 563.643 770.567 563.984 770.968 564.432L769.554 565.86C769.321 565.589 769.036 565.37 768.7 565.202C768.373 565.025 767.958 564.936 767.454 564.936C766.978 564.936 766.623 565.02 766.39 565.188C766.157 565.356 766.04 565.589 766.04 565.888C766.04 566.224 766.129 566.467 766.306 566.616C766.493 566.765 766.791 566.873 767.202 566.938L768.168 567.092C769.176 567.251 769.923 567.563 770.408 568.03C770.893 568.487 771.136 569.141 771.136 569.99C771.136 570.457 771.052 570.886 770.884 571.278C770.716 571.67 770.469 572.006 770.142 572.286C769.825 572.566 769.428 572.785 768.952 572.944C768.476 573.093 767.935 573.168 767.328 573.168ZM777.373 573.168C776.514 573.168 775.786 573.023 775.189 572.734C774.592 572.435 774.083 572.053 773.663 571.586L775.063 570.172C775.726 570.919 776.542 571.292 777.513 571.292C778.036 571.292 778.423 571.185 778.675 570.97C778.927 570.755 779.053 570.471 779.053 570.116C779.053 569.845 778.978 569.621 778.829 569.444C778.68 569.257 778.376 569.131 777.919 569.066L776.953 568.94C775.917 568.809 775.156 568.497 774.671 568.002C774.195 567.507 773.957 566.849 773.957 566.028C773.957 565.589 774.041 565.188 774.209 564.824C774.377 564.46 774.615 564.147 774.923 563.886C775.24 563.625 775.623 563.424 776.071 563.284C776.528 563.135 777.046 563.06 777.625 563.06C778.362 563.06 779.011 563.177 779.571 563.41C780.131 563.643 780.612 563.984 781.013 564.432L779.599 565.86C779.366 565.589 779.081 565.37 778.745 565.202C778.418 565.025 778.003 564.936 777.499 564.936C777.023 564.936 776.668 565.02 776.435 565.188C776.202 565.356 776.085 565.589 776.085 565.888C776.085 566.224 776.174 566.467 776.351 566.616C776.538 566.765 776.836 566.873 777.247 566.938L778.213 567.092C779.221 567.251 779.968 567.563 780.453 568.03C780.938 568.487 781.181 569.141 781.181 569.99C781.181 570.457 781.097 570.886 780.929 571.278C780.761 571.67 780.514 572.006 780.187 572.286C779.87 572.566 779.473 572.785 778.997 572.944C778.521 573.093 777.98 573.168 777.373 573.168ZM785.739 573L783.527 563.228H785.627L786.551 567.918L787.069 570.634H787.111L787.727 567.918L788.805 563.228H791.129L792.221 567.918L792.823 570.634H792.865L793.383 567.918L794.321 563.228H796.337L794.069 573H791.647L790.415 567.708L789.939 565.566H789.897L789.407 567.708L788.175 573H785.739ZM802.908 573.168C802.264 573.168 801.676 573.061 801.144 572.846C800.612 572.631 800.159 572.314 799.786 571.894C799.413 571.465 799.123 570.937 798.918 570.312C798.713 569.677 798.61 568.945 798.61 568.114C798.61 567.283 798.713 566.555 798.918 565.93C799.123 565.295 799.413 564.768 799.786 564.348C800.159 563.919 800.612 563.597 801.144 563.382C801.676 563.167 802.264 563.06 802.908 563.06C803.552 563.06 804.14 563.167 804.672 563.382C805.204 563.597 805.657 563.919 806.03 564.348C806.403 564.768 806.693 565.295 806.898 565.93C807.103 566.555 807.206 567.283 807.206 568.114C807.206 568.945 807.103 569.677 806.898 570.312C806.693 570.937 806.403 571.465 806.03 571.894C805.657 572.314 805.204 572.631 804.672 572.846C804.14 573.061 803.552 573.168 802.908 573.168ZM802.908 571.278C803.552 571.278 804.051 571.068 804.406 570.648C804.77 570.228 804.952 569.626 804.952 568.842V567.386C804.952 566.602 804.77 566 804.406 565.58C804.051 565.16 803.552 564.95 802.908 564.95C802.264 564.95 801.76 565.16 801.396 565.58C801.041 566 800.864 566.602 800.864 567.386V568.842C800.864 569.626 801.041 570.228 801.396 570.648C801.76 571.068 802.264 571.278 802.908 571.278ZM812.61 573H810.482V563.228H815.116C815.564 563.228 815.97 563.303 816.334 563.452C816.698 563.601 817.006 563.816 817.258 564.096C817.52 564.367 817.72 564.693 817.86 565.076C818 565.459 818.07 565.883 818.07 566.35C818.07 567.013 817.921 567.591 817.622 568.086C817.333 568.581 816.89 568.94 816.292 569.164L818.21 573H815.844L814.136 569.416H812.61V573ZM814.85 567.624C815.168 567.624 815.415 567.545 815.592 567.386C815.779 567.218 815.872 566.975 815.872 566.658V566.042C815.872 565.725 815.779 565.487 815.592 565.328C815.415 565.16 815.168 565.076 814.85 565.076H812.61V567.624H814.85ZM821.416 563.228H825.098C825.742 563.228 826.33 563.331 826.862 563.536C827.394 563.741 827.847 564.049 828.22 564.46C828.593 564.861 828.883 565.37 829.088 565.986C829.293 566.593 829.396 567.302 829.396 568.114C829.396 568.926 829.293 569.64 829.088 570.256C828.883 570.863 828.593 571.371 828.22 571.782C827.847 572.183 827.394 572.487 826.862 572.692C826.33 572.897 825.742 573 825.098 573H821.416V563.228ZM825.098 571.11C825.733 571.11 826.232 570.933 826.596 570.578C826.96 570.223 827.142 569.654 827.142 568.87V567.358C827.142 566.574 826.96 566.005 826.596 565.65C826.232 565.295 825.733 565.118 825.098 565.118H823.544V571.11H825.098Z" fill="black"/>
<path d="M678.098 633L677.398 630.676H674.136L673.436 633H671.28L674.5 623.228H677.132L680.31 633H678.098ZM675.788 625.16H675.718L674.64 628.87H676.88L675.788 625.16ZM683.162 633V623.228H687.782C688.239 623.228 688.65 623.307 689.014 623.466C689.378 623.615 689.686 623.825 689.938 624.096C690.199 624.367 690.4 624.698 690.54 625.09C690.68 625.473 690.75 625.893 690.75 626.35C690.75 626.817 690.68 627.241 690.54 627.624C690.4 628.007 690.199 628.333 689.938 628.604C689.686 628.875 689.378 629.089 689.014 629.248C688.65 629.397 688.239 629.472 687.782 629.472H685.29V633H683.162ZM685.29 627.624H687.53C687.847 627.624 688.095 627.545 688.272 627.386C688.459 627.218 688.552 626.975 688.552 626.658V626.042C688.552 625.725 688.459 625.487 688.272 625.328C688.095 625.16 687.847 625.076 687.53 625.076H685.29V627.624ZM693.849 633V623.228H698.469C698.927 623.228 699.337 623.307 699.701 623.466C700.065 623.615 700.373 623.825 700.625 624.096C700.887 624.367 701.087 624.698 701.227 625.09C701.367 625.473 701.437 625.893 701.437 626.35C701.437 626.817 701.367 627.241 701.227 627.624C701.087 628.007 700.887 628.333 700.625 628.604C700.373 628.875 700.065 629.089 699.701 629.248C699.337 629.397 698.927 629.472 698.469 629.472H695.977V633H693.849ZM695.977 627.624H698.217C698.535 627.624 698.782 627.545 698.959 627.386C699.146 627.218 699.239 626.975 699.239 626.658V626.042C699.239 625.725 699.146 625.487 698.959 625.328C698.782 625.16 698.535 625.076 698.217 625.076H695.977V627.624ZM704.537 633V623.228H711.187V625.118H706.665V627.12H710.543V628.996H706.665V631.11H711.187V633H704.537ZM720.561 633L719.861 630.676H716.599L715.899 633H713.743L716.963 623.228H719.595L722.773 633H720.561ZM718.251 625.16H718.181L717.103 628.87H719.343L718.251 625.16ZM727.753 633H725.625V623.228H730.259C730.707 623.228 731.113 623.303 731.477 623.452C731.841 623.601 732.149 623.816 732.401 624.096C732.662 624.367 732.863 624.693 733.003 625.076C733.143 625.459 733.213 625.883 733.213 626.35C733.213 627.013 733.064 627.591 732.765 628.086C732.476 628.581 732.032 628.94 731.435 629.164L733.353 633H730.987L729.279 629.416H727.753V633ZM729.993 627.624C730.31 627.624 730.558 627.545 730.735 627.386C730.922 627.218 731.015 626.975 731.015 626.658V626.042C731.015 625.725 730.922 625.487 730.735 625.328C730.558 625.16 730.31 625.076 729.993 625.076H727.753V627.624H729.993ZM742.578 633L741.878 630.676H738.616L737.916 633H735.76L738.98 623.228H741.612L744.79 633H742.578ZM740.268 625.16H740.198L739.12 628.87H741.36L740.268 625.16ZM750.624 628.38L749.686 626.42H749.644V633H747.642V623.228H749.966L752.64 627.848L753.578 629.808H753.62V623.228H755.622V633H753.298L750.624 628.38ZM763.221 633.168C762.559 633.168 761.961 633.065 761.429 632.86C760.897 632.645 760.445 632.333 760.071 631.922C759.698 631.502 759.409 630.984 759.203 630.368C758.998 629.743 758.895 629.015 758.895 628.184C758.895 627.363 758.998 626.635 759.203 626C759.409 625.356 759.698 624.819 760.071 624.39C760.445 623.951 760.897 623.62 761.429 623.396C761.961 623.172 762.559 623.06 763.221 623.06C764.127 623.06 764.873 623.247 765.461 623.62C766.049 623.984 766.521 624.563 766.875 625.356L765.041 626.308C764.911 625.897 764.705 625.571 764.425 625.328C764.155 625.076 763.753 624.95 763.221 624.95C762.596 624.95 762.092 625.155 761.709 625.566C761.336 625.967 761.149 626.555 761.149 627.33V628.898C761.149 629.673 761.336 630.265 761.709 630.676C762.092 631.077 762.596 631.278 763.221 631.278C763.744 631.278 764.159 631.138 764.467 630.858C764.785 630.569 765.018 630.223 765.167 629.822L766.903 630.83C766.539 631.577 766.059 632.155 765.461 632.566C764.873 632.967 764.127 633.168 763.221 633.168ZM769.892 633V623.228H776.542V625.118H772.02V627.12H775.898V628.996H772.02V631.11H776.542V633H769.892Z" fill="black"/>
<path d="M677.93 676.996H674.206V681H672.078V671.228H674.206V675.12H677.93V671.228H680.058V681H677.93V676.996ZM683.709 681V671.228H690.359V673.118H685.837V675.12H689.715V676.996H685.837V679.11H690.359V681H683.709ZM693.713 681V671.228H695.841V679.11H699.565V681H693.713ZM702.637 681V671.228H707.257C707.714 671.228 708.125 671.307 708.489 671.466C708.853 671.615 709.161 671.825 709.413 672.096C709.674 672.367 709.875 672.698 710.015 673.09C710.155 673.473 710.225 673.893 710.225 674.35C710.225 674.817 710.155 675.241 710.015 675.624C709.875 676.007 709.674 676.333 709.413 676.604C709.161 676.875 708.853 677.089 708.489 677.248C708.125 677.397 707.714 677.472 707.257 677.472H704.765V681H702.637ZM704.765 675.624H707.005C707.322 675.624 707.569 675.545 707.747 675.386C707.933 675.218 708.027 674.975 708.027 674.658V674.042C708.027 673.725 707.933 673.487 707.747 673.328C707.569 673.16 707.322 673.076 707.005 673.076H704.765V675.624Z" fill="black"/>
<defs>
<filter id="filter0_d" x="175" y="28" width="250" height="971" filterUnits="userSpaceOnUse" color-interpolation-filters="sRGB">
<feFlood flood-opacity="0" result="BackgroundImageFix"/>
<feColorMatrix in="SourceAlpha" type="matrix" values="0 0 0 0 0 0 0 0 0 0 0 0 0 0 0 0 0 0 127 0"/>
<feOffset dy="4"/>
<feGaussianBlur stdDeviation="2"/>
<feColorMatrix type="matrix" values="0 0 0 0 0 0 0 0 0 0 0 0 0 0 0 0 0 0 0.25 0"/>
<feBlend mode="normal" in2="BackgroundImageFix" result="effect1_dropShadow"/>
<feBlend mode="normal" in="SourceGraphic" in2="effect1_dropShadow" result="shape"/>
</filter>
<filter id="filter1_d" x="428" y="25" width="997" height="983" filterUnits="userSpaceOnUse" color-interpolation-filters="sRGB">
<feFlood flood-opacity="0" result="BackgroundImageFix"/>
<feColorMatrix in="SourceAlpha" type="matrix" values="0 0 0 0 0 0 0 0 0 0 0 0 0 0 0 0 0 0 127 0"/>
<feOffset dy="4"/>
<feGaussianBlur stdDeviation="5"/>
<feColorMatrix type="matrix" values="0 0 0 0 0 0 0 0 0 0 0 0 0 0 0 0 0 0 0.32 0"/>
<feBlend mode="normal" in2="BackgroundImageFix" result="effect1_dropShadow"/>
<feBlend mode="normal" in="SourceGraphic" in2="effect1_dropShadow" result="shape"/>
</filter>
</defs>
</svg>
